M48
;GenerationSoftware,Autodesk,EAGLE,9.5.2*%
;CreationDate,2020-03-11T17:50:52Z*%
FMAT,2
ICI,OFF
METRIC,TZ,000.000
T3C0.813
T2C1.016
T1C1.321
%
G90
M71
T1
X20590Y43420
T2
X21590Y8890
X38020Y8350
X40560Y8350
X43100Y8350
X16510Y8890
X19050Y8890
T3
X54610Y26670
X22860Y38100
X20320Y38100
X33020Y22860
X35560Y22860
X62230Y16510
X62230Y19050
X22860Y26670
X25400Y26670
X21590Y48260
X24130Y48260
X41910Y31750
X44450Y31750
X52070Y40640
X52070Y43180
X54610Y19050
X33020Y43180
X63500Y39370
X60960Y39370
X41910Y40640
X44450Y40640
X58420Y33020
X55880Y33020
X62850Y29210
X65390Y29210
X49530Y8890
X54610Y8890
X46990Y19050
X35560Y11430
X35560Y16510
X35560Y13970
X49530Y19050
X33020Y40640
X49530Y26670
X46990Y26670
X52070Y19050
X52070Y26670
X52070Y8890
M30