G04 EAGLE Gerber RS-274X export*
G75*
%MOMM*%
%FSLAX34Y34*%
%LPD*%
%INSilkscreen Top*%
%IPPOS*%
%AMOC8*
5,1,8,0,0,1.08239X$1,22.5*%
G01*
%ADD10C,0.152400*%
%ADD11C,0.127000*%
%ADD12C,0.203200*%
%ADD13C,0.254000*%


D10*
X558800Y257810D02*
X457200Y257810D01*
X457200Y199390D02*
X558800Y199390D01*
X558800Y257810D01*
X457200Y257810D02*
X457200Y238760D01*
X457200Y218440D02*
X457200Y199390D01*
X457200Y218440D02*
X457447Y218443D01*
X457695Y218452D01*
X457942Y218467D01*
X458188Y218488D01*
X458434Y218515D01*
X458679Y218548D01*
X458924Y218587D01*
X459167Y218632D01*
X459409Y218683D01*
X459650Y218740D01*
X459889Y218802D01*
X460127Y218871D01*
X460363Y218945D01*
X460597Y219025D01*
X460829Y219110D01*
X461059Y219202D01*
X461287Y219298D01*
X461512Y219401D01*
X461735Y219508D01*
X461955Y219622D01*
X462172Y219740D01*
X462387Y219864D01*
X462598Y219993D01*
X462806Y220127D01*
X463011Y220266D01*
X463212Y220410D01*
X463410Y220558D01*
X463604Y220712D01*
X463794Y220870D01*
X463980Y221033D01*
X464162Y221200D01*
X464340Y221372D01*
X464514Y221548D01*
X464684Y221728D01*
X464849Y221913D01*
X465009Y222101D01*
X465165Y222293D01*
X465317Y222489D01*
X465463Y222688D01*
X465605Y222891D01*
X465741Y223098D01*
X465873Y223307D01*
X465999Y223520D01*
X466120Y223736D01*
X466236Y223954D01*
X466346Y224176D01*
X466451Y224400D01*
X466551Y224626D01*
X466645Y224855D01*
X466733Y225086D01*
X466816Y225320D01*
X466893Y225555D01*
X466964Y225792D01*
X467030Y226030D01*
X467089Y226270D01*
X467143Y226512D01*
X467191Y226755D01*
X467233Y226998D01*
X467269Y227243D01*
X467299Y227489D01*
X467323Y227735D01*
X467341Y227982D01*
X467353Y228229D01*
X467359Y228476D01*
X467359Y228724D01*
X467353Y228971D01*
X467341Y229218D01*
X467323Y229465D01*
X467299Y229711D01*
X467269Y229957D01*
X467233Y230202D01*
X467191Y230445D01*
X467143Y230688D01*
X467089Y230930D01*
X467030Y231170D01*
X466964Y231408D01*
X466893Y231645D01*
X466816Y231880D01*
X466733Y232114D01*
X466645Y232345D01*
X466551Y232574D01*
X466451Y232800D01*
X466346Y233024D01*
X466236Y233246D01*
X466120Y233464D01*
X465999Y233680D01*
X465873Y233893D01*
X465741Y234102D01*
X465605Y234309D01*
X465463Y234512D01*
X465317Y234711D01*
X465165Y234907D01*
X465009Y235099D01*
X464849Y235287D01*
X464684Y235472D01*
X464514Y235652D01*
X464340Y235828D01*
X464162Y236000D01*
X463980Y236167D01*
X463794Y236330D01*
X463604Y236488D01*
X463410Y236642D01*
X463212Y236790D01*
X463011Y236934D01*
X462806Y237073D01*
X462598Y237207D01*
X462387Y237336D01*
X462172Y237460D01*
X461955Y237578D01*
X461735Y237692D01*
X461512Y237799D01*
X461287Y237902D01*
X461059Y237998D01*
X460829Y238090D01*
X460597Y238175D01*
X460363Y238255D01*
X460127Y238329D01*
X459889Y238398D01*
X459650Y238460D01*
X459409Y238517D01*
X459167Y238568D01*
X458924Y238613D01*
X458679Y238652D01*
X458434Y238685D01*
X458188Y238712D01*
X457942Y238733D01*
X457695Y238748D01*
X457447Y238757D01*
X457200Y238760D01*
D11*
X454025Y201295D02*
X442595Y201295D01*
X454025Y200025D02*
X454025Y202565D01*
X442595Y202565D02*
X442595Y200025D01*
X454025Y209767D02*
X454025Y212307D01*
X454025Y209767D02*
X454023Y209667D01*
X454017Y209568D01*
X454007Y209468D01*
X453994Y209370D01*
X453976Y209271D01*
X453955Y209174D01*
X453930Y209078D01*
X453901Y208982D01*
X453868Y208888D01*
X453832Y208795D01*
X453792Y208704D01*
X453748Y208614D01*
X453701Y208526D01*
X453651Y208440D01*
X453597Y208356D01*
X453540Y208274D01*
X453480Y208195D01*
X453416Y208117D01*
X453350Y208043D01*
X453281Y207971D01*
X453209Y207902D01*
X453135Y207836D01*
X453057Y207772D01*
X452978Y207712D01*
X452896Y207655D01*
X452812Y207601D01*
X452726Y207551D01*
X452638Y207504D01*
X452548Y207460D01*
X452457Y207420D01*
X452364Y207384D01*
X452270Y207351D01*
X452174Y207322D01*
X452078Y207297D01*
X451981Y207276D01*
X451882Y207258D01*
X451784Y207245D01*
X451684Y207235D01*
X451585Y207229D01*
X451485Y207227D01*
X445135Y207227D01*
X445035Y207229D01*
X444936Y207235D01*
X444836Y207245D01*
X444738Y207258D01*
X444639Y207276D01*
X444542Y207297D01*
X444446Y207322D01*
X444350Y207351D01*
X444256Y207384D01*
X444163Y207420D01*
X444072Y207460D01*
X443982Y207504D01*
X443894Y207551D01*
X443808Y207601D01*
X443724Y207655D01*
X443642Y207712D01*
X443563Y207772D01*
X443485Y207836D01*
X443411Y207902D01*
X443339Y207971D01*
X443270Y208043D01*
X443204Y208117D01*
X443140Y208195D01*
X443080Y208274D01*
X443023Y208356D01*
X442969Y208440D01*
X442919Y208526D01*
X442872Y208614D01*
X442828Y208704D01*
X442788Y208795D01*
X442752Y208888D01*
X442719Y208982D01*
X442690Y209078D01*
X442665Y209174D01*
X442644Y209271D01*
X442626Y209370D01*
X442613Y209468D01*
X442603Y209568D01*
X442597Y209667D01*
X442595Y209767D01*
X442595Y212307D01*
X445135Y216789D02*
X442595Y219964D01*
X454025Y219964D01*
X454025Y216789D02*
X454025Y223139D01*
D12*
X190500Y361950D02*
X190500Y400050D01*
D13*
X190974Y400666D01*
X191463Y401271D01*
X191967Y401863D01*
X192485Y402443D01*
X193017Y403010D01*
X193563Y403564D01*
X194122Y404104D01*
X194695Y404630D01*
X195280Y405143D01*
X195877Y405640D01*
X196486Y406123D01*
X197107Y406591D01*
X197740Y407044D01*
X198383Y407481D01*
X199037Y407902D01*
X199701Y408306D01*
X200374Y408695D01*
X201057Y409067D01*
X201749Y409422D01*
X202449Y409760D01*
X203157Y410081D01*
X203873Y410384D01*
X204597Y410670D01*
X205326Y410938D01*
X206063Y411188D01*
X206805Y411419D01*
X207553Y411633D01*
X208305Y411828D01*
X209063Y412005D01*
X209824Y412163D01*
X210589Y412303D01*
X211357Y412423D01*
X212128Y412525D01*
X212901Y412608D01*
X213676Y412672D01*
X214452Y412717D01*
X215229Y412743D01*
X216007Y412750D01*
X216784Y412738D01*
X217561Y412707D01*
X218337Y412656D01*
X219112Y412587D01*
X219884Y412499D01*
X220654Y412392D01*
X221422Y412266D01*
X222186Y412122D01*
X222946Y411958D01*
X223702Y411776D01*
X224453Y411576D01*
X225200Y411358D01*
X225940Y411121D01*
X226675Y410866D01*
X227403Y410593D01*
X228124Y410302D01*
X228838Y409994D01*
X229544Y409669D01*
X230242Y409326D01*
X230932Y408966D01*
X231612Y408590D01*
X232283Y408197D01*
X232944Y407787D01*
X233595Y407362D01*
X234235Y406921D01*
X234864Y406464D01*
X235482Y405992D01*
X236088Y405505D01*
X236682Y405003D01*
X237264Y404487D01*
X237833Y403957D01*
X238388Y403413D01*
X238931Y402855D01*
X239459Y402285D01*
X239973Y401702D01*
X240473Y401106D01*
X240958Y400498D01*
X241428Y399879D01*
X241882Y399248D01*
X242321Y398606D01*
X242745Y397954D01*
X243152Y397291D01*
X243543Y396619D01*
X243917Y395937D01*
X244274Y395247D01*
X244614Y394548D01*
X244938Y393840D01*
X245243Y393126D01*
X245532Y392403D01*
X245802Y391674D01*
X246054Y390939D01*
X246289Y390197D01*
X246505Y389450D01*
X246703Y388698D01*
X246882Y387942D01*
X247043Y387181D01*
X247185Y386417D01*
X247308Y385649D01*
X247412Y384878D01*
X247498Y384105D01*
X247564Y383331D01*
X247612Y382555D01*
X247640Y381778D01*
X247650Y381000D01*
X247640Y380222D01*
X247612Y379445D01*
X247564Y378669D01*
X247498Y377895D01*
X247412Y377122D01*
X247308Y376351D01*
X247185Y375583D01*
X247043Y374819D01*
X246882Y374058D01*
X246703Y373302D01*
X246505Y372550D01*
X246289Y371803D01*
X246054Y371061D01*
X245802Y370326D01*
X245532Y369597D01*
X245243Y368874D01*
X244938Y368160D01*
X244614Y367452D01*
X244274Y366753D01*
X243917Y366063D01*
X243543Y365381D01*
X243152Y364709D01*
X242745Y364046D01*
X242321Y363394D01*
X241882Y362752D01*
X241428Y362121D01*
X240958Y361502D01*
X240473Y360894D01*
X239973Y360298D01*
X239459Y359715D01*
X238931Y359145D01*
X238388Y358587D01*
X237833Y358043D01*
X237264Y357513D01*
X236682Y356997D01*
X236088Y356495D01*
X235482Y356008D01*
X234864Y355536D01*
X234235Y355079D01*
X233595Y354638D01*
X232944Y354213D01*
X232283Y353803D01*
X231612Y353410D01*
X230932Y353034D01*
X230242Y352674D01*
X229544Y352331D01*
X228838Y352006D01*
X228124Y351698D01*
X227403Y351407D01*
X226675Y351134D01*
X225940Y350879D01*
X225200Y350642D01*
X224453Y350424D01*
X223702Y350224D01*
X222946Y350042D01*
X222186Y349878D01*
X221422Y349734D01*
X220654Y349608D01*
X219884Y349501D01*
X219112Y349413D01*
X218337Y349344D01*
X217561Y349293D01*
X216784Y349262D01*
X216007Y349250D01*
X215229Y349257D01*
X214452Y349283D01*
X213676Y349328D01*
X212901Y349392D01*
X212128Y349475D01*
X211357Y349577D01*
X210589Y349697D01*
X209824Y349837D01*
X209063Y349995D01*
X208305Y350172D01*
X207553Y350367D01*
X206805Y350581D01*
X206063Y350812D01*
X205326Y351062D01*
X204597Y351330D01*
X203873Y351616D01*
X203157Y351919D01*
X202449Y352240D01*
X201749Y352578D01*
X201057Y352933D01*
X200374Y353305D01*
X199701Y353694D01*
X199037Y354098D01*
X198383Y354519D01*
X197740Y354956D01*
X197107Y355409D01*
X196486Y355877D01*
X195877Y356360D01*
X195280Y356857D01*
X194695Y357370D01*
X194122Y357896D01*
X193563Y358436D01*
X193017Y358990D01*
X192485Y359557D01*
X191967Y360137D01*
X191463Y360729D01*
X190974Y361334D01*
X190500Y361950D01*
D10*
X190500Y381000D02*
X190508Y381623D01*
X190531Y382246D01*
X190569Y382869D01*
X190622Y383490D01*
X190691Y384109D01*
X190775Y384727D01*
X190874Y385342D01*
X190988Y385955D01*
X191117Y386565D01*
X191261Y387172D01*
X191420Y387775D01*
X191594Y388373D01*
X191782Y388968D01*
X191985Y389557D01*
X192202Y390141D01*
X192433Y390720D01*
X192679Y391293D01*
X192939Y391860D01*
X193212Y392420D01*
X193499Y392973D01*
X193800Y393520D01*
X194114Y394058D01*
X194441Y394589D01*
X194781Y395111D01*
X195133Y395626D01*
X195499Y396131D01*
X195876Y396627D01*
X196266Y397114D01*
X196667Y397591D01*
X197080Y398058D01*
X197504Y398514D01*
X197939Y398961D01*
X198386Y399396D01*
X198842Y399820D01*
X199309Y400233D01*
X199786Y400634D01*
X200273Y401024D01*
X200769Y401401D01*
X201274Y401767D01*
X201789Y402119D01*
X202311Y402459D01*
X202842Y402786D01*
X203380Y403100D01*
X203927Y403401D01*
X204480Y403688D01*
X205040Y403961D01*
X205607Y404221D01*
X206180Y404467D01*
X206759Y404698D01*
X207343Y404915D01*
X207932Y405118D01*
X208527Y405306D01*
X209125Y405480D01*
X209728Y405639D01*
X210335Y405783D01*
X210945Y405912D01*
X211558Y406026D01*
X212173Y406125D01*
X212791Y406209D01*
X213410Y406278D01*
X214031Y406331D01*
X214654Y406369D01*
X215277Y406392D01*
X215900Y406400D01*
X216523Y406392D01*
X217146Y406369D01*
X217769Y406331D01*
X218390Y406278D01*
X219009Y406209D01*
X219627Y406125D01*
X220242Y406026D01*
X220855Y405912D01*
X221465Y405783D01*
X222072Y405639D01*
X222675Y405480D01*
X223273Y405306D01*
X223868Y405118D01*
X224457Y404915D01*
X225041Y404698D01*
X225620Y404467D01*
X226193Y404221D01*
X226760Y403961D01*
X227320Y403688D01*
X227873Y403401D01*
X228420Y403100D01*
X228958Y402786D01*
X229489Y402459D01*
X230011Y402119D01*
X230526Y401767D01*
X231031Y401401D01*
X231527Y401024D01*
X232014Y400634D01*
X232491Y400233D01*
X232958Y399820D01*
X233414Y399396D01*
X233861Y398961D01*
X234296Y398514D01*
X234720Y398058D01*
X235133Y397591D01*
X235534Y397114D01*
X235924Y396627D01*
X236301Y396131D01*
X236667Y395626D01*
X237019Y395111D01*
X237359Y394589D01*
X237686Y394058D01*
X238000Y393520D01*
X238301Y392973D01*
X238588Y392420D01*
X238861Y391860D01*
X239121Y391293D01*
X239367Y390720D01*
X239598Y390141D01*
X239815Y389557D01*
X240018Y388968D01*
X240206Y388373D01*
X240380Y387775D01*
X240539Y387172D01*
X240683Y386565D01*
X240812Y385955D01*
X240926Y385342D01*
X241025Y384727D01*
X241109Y384109D01*
X241178Y383490D01*
X241231Y382869D01*
X241269Y382246D01*
X241292Y381623D01*
X241300Y381000D01*
X241292Y380377D01*
X241269Y379754D01*
X241231Y379131D01*
X241178Y378510D01*
X241109Y377891D01*
X241025Y377273D01*
X240926Y376658D01*
X240812Y376045D01*
X240683Y375435D01*
X240539Y374828D01*
X240380Y374225D01*
X240206Y373627D01*
X240018Y373032D01*
X239815Y372443D01*
X239598Y371859D01*
X239367Y371280D01*
X239121Y370707D01*
X238861Y370140D01*
X238588Y369580D01*
X238301Y369027D01*
X238000Y368480D01*
X237686Y367942D01*
X237359Y367411D01*
X237019Y366889D01*
X236667Y366374D01*
X236301Y365869D01*
X235924Y365373D01*
X235534Y364886D01*
X235133Y364409D01*
X234720Y363942D01*
X234296Y363486D01*
X233861Y363039D01*
X233414Y362604D01*
X232958Y362180D01*
X232491Y361767D01*
X232014Y361366D01*
X231527Y360976D01*
X231031Y360599D01*
X230526Y360233D01*
X230011Y359881D01*
X229489Y359541D01*
X228958Y359214D01*
X228420Y358900D01*
X227873Y358599D01*
X227320Y358312D01*
X226760Y358039D01*
X226193Y357779D01*
X225620Y357533D01*
X225041Y357302D01*
X224457Y357085D01*
X223868Y356882D01*
X223273Y356694D01*
X222675Y356520D01*
X222072Y356361D01*
X221465Y356217D01*
X220855Y356088D01*
X220242Y355974D01*
X219627Y355875D01*
X219009Y355791D01*
X218390Y355722D01*
X217769Y355669D01*
X217146Y355631D01*
X216523Y355608D01*
X215900Y355600D01*
X215277Y355608D01*
X214654Y355631D01*
X214031Y355669D01*
X213410Y355722D01*
X212791Y355791D01*
X212173Y355875D01*
X211558Y355974D01*
X210945Y356088D01*
X210335Y356217D01*
X209728Y356361D01*
X209125Y356520D01*
X208527Y356694D01*
X207932Y356882D01*
X207343Y357085D01*
X206759Y357302D01*
X206180Y357533D01*
X205607Y357779D01*
X205040Y358039D01*
X204480Y358312D01*
X203927Y358599D01*
X203380Y358900D01*
X202842Y359214D01*
X202311Y359541D01*
X201789Y359881D01*
X201274Y360233D01*
X200769Y360599D01*
X200273Y360976D01*
X199786Y361366D01*
X199309Y361767D01*
X198842Y362180D01*
X198386Y362604D01*
X197939Y363039D01*
X197504Y363486D01*
X197080Y363942D01*
X196667Y364409D01*
X196266Y364886D01*
X195876Y365373D01*
X195499Y365869D01*
X195133Y366374D01*
X194781Y366889D01*
X194441Y367411D01*
X194114Y367942D01*
X193800Y368480D01*
X193499Y369027D01*
X193212Y369580D01*
X192939Y370140D01*
X192679Y370707D01*
X192433Y371280D01*
X192202Y371859D01*
X191985Y372443D01*
X191782Y373032D01*
X191594Y373627D01*
X191420Y374225D01*
X191261Y374828D01*
X191117Y375435D01*
X190988Y376045D01*
X190874Y376658D01*
X190775Y377273D01*
X190691Y377891D01*
X190622Y378510D01*
X190569Y379131D01*
X190531Y379754D01*
X190508Y380377D01*
X190500Y381000D01*
D11*
X172683Y363601D02*
X170143Y363601D01*
X170043Y363603D01*
X169944Y363609D01*
X169844Y363619D01*
X169746Y363632D01*
X169647Y363650D01*
X169550Y363671D01*
X169454Y363696D01*
X169358Y363725D01*
X169264Y363758D01*
X169171Y363794D01*
X169080Y363834D01*
X168990Y363878D01*
X168902Y363925D01*
X168816Y363975D01*
X168732Y364029D01*
X168650Y364086D01*
X168571Y364146D01*
X168493Y364210D01*
X168419Y364276D01*
X168347Y364345D01*
X168278Y364417D01*
X168212Y364491D01*
X168148Y364569D01*
X168088Y364648D01*
X168031Y364730D01*
X167977Y364814D01*
X167927Y364900D01*
X167880Y364988D01*
X167836Y365078D01*
X167796Y365169D01*
X167760Y365262D01*
X167727Y365356D01*
X167698Y365452D01*
X167673Y365548D01*
X167652Y365645D01*
X167634Y365744D01*
X167621Y365842D01*
X167611Y365942D01*
X167605Y366041D01*
X167603Y366141D01*
X167603Y372491D01*
X167605Y372591D01*
X167611Y372690D01*
X167621Y372790D01*
X167634Y372888D01*
X167652Y372987D01*
X167673Y373084D01*
X167698Y373180D01*
X167727Y373276D01*
X167760Y373370D01*
X167796Y373463D01*
X167836Y373554D01*
X167880Y373644D01*
X167927Y373732D01*
X167977Y373818D01*
X168031Y373902D01*
X168088Y373984D01*
X168148Y374063D01*
X168212Y374141D01*
X168278Y374215D01*
X168347Y374287D01*
X168419Y374356D01*
X168493Y374422D01*
X168571Y374486D01*
X168650Y374546D01*
X168732Y374603D01*
X168816Y374657D01*
X168902Y374707D01*
X168990Y374754D01*
X169080Y374798D01*
X169171Y374838D01*
X169264Y374874D01*
X169358Y374907D01*
X169454Y374936D01*
X169550Y374961D01*
X169647Y374982D01*
X169746Y375000D01*
X169844Y375013D01*
X169944Y375023D01*
X170043Y375029D01*
X170143Y375031D01*
X172683Y375031D01*
X177165Y366776D02*
X177167Y366887D01*
X177173Y366997D01*
X177182Y367108D01*
X177196Y367218D01*
X177213Y367327D01*
X177234Y367436D01*
X177259Y367544D01*
X177288Y367651D01*
X177320Y367757D01*
X177356Y367862D01*
X177396Y367965D01*
X177439Y368067D01*
X177486Y368168D01*
X177537Y368267D01*
X177590Y368364D01*
X177647Y368458D01*
X177708Y368551D01*
X177771Y368642D01*
X177838Y368731D01*
X177908Y368817D01*
X177981Y368900D01*
X178056Y368982D01*
X178134Y369060D01*
X178216Y369135D01*
X178299Y369208D01*
X178385Y369278D01*
X178474Y369345D01*
X178565Y369408D01*
X178658Y369469D01*
X178753Y369526D01*
X178849Y369579D01*
X178948Y369630D01*
X179049Y369677D01*
X179151Y369720D01*
X179254Y369760D01*
X179359Y369796D01*
X179465Y369828D01*
X179572Y369857D01*
X179680Y369882D01*
X179789Y369903D01*
X179898Y369920D01*
X180008Y369934D01*
X180119Y369943D01*
X180229Y369949D01*
X180340Y369951D01*
X180451Y369949D01*
X180561Y369943D01*
X180672Y369934D01*
X180782Y369920D01*
X180891Y369903D01*
X181000Y369882D01*
X181108Y369857D01*
X181215Y369828D01*
X181321Y369796D01*
X181426Y369760D01*
X181529Y369720D01*
X181631Y369677D01*
X181732Y369630D01*
X181831Y369579D01*
X181928Y369526D01*
X182022Y369469D01*
X182115Y369408D01*
X182206Y369345D01*
X182295Y369278D01*
X182381Y369208D01*
X182464Y369135D01*
X182546Y369060D01*
X182624Y368982D01*
X182699Y368900D01*
X182772Y368817D01*
X182842Y368731D01*
X182909Y368642D01*
X182972Y368551D01*
X183033Y368458D01*
X183090Y368364D01*
X183143Y368267D01*
X183194Y368168D01*
X183241Y368067D01*
X183284Y367965D01*
X183324Y367862D01*
X183360Y367757D01*
X183392Y367651D01*
X183421Y367544D01*
X183446Y367436D01*
X183467Y367327D01*
X183484Y367218D01*
X183498Y367108D01*
X183507Y366997D01*
X183513Y366887D01*
X183515Y366776D01*
X183513Y366665D01*
X183507Y366555D01*
X183498Y366444D01*
X183484Y366334D01*
X183467Y366225D01*
X183446Y366116D01*
X183421Y366008D01*
X183392Y365901D01*
X183360Y365795D01*
X183324Y365690D01*
X183284Y365587D01*
X183241Y365485D01*
X183194Y365384D01*
X183143Y365285D01*
X183090Y365188D01*
X183033Y365094D01*
X182972Y365001D01*
X182909Y364910D01*
X182842Y364821D01*
X182772Y364735D01*
X182699Y364652D01*
X182624Y364570D01*
X182546Y364492D01*
X182464Y364417D01*
X182381Y364344D01*
X182295Y364274D01*
X182206Y364207D01*
X182115Y364144D01*
X182022Y364083D01*
X181927Y364026D01*
X181831Y363973D01*
X181732Y363922D01*
X181631Y363875D01*
X181529Y363832D01*
X181426Y363792D01*
X181321Y363756D01*
X181215Y363724D01*
X181108Y363695D01*
X181000Y363670D01*
X180891Y363649D01*
X180782Y363632D01*
X180672Y363618D01*
X180561Y363609D01*
X180451Y363603D01*
X180340Y363601D01*
X180229Y363603D01*
X180119Y363609D01*
X180008Y363618D01*
X179898Y363632D01*
X179789Y363649D01*
X179680Y363670D01*
X179572Y363695D01*
X179465Y363724D01*
X179359Y363756D01*
X179254Y363792D01*
X179151Y363832D01*
X179049Y363875D01*
X178948Y363922D01*
X178849Y363973D01*
X178753Y364026D01*
X178658Y364083D01*
X178565Y364144D01*
X178474Y364207D01*
X178385Y364274D01*
X178299Y364344D01*
X178216Y364417D01*
X178134Y364492D01*
X178056Y364570D01*
X177981Y364652D01*
X177908Y364735D01*
X177838Y364821D01*
X177771Y364910D01*
X177708Y365001D01*
X177647Y365094D01*
X177590Y365189D01*
X177537Y365285D01*
X177486Y365384D01*
X177439Y365485D01*
X177396Y365587D01*
X177356Y365690D01*
X177320Y365795D01*
X177288Y365901D01*
X177259Y366008D01*
X177234Y366116D01*
X177213Y366225D01*
X177196Y366334D01*
X177182Y366444D01*
X177173Y366555D01*
X177167Y366665D01*
X177165Y366776D01*
X177800Y372491D02*
X177802Y372591D01*
X177808Y372690D01*
X177818Y372790D01*
X177831Y372888D01*
X177849Y372987D01*
X177870Y373084D01*
X177895Y373180D01*
X177924Y373276D01*
X177957Y373370D01*
X177993Y373463D01*
X178033Y373554D01*
X178077Y373644D01*
X178124Y373732D01*
X178174Y373818D01*
X178228Y373902D01*
X178285Y373984D01*
X178345Y374063D01*
X178409Y374141D01*
X178475Y374215D01*
X178544Y374287D01*
X178616Y374356D01*
X178690Y374422D01*
X178768Y374486D01*
X178847Y374546D01*
X178929Y374603D01*
X179013Y374657D01*
X179099Y374707D01*
X179187Y374754D01*
X179277Y374798D01*
X179368Y374838D01*
X179461Y374874D01*
X179555Y374907D01*
X179651Y374936D01*
X179747Y374961D01*
X179844Y374982D01*
X179943Y375000D01*
X180041Y375013D01*
X180141Y375023D01*
X180240Y375029D01*
X180340Y375031D01*
X180440Y375029D01*
X180539Y375023D01*
X180639Y375013D01*
X180737Y375000D01*
X180836Y374982D01*
X180933Y374961D01*
X181029Y374936D01*
X181125Y374907D01*
X181219Y374874D01*
X181312Y374838D01*
X181403Y374798D01*
X181493Y374754D01*
X181581Y374707D01*
X181667Y374657D01*
X181751Y374603D01*
X181833Y374546D01*
X181912Y374486D01*
X181990Y374422D01*
X182064Y374356D01*
X182136Y374287D01*
X182205Y374215D01*
X182271Y374141D01*
X182335Y374063D01*
X182395Y373984D01*
X182452Y373902D01*
X182506Y373818D01*
X182556Y373732D01*
X182603Y373644D01*
X182647Y373554D01*
X182687Y373463D01*
X182723Y373370D01*
X182756Y373276D01*
X182785Y373180D01*
X182810Y373084D01*
X182831Y372987D01*
X182849Y372888D01*
X182862Y372790D01*
X182872Y372690D01*
X182878Y372591D01*
X182880Y372491D01*
X182878Y372391D01*
X182872Y372292D01*
X182862Y372192D01*
X182849Y372094D01*
X182831Y371995D01*
X182810Y371898D01*
X182785Y371802D01*
X182756Y371706D01*
X182723Y371612D01*
X182687Y371519D01*
X182647Y371428D01*
X182603Y371338D01*
X182556Y371250D01*
X182506Y371164D01*
X182452Y371080D01*
X182395Y370998D01*
X182335Y370919D01*
X182271Y370841D01*
X182205Y370767D01*
X182136Y370695D01*
X182064Y370626D01*
X181990Y370560D01*
X181912Y370496D01*
X181833Y370436D01*
X181751Y370379D01*
X181667Y370325D01*
X181581Y370275D01*
X181493Y370228D01*
X181403Y370184D01*
X181312Y370144D01*
X181219Y370108D01*
X181125Y370075D01*
X181029Y370046D01*
X180933Y370021D01*
X180836Y370000D01*
X180737Y369982D01*
X180639Y369969D01*
X180539Y369959D01*
X180440Y369953D01*
X180340Y369951D01*
X180240Y369953D01*
X180141Y369959D01*
X180041Y369969D01*
X179943Y369982D01*
X179844Y370000D01*
X179747Y370021D01*
X179651Y370046D01*
X179555Y370075D01*
X179461Y370108D01*
X179368Y370144D01*
X179277Y370184D01*
X179187Y370228D01*
X179099Y370275D01*
X179013Y370325D01*
X178929Y370379D01*
X178847Y370436D01*
X178768Y370496D01*
X178690Y370560D01*
X178616Y370626D01*
X178544Y370695D01*
X178475Y370767D01*
X178409Y370841D01*
X178345Y370919D01*
X178285Y370998D01*
X178228Y371080D01*
X178174Y371164D01*
X178124Y371250D01*
X178077Y371338D01*
X178033Y371428D01*
X177993Y371519D01*
X177957Y371612D01*
X177924Y371706D01*
X177895Y371802D01*
X177870Y371898D01*
X177849Y371995D01*
X177831Y372094D01*
X177818Y372192D01*
X177808Y372292D01*
X177802Y372391D01*
X177800Y372491D01*
D12*
X368300Y247650D02*
X368300Y209550D01*
D13*
X367826Y208934D01*
X367337Y208329D01*
X366833Y207737D01*
X366315Y207157D01*
X365783Y206590D01*
X365237Y206036D01*
X364678Y205496D01*
X364105Y204970D01*
X363520Y204457D01*
X362923Y203960D01*
X362314Y203477D01*
X361693Y203009D01*
X361060Y202556D01*
X360417Y202119D01*
X359763Y201698D01*
X359099Y201294D01*
X358426Y200905D01*
X357743Y200533D01*
X357051Y200178D01*
X356351Y199840D01*
X355643Y199519D01*
X354927Y199216D01*
X354203Y198930D01*
X353474Y198662D01*
X352737Y198412D01*
X351995Y198181D01*
X351247Y197967D01*
X350495Y197772D01*
X349737Y197595D01*
X348976Y197437D01*
X348211Y197297D01*
X347443Y197177D01*
X346672Y197075D01*
X345899Y196992D01*
X345124Y196928D01*
X344348Y196883D01*
X343571Y196857D01*
X342793Y196850D01*
X342016Y196862D01*
X341239Y196893D01*
X340463Y196944D01*
X339688Y197013D01*
X338916Y197101D01*
X338146Y197208D01*
X337378Y197334D01*
X336614Y197478D01*
X335854Y197642D01*
X335098Y197824D01*
X334347Y198024D01*
X333600Y198242D01*
X332860Y198479D01*
X332125Y198734D01*
X331397Y199007D01*
X330676Y199298D01*
X329962Y199606D01*
X329256Y199931D01*
X328558Y200274D01*
X327868Y200634D01*
X327188Y201010D01*
X326517Y201403D01*
X325856Y201813D01*
X325205Y202238D01*
X324565Y202679D01*
X323936Y203136D01*
X323318Y203608D01*
X322712Y204095D01*
X322118Y204597D01*
X321536Y205113D01*
X320967Y205643D01*
X320412Y206187D01*
X319869Y206745D01*
X319341Y207315D01*
X318827Y207898D01*
X318327Y208494D01*
X317842Y209102D01*
X317372Y209721D01*
X316918Y210352D01*
X316479Y210994D01*
X316055Y211646D01*
X315648Y212309D01*
X315257Y212981D01*
X314883Y213663D01*
X314526Y214353D01*
X314186Y215052D01*
X313862Y215760D01*
X313557Y216474D01*
X313268Y217197D01*
X312998Y217926D01*
X312746Y218661D01*
X312511Y219403D01*
X312295Y220150D01*
X312097Y220902D01*
X311918Y221658D01*
X311757Y222419D01*
X311615Y223183D01*
X311492Y223951D01*
X311388Y224722D01*
X311302Y225495D01*
X311236Y226269D01*
X311188Y227045D01*
X311160Y227822D01*
X311150Y228600D01*
X311160Y229378D01*
X311188Y230155D01*
X311236Y230931D01*
X311302Y231705D01*
X311388Y232478D01*
X311492Y233249D01*
X311615Y234017D01*
X311757Y234781D01*
X311918Y235542D01*
X312097Y236298D01*
X312295Y237050D01*
X312511Y237797D01*
X312746Y238539D01*
X312998Y239274D01*
X313268Y240003D01*
X313557Y240726D01*
X313862Y241440D01*
X314186Y242148D01*
X314526Y242847D01*
X314883Y243537D01*
X315257Y244219D01*
X315648Y244891D01*
X316055Y245554D01*
X316479Y246206D01*
X316918Y246848D01*
X317372Y247479D01*
X317842Y248098D01*
X318327Y248706D01*
X318827Y249302D01*
X319341Y249885D01*
X319869Y250455D01*
X320412Y251013D01*
X320967Y251557D01*
X321536Y252087D01*
X322118Y252603D01*
X322712Y253105D01*
X323318Y253592D01*
X323936Y254064D01*
X324565Y254521D01*
X325205Y254962D01*
X325856Y255387D01*
X326517Y255797D01*
X327188Y256190D01*
X327868Y256566D01*
X328558Y256926D01*
X329256Y257269D01*
X329962Y257594D01*
X330676Y257902D01*
X331397Y258193D01*
X332125Y258466D01*
X332860Y258721D01*
X333600Y258958D01*
X334347Y259176D01*
X335098Y259376D01*
X335854Y259558D01*
X336614Y259722D01*
X337378Y259866D01*
X338146Y259992D01*
X338916Y260099D01*
X339688Y260187D01*
X340463Y260256D01*
X341239Y260307D01*
X342016Y260338D01*
X342793Y260350D01*
X343571Y260343D01*
X344348Y260317D01*
X345124Y260272D01*
X345899Y260208D01*
X346672Y260125D01*
X347443Y260023D01*
X348211Y259903D01*
X348976Y259763D01*
X349737Y259605D01*
X350495Y259428D01*
X351247Y259233D01*
X351995Y259019D01*
X352737Y258788D01*
X353474Y258538D01*
X354203Y258270D01*
X354927Y257984D01*
X355643Y257681D01*
X356351Y257360D01*
X357051Y257022D01*
X357743Y256667D01*
X358426Y256295D01*
X359099Y255906D01*
X359763Y255502D01*
X360417Y255081D01*
X361060Y254644D01*
X361693Y254191D01*
X362314Y253723D01*
X362923Y253240D01*
X363520Y252743D01*
X364105Y252230D01*
X364678Y251704D01*
X365237Y251164D01*
X365783Y250610D01*
X366315Y250043D01*
X366833Y249463D01*
X367337Y248871D01*
X367826Y248266D01*
X368300Y247650D01*
D10*
X317500Y228600D02*
X317508Y229223D01*
X317531Y229846D01*
X317569Y230469D01*
X317622Y231090D01*
X317691Y231709D01*
X317775Y232327D01*
X317874Y232942D01*
X317988Y233555D01*
X318117Y234165D01*
X318261Y234772D01*
X318420Y235375D01*
X318594Y235973D01*
X318782Y236568D01*
X318985Y237157D01*
X319202Y237741D01*
X319433Y238320D01*
X319679Y238893D01*
X319939Y239460D01*
X320212Y240020D01*
X320499Y240573D01*
X320800Y241120D01*
X321114Y241658D01*
X321441Y242189D01*
X321781Y242711D01*
X322133Y243226D01*
X322499Y243731D01*
X322876Y244227D01*
X323266Y244714D01*
X323667Y245191D01*
X324080Y245658D01*
X324504Y246114D01*
X324939Y246561D01*
X325386Y246996D01*
X325842Y247420D01*
X326309Y247833D01*
X326786Y248234D01*
X327273Y248624D01*
X327769Y249001D01*
X328274Y249367D01*
X328789Y249719D01*
X329311Y250059D01*
X329842Y250386D01*
X330380Y250700D01*
X330927Y251001D01*
X331480Y251288D01*
X332040Y251561D01*
X332607Y251821D01*
X333180Y252067D01*
X333759Y252298D01*
X334343Y252515D01*
X334932Y252718D01*
X335527Y252906D01*
X336125Y253080D01*
X336728Y253239D01*
X337335Y253383D01*
X337945Y253512D01*
X338558Y253626D01*
X339173Y253725D01*
X339791Y253809D01*
X340410Y253878D01*
X341031Y253931D01*
X341654Y253969D01*
X342277Y253992D01*
X342900Y254000D01*
X343523Y253992D01*
X344146Y253969D01*
X344769Y253931D01*
X345390Y253878D01*
X346009Y253809D01*
X346627Y253725D01*
X347242Y253626D01*
X347855Y253512D01*
X348465Y253383D01*
X349072Y253239D01*
X349675Y253080D01*
X350273Y252906D01*
X350868Y252718D01*
X351457Y252515D01*
X352041Y252298D01*
X352620Y252067D01*
X353193Y251821D01*
X353760Y251561D01*
X354320Y251288D01*
X354873Y251001D01*
X355420Y250700D01*
X355958Y250386D01*
X356489Y250059D01*
X357011Y249719D01*
X357526Y249367D01*
X358031Y249001D01*
X358527Y248624D01*
X359014Y248234D01*
X359491Y247833D01*
X359958Y247420D01*
X360414Y246996D01*
X360861Y246561D01*
X361296Y246114D01*
X361720Y245658D01*
X362133Y245191D01*
X362534Y244714D01*
X362924Y244227D01*
X363301Y243731D01*
X363667Y243226D01*
X364019Y242711D01*
X364359Y242189D01*
X364686Y241658D01*
X365000Y241120D01*
X365301Y240573D01*
X365588Y240020D01*
X365861Y239460D01*
X366121Y238893D01*
X366367Y238320D01*
X366598Y237741D01*
X366815Y237157D01*
X367018Y236568D01*
X367206Y235973D01*
X367380Y235375D01*
X367539Y234772D01*
X367683Y234165D01*
X367812Y233555D01*
X367926Y232942D01*
X368025Y232327D01*
X368109Y231709D01*
X368178Y231090D01*
X368231Y230469D01*
X368269Y229846D01*
X368292Y229223D01*
X368300Y228600D01*
X368292Y227977D01*
X368269Y227354D01*
X368231Y226731D01*
X368178Y226110D01*
X368109Y225491D01*
X368025Y224873D01*
X367926Y224258D01*
X367812Y223645D01*
X367683Y223035D01*
X367539Y222428D01*
X367380Y221825D01*
X367206Y221227D01*
X367018Y220632D01*
X366815Y220043D01*
X366598Y219459D01*
X366367Y218880D01*
X366121Y218307D01*
X365861Y217740D01*
X365588Y217180D01*
X365301Y216627D01*
X365000Y216080D01*
X364686Y215542D01*
X364359Y215011D01*
X364019Y214489D01*
X363667Y213974D01*
X363301Y213469D01*
X362924Y212973D01*
X362534Y212486D01*
X362133Y212009D01*
X361720Y211542D01*
X361296Y211086D01*
X360861Y210639D01*
X360414Y210204D01*
X359958Y209780D01*
X359491Y209367D01*
X359014Y208966D01*
X358527Y208576D01*
X358031Y208199D01*
X357526Y207833D01*
X357011Y207481D01*
X356489Y207141D01*
X355958Y206814D01*
X355420Y206500D01*
X354873Y206199D01*
X354320Y205912D01*
X353760Y205639D01*
X353193Y205379D01*
X352620Y205133D01*
X352041Y204902D01*
X351457Y204685D01*
X350868Y204482D01*
X350273Y204294D01*
X349675Y204120D01*
X349072Y203961D01*
X348465Y203817D01*
X347855Y203688D01*
X347242Y203574D01*
X346627Y203475D01*
X346009Y203391D01*
X345390Y203322D01*
X344769Y203269D01*
X344146Y203231D01*
X343523Y203208D01*
X342900Y203200D01*
X342277Y203208D01*
X341654Y203231D01*
X341031Y203269D01*
X340410Y203322D01*
X339791Y203391D01*
X339173Y203475D01*
X338558Y203574D01*
X337945Y203688D01*
X337335Y203817D01*
X336728Y203961D01*
X336125Y204120D01*
X335527Y204294D01*
X334932Y204482D01*
X334343Y204685D01*
X333759Y204902D01*
X333180Y205133D01*
X332607Y205379D01*
X332040Y205639D01*
X331480Y205912D01*
X330927Y206199D01*
X330380Y206500D01*
X329842Y206814D01*
X329311Y207141D01*
X328789Y207481D01*
X328274Y207833D01*
X327769Y208199D01*
X327273Y208576D01*
X326786Y208966D01*
X326309Y209367D01*
X325842Y209780D01*
X325386Y210204D01*
X324939Y210639D01*
X324504Y211086D01*
X324080Y211542D01*
X323667Y212009D01*
X323266Y212486D01*
X322876Y212973D01*
X322499Y213469D01*
X322133Y213974D01*
X321781Y214489D01*
X321441Y215011D01*
X321114Y215542D01*
X320800Y216080D01*
X320499Y216627D01*
X320212Y217180D01*
X319939Y217740D01*
X319679Y218307D01*
X319433Y218880D01*
X319202Y219459D01*
X318985Y220043D01*
X318782Y220632D01*
X318594Y221227D01*
X318420Y221825D01*
X318261Y222428D01*
X318117Y223035D01*
X317988Y223645D01*
X317874Y224258D01*
X317775Y224873D01*
X317691Y225491D01*
X317622Y226110D01*
X317569Y226731D01*
X317531Y227354D01*
X317508Y227977D01*
X317500Y228600D01*
D11*
X375285Y234569D02*
X375285Y245999D01*
X375285Y234569D02*
X380365Y234569D01*
X385191Y234569D02*
X390271Y234569D01*
X385191Y234569D02*
X385191Y245999D01*
X390271Y245999D01*
X389001Y240919D02*
X385191Y240919D01*
X395072Y245999D02*
X395072Y234569D01*
X395072Y245999D02*
X398247Y245999D01*
X398358Y245997D01*
X398468Y245991D01*
X398579Y245982D01*
X398689Y245968D01*
X398798Y245951D01*
X398907Y245930D01*
X399015Y245905D01*
X399122Y245876D01*
X399228Y245844D01*
X399333Y245808D01*
X399436Y245768D01*
X399538Y245725D01*
X399639Y245678D01*
X399738Y245627D01*
X399835Y245574D01*
X399929Y245517D01*
X400022Y245456D01*
X400113Y245393D01*
X400202Y245326D01*
X400288Y245256D01*
X400371Y245183D01*
X400453Y245108D01*
X400531Y245030D01*
X400606Y244948D01*
X400679Y244865D01*
X400749Y244779D01*
X400816Y244690D01*
X400879Y244599D01*
X400940Y244506D01*
X400997Y244412D01*
X401050Y244315D01*
X401101Y244216D01*
X401148Y244115D01*
X401191Y244013D01*
X401231Y243910D01*
X401267Y243805D01*
X401299Y243699D01*
X401328Y243592D01*
X401353Y243484D01*
X401374Y243375D01*
X401391Y243266D01*
X401405Y243156D01*
X401414Y243045D01*
X401420Y242935D01*
X401422Y242824D01*
X401422Y237744D01*
X401420Y237633D01*
X401414Y237523D01*
X401405Y237412D01*
X401391Y237302D01*
X401374Y237193D01*
X401353Y237084D01*
X401328Y236976D01*
X401299Y236869D01*
X401267Y236763D01*
X401231Y236658D01*
X401191Y236555D01*
X401148Y236453D01*
X401101Y236352D01*
X401050Y236253D01*
X400997Y236156D01*
X400940Y236062D01*
X400879Y235969D01*
X400816Y235878D01*
X400749Y235789D01*
X400679Y235703D01*
X400606Y235620D01*
X400531Y235538D01*
X400453Y235460D01*
X400371Y235385D01*
X400288Y235312D01*
X400202Y235242D01*
X400113Y235175D01*
X400022Y235112D01*
X399929Y235051D01*
X399835Y234994D01*
X399738Y234941D01*
X399639Y234890D01*
X399538Y234843D01*
X399436Y234800D01*
X399333Y234760D01*
X399228Y234724D01*
X399122Y234692D01*
X399015Y234663D01*
X398907Y234638D01*
X398798Y234617D01*
X398689Y234600D01*
X398579Y234586D01*
X398468Y234577D01*
X398358Y234571D01*
X398247Y234569D01*
X395072Y234569D01*
D12*
X603250Y203200D02*
X641350Y203200D01*
D13*
X641966Y202726D01*
X642571Y202237D01*
X643163Y201733D01*
X643743Y201215D01*
X644310Y200683D01*
X644864Y200137D01*
X645404Y199578D01*
X645930Y199005D01*
X646443Y198420D01*
X646940Y197823D01*
X647423Y197214D01*
X647891Y196593D01*
X648344Y195960D01*
X648781Y195317D01*
X649202Y194663D01*
X649606Y193999D01*
X649995Y193326D01*
X650367Y192643D01*
X650722Y191951D01*
X651060Y191251D01*
X651381Y190543D01*
X651684Y189827D01*
X651970Y189103D01*
X652238Y188374D01*
X652488Y187637D01*
X652719Y186895D01*
X652933Y186147D01*
X653128Y185395D01*
X653305Y184637D01*
X653463Y183876D01*
X653603Y183111D01*
X653723Y182343D01*
X653825Y181572D01*
X653908Y180799D01*
X653972Y180024D01*
X654017Y179248D01*
X654043Y178471D01*
X654050Y177693D01*
X654038Y176916D01*
X654007Y176139D01*
X653956Y175363D01*
X653887Y174588D01*
X653799Y173816D01*
X653692Y173046D01*
X653566Y172278D01*
X653422Y171514D01*
X653258Y170754D01*
X653076Y169998D01*
X652876Y169247D01*
X652658Y168500D01*
X652421Y167760D01*
X652166Y167025D01*
X651893Y166297D01*
X651602Y165576D01*
X651294Y164862D01*
X650969Y164156D01*
X650626Y163458D01*
X650266Y162768D01*
X649890Y162088D01*
X649497Y161417D01*
X649087Y160756D01*
X648662Y160105D01*
X648221Y159465D01*
X647764Y158836D01*
X647292Y158218D01*
X646805Y157612D01*
X646303Y157018D01*
X645787Y156436D01*
X645257Y155867D01*
X644713Y155312D01*
X644155Y154769D01*
X643585Y154241D01*
X643002Y153727D01*
X642406Y153227D01*
X641798Y152742D01*
X641179Y152272D01*
X640548Y151818D01*
X639906Y151379D01*
X639254Y150955D01*
X638591Y150548D01*
X637919Y150157D01*
X637237Y149783D01*
X636547Y149426D01*
X635848Y149086D01*
X635140Y148762D01*
X634426Y148457D01*
X633703Y148168D01*
X632974Y147898D01*
X632239Y147646D01*
X631497Y147411D01*
X630750Y147195D01*
X629998Y146997D01*
X629242Y146818D01*
X628481Y146657D01*
X627717Y146515D01*
X626949Y146392D01*
X626178Y146288D01*
X625405Y146202D01*
X624631Y146136D01*
X623855Y146088D01*
X623078Y146060D01*
X622300Y146050D01*
X621522Y146060D01*
X620745Y146088D01*
X619969Y146136D01*
X619195Y146202D01*
X618422Y146288D01*
X617651Y146392D01*
X616883Y146515D01*
X616119Y146657D01*
X615358Y146818D01*
X614602Y146997D01*
X613850Y147195D01*
X613103Y147411D01*
X612361Y147646D01*
X611626Y147898D01*
X610897Y148168D01*
X610174Y148457D01*
X609460Y148762D01*
X608752Y149086D01*
X608053Y149426D01*
X607363Y149783D01*
X606681Y150157D01*
X606009Y150548D01*
X605346Y150955D01*
X604694Y151379D01*
X604052Y151818D01*
X603421Y152272D01*
X602802Y152742D01*
X602194Y153227D01*
X601598Y153727D01*
X601015Y154241D01*
X600445Y154769D01*
X599887Y155312D01*
X599343Y155867D01*
X598813Y156436D01*
X598297Y157018D01*
X597795Y157612D01*
X597308Y158218D01*
X596836Y158836D01*
X596379Y159465D01*
X595938Y160105D01*
X595513Y160756D01*
X595103Y161417D01*
X594710Y162088D01*
X594334Y162768D01*
X593974Y163458D01*
X593631Y164156D01*
X593306Y164862D01*
X592998Y165576D01*
X592707Y166297D01*
X592434Y167025D01*
X592179Y167760D01*
X591942Y168500D01*
X591724Y169247D01*
X591524Y169998D01*
X591342Y170754D01*
X591178Y171514D01*
X591034Y172278D01*
X590908Y173046D01*
X590801Y173816D01*
X590713Y174588D01*
X590644Y175363D01*
X590593Y176139D01*
X590562Y176916D01*
X590550Y177693D01*
X590557Y178471D01*
X590583Y179248D01*
X590628Y180024D01*
X590692Y180799D01*
X590775Y181572D01*
X590877Y182343D01*
X590997Y183111D01*
X591137Y183876D01*
X591295Y184637D01*
X591472Y185395D01*
X591667Y186147D01*
X591881Y186895D01*
X592112Y187637D01*
X592362Y188374D01*
X592630Y189103D01*
X592916Y189827D01*
X593219Y190543D01*
X593540Y191251D01*
X593878Y191951D01*
X594233Y192643D01*
X594605Y193326D01*
X594994Y193999D01*
X595398Y194663D01*
X595819Y195317D01*
X596256Y195960D01*
X596709Y196593D01*
X597177Y197214D01*
X597660Y197823D01*
X598157Y198420D01*
X598670Y199005D01*
X599196Y199578D01*
X599736Y200137D01*
X600290Y200683D01*
X600857Y201215D01*
X601437Y201733D01*
X602029Y202237D01*
X602634Y202726D01*
X603250Y203200D01*
D10*
X596900Y177800D02*
X596908Y178423D01*
X596931Y179046D01*
X596969Y179669D01*
X597022Y180290D01*
X597091Y180909D01*
X597175Y181527D01*
X597274Y182142D01*
X597388Y182755D01*
X597517Y183365D01*
X597661Y183972D01*
X597820Y184575D01*
X597994Y185173D01*
X598182Y185768D01*
X598385Y186357D01*
X598602Y186941D01*
X598833Y187520D01*
X599079Y188093D01*
X599339Y188660D01*
X599612Y189220D01*
X599899Y189773D01*
X600200Y190320D01*
X600514Y190858D01*
X600841Y191389D01*
X601181Y191911D01*
X601533Y192426D01*
X601899Y192931D01*
X602276Y193427D01*
X602666Y193914D01*
X603067Y194391D01*
X603480Y194858D01*
X603904Y195314D01*
X604339Y195761D01*
X604786Y196196D01*
X605242Y196620D01*
X605709Y197033D01*
X606186Y197434D01*
X606673Y197824D01*
X607169Y198201D01*
X607674Y198567D01*
X608189Y198919D01*
X608711Y199259D01*
X609242Y199586D01*
X609780Y199900D01*
X610327Y200201D01*
X610880Y200488D01*
X611440Y200761D01*
X612007Y201021D01*
X612580Y201267D01*
X613159Y201498D01*
X613743Y201715D01*
X614332Y201918D01*
X614927Y202106D01*
X615525Y202280D01*
X616128Y202439D01*
X616735Y202583D01*
X617345Y202712D01*
X617958Y202826D01*
X618573Y202925D01*
X619191Y203009D01*
X619810Y203078D01*
X620431Y203131D01*
X621054Y203169D01*
X621677Y203192D01*
X622300Y203200D01*
X622923Y203192D01*
X623546Y203169D01*
X624169Y203131D01*
X624790Y203078D01*
X625409Y203009D01*
X626027Y202925D01*
X626642Y202826D01*
X627255Y202712D01*
X627865Y202583D01*
X628472Y202439D01*
X629075Y202280D01*
X629673Y202106D01*
X630268Y201918D01*
X630857Y201715D01*
X631441Y201498D01*
X632020Y201267D01*
X632593Y201021D01*
X633160Y200761D01*
X633720Y200488D01*
X634273Y200201D01*
X634820Y199900D01*
X635358Y199586D01*
X635889Y199259D01*
X636411Y198919D01*
X636926Y198567D01*
X637431Y198201D01*
X637927Y197824D01*
X638414Y197434D01*
X638891Y197033D01*
X639358Y196620D01*
X639814Y196196D01*
X640261Y195761D01*
X640696Y195314D01*
X641120Y194858D01*
X641533Y194391D01*
X641934Y193914D01*
X642324Y193427D01*
X642701Y192931D01*
X643067Y192426D01*
X643419Y191911D01*
X643759Y191389D01*
X644086Y190858D01*
X644400Y190320D01*
X644701Y189773D01*
X644988Y189220D01*
X645261Y188660D01*
X645521Y188093D01*
X645767Y187520D01*
X645998Y186941D01*
X646215Y186357D01*
X646418Y185768D01*
X646606Y185173D01*
X646780Y184575D01*
X646939Y183972D01*
X647083Y183365D01*
X647212Y182755D01*
X647326Y182142D01*
X647425Y181527D01*
X647509Y180909D01*
X647578Y180290D01*
X647631Y179669D01*
X647669Y179046D01*
X647692Y178423D01*
X647700Y177800D01*
X647692Y177177D01*
X647669Y176554D01*
X647631Y175931D01*
X647578Y175310D01*
X647509Y174691D01*
X647425Y174073D01*
X647326Y173458D01*
X647212Y172845D01*
X647083Y172235D01*
X646939Y171628D01*
X646780Y171025D01*
X646606Y170427D01*
X646418Y169832D01*
X646215Y169243D01*
X645998Y168659D01*
X645767Y168080D01*
X645521Y167507D01*
X645261Y166940D01*
X644988Y166380D01*
X644701Y165827D01*
X644400Y165280D01*
X644086Y164742D01*
X643759Y164211D01*
X643419Y163689D01*
X643067Y163174D01*
X642701Y162669D01*
X642324Y162173D01*
X641934Y161686D01*
X641533Y161209D01*
X641120Y160742D01*
X640696Y160286D01*
X640261Y159839D01*
X639814Y159404D01*
X639358Y158980D01*
X638891Y158567D01*
X638414Y158166D01*
X637927Y157776D01*
X637431Y157399D01*
X636926Y157033D01*
X636411Y156681D01*
X635889Y156341D01*
X635358Y156014D01*
X634820Y155700D01*
X634273Y155399D01*
X633720Y155112D01*
X633160Y154839D01*
X632593Y154579D01*
X632020Y154333D01*
X631441Y154102D01*
X630857Y153885D01*
X630268Y153682D01*
X629673Y153494D01*
X629075Y153320D01*
X628472Y153161D01*
X627865Y153017D01*
X627255Y152888D01*
X626642Y152774D01*
X626027Y152675D01*
X625409Y152591D01*
X624790Y152522D01*
X624169Y152469D01*
X623546Y152431D01*
X622923Y152408D01*
X622300Y152400D01*
X621677Y152408D01*
X621054Y152431D01*
X620431Y152469D01*
X619810Y152522D01*
X619191Y152591D01*
X618573Y152675D01*
X617958Y152774D01*
X617345Y152888D01*
X616735Y153017D01*
X616128Y153161D01*
X615525Y153320D01*
X614927Y153494D01*
X614332Y153682D01*
X613743Y153885D01*
X613159Y154102D01*
X612580Y154333D01*
X612007Y154579D01*
X611440Y154839D01*
X610880Y155112D01*
X610327Y155399D01*
X609780Y155700D01*
X609242Y156014D01*
X608711Y156341D01*
X608189Y156681D01*
X607674Y157033D01*
X607169Y157399D01*
X606673Y157776D01*
X606186Y158166D01*
X605709Y158567D01*
X605242Y158980D01*
X604786Y159404D01*
X604339Y159839D01*
X603904Y160286D01*
X603480Y160742D01*
X603067Y161209D01*
X602666Y161686D01*
X602276Y162173D01*
X601899Y162669D01*
X601533Y163174D01*
X601181Y163689D01*
X600841Y164211D01*
X600514Y164742D01*
X600200Y165280D01*
X599899Y165827D01*
X599612Y166380D01*
X599339Y166940D01*
X599079Y167507D01*
X598833Y168080D01*
X598602Y168659D01*
X598385Y169243D01*
X598182Y169832D01*
X597994Y170427D01*
X597820Y171025D01*
X597661Y171628D01*
X597517Y172235D01*
X597388Y172845D01*
X597274Y173458D01*
X597175Y174073D01*
X597091Y174691D01*
X597022Y175310D01*
X596969Y175931D01*
X596931Y176554D01*
X596908Y177177D01*
X596900Y177800D01*
D11*
X604901Y210185D02*
X616331Y210185D01*
X604901Y210185D02*
X604901Y213360D01*
X604903Y213471D01*
X604909Y213581D01*
X604918Y213692D01*
X604932Y213802D01*
X604949Y213911D01*
X604970Y214020D01*
X604995Y214128D01*
X605024Y214235D01*
X605056Y214341D01*
X605092Y214446D01*
X605132Y214549D01*
X605175Y214651D01*
X605222Y214752D01*
X605273Y214851D01*
X605326Y214948D01*
X605383Y215042D01*
X605444Y215135D01*
X605507Y215226D01*
X605574Y215315D01*
X605644Y215401D01*
X605717Y215484D01*
X605792Y215566D01*
X605870Y215644D01*
X605952Y215719D01*
X606035Y215792D01*
X606121Y215862D01*
X606210Y215929D01*
X606301Y215992D01*
X606394Y216053D01*
X606489Y216110D01*
X606585Y216163D01*
X606684Y216214D01*
X606785Y216261D01*
X606887Y216304D01*
X606990Y216344D01*
X607095Y216380D01*
X607201Y216412D01*
X607308Y216441D01*
X607416Y216466D01*
X607525Y216487D01*
X607634Y216504D01*
X607744Y216518D01*
X607855Y216527D01*
X607965Y216533D01*
X608076Y216535D01*
X608187Y216533D01*
X608297Y216527D01*
X608408Y216518D01*
X608518Y216504D01*
X608627Y216487D01*
X608736Y216466D01*
X608844Y216441D01*
X608951Y216412D01*
X609057Y216380D01*
X609162Y216344D01*
X609265Y216304D01*
X609367Y216261D01*
X609468Y216214D01*
X609567Y216163D01*
X609664Y216110D01*
X609758Y216053D01*
X609851Y215992D01*
X609942Y215929D01*
X610031Y215862D01*
X610117Y215792D01*
X610200Y215719D01*
X610282Y215644D01*
X610360Y215566D01*
X610435Y215484D01*
X610508Y215401D01*
X610578Y215315D01*
X610645Y215226D01*
X610708Y215135D01*
X610769Y215042D01*
X610826Y214948D01*
X610879Y214851D01*
X610930Y214752D01*
X610977Y214651D01*
X611020Y214549D01*
X611060Y214446D01*
X611096Y214341D01*
X611128Y214235D01*
X611157Y214128D01*
X611182Y214020D01*
X611203Y213911D01*
X611220Y213802D01*
X611234Y213692D01*
X611243Y213581D01*
X611249Y213471D01*
X611251Y213360D01*
X611251Y210185D01*
X611251Y213995D02*
X616331Y216535D01*
X616331Y221532D02*
X616331Y224707D01*
X616329Y224818D01*
X616323Y224928D01*
X616314Y225039D01*
X616300Y225149D01*
X616283Y225258D01*
X616262Y225367D01*
X616237Y225475D01*
X616208Y225582D01*
X616176Y225688D01*
X616140Y225793D01*
X616100Y225896D01*
X616057Y225998D01*
X616010Y226099D01*
X615959Y226198D01*
X615906Y226295D01*
X615849Y226389D01*
X615788Y226482D01*
X615725Y226573D01*
X615658Y226662D01*
X615588Y226748D01*
X615515Y226831D01*
X615440Y226913D01*
X615362Y226991D01*
X615280Y227066D01*
X615197Y227139D01*
X615111Y227209D01*
X615022Y227276D01*
X614931Y227339D01*
X614838Y227400D01*
X614744Y227457D01*
X614647Y227510D01*
X614548Y227561D01*
X614447Y227608D01*
X614345Y227651D01*
X614242Y227691D01*
X614137Y227727D01*
X614031Y227759D01*
X613924Y227788D01*
X613816Y227813D01*
X613707Y227834D01*
X613598Y227851D01*
X613488Y227865D01*
X613377Y227874D01*
X613267Y227880D01*
X613156Y227882D01*
X613045Y227880D01*
X612935Y227874D01*
X612824Y227865D01*
X612714Y227851D01*
X612605Y227834D01*
X612496Y227813D01*
X612388Y227788D01*
X612281Y227759D01*
X612175Y227727D01*
X612070Y227691D01*
X611967Y227651D01*
X611865Y227608D01*
X611764Y227561D01*
X611665Y227510D01*
X611569Y227457D01*
X611474Y227400D01*
X611381Y227339D01*
X611290Y227276D01*
X611201Y227209D01*
X611115Y227139D01*
X611032Y227066D01*
X610950Y226991D01*
X610872Y226913D01*
X610797Y226831D01*
X610724Y226748D01*
X610654Y226662D01*
X610587Y226573D01*
X610524Y226482D01*
X610463Y226389D01*
X610406Y226295D01*
X610353Y226198D01*
X610302Y226099D01*
X610255Y225998D01*
X610212Y225896D01*
X610172Y225793D01*
X610136Y225688D01*
X610104Y225582D01*
X610075Y225475D01*
X610050Y225367D01*
X610029Y225258D01*
X610012Y225149D01*
X609998Y225039D01*
X609989Y224928D01*
X609983Y224818D01*
X609981Y224707D01*
X604901Y225342D02*
X604901Y221532D01*
X604901Y225342D02*
X604903Y225442D01*
X604909Y225541D01*
X604919Y225641D01*
X604932Y225739D01*
X604950Y225838D01*
X604971Y225935D01*
X604996Y226031D01*
X605025Y226127D01*
X605058Y226221D01*
X605094Y226314D01*
X605134Y226405D01*
X605178Y226495D01*
X605225Y226583D01*
X605275Y226669D01*
X605329Y226753D01*
X605386Y226835D01*
X605446Y226914D01*
X605510Y226992D01*
X605576Y227066D01*
X605645Y227138D01*
X605717Y227207D01*
X605791Y227273D01*
X605869Y227337D01*
X605948Y227397D01*
X606030Y227454D01*
X606114Y227508D01*
X606200Y227558D01*
X606288Y227605D01*
X606378Y227649D01*
X606469Y227689D01*
X606562Y227725D01*
X606656Y227758D01*
X606752Y227787D01*
X606848Y227812D01*
X606945Y227833D01*
X607044Y227851D01*
X607142Y227864D01*
X607242Y227874D01*
X607341Y227880D01*
X607441Y227882D01*
X607541Y227880D01*
X607640Y227874D01*
X607740Y227864D01*
X607838Y227851D01*
X607937Y227833D01*
X608034Y227812D01*
X608130Y227787D01*
X608226Y227758D01*
X608320Y227725D01*
X608413Y227689D01*
X608504Y227649D01*
X608594Y227605D01*
X608682Y227558D01*
X608768Y227508D01*
X608852Y227454D01*
X608934Y227397D01*
X609013Y227337D01*
X609091Y227273D01*
X609165Y227207D01*
X609237Y227138D01*
X609306Y227066D01*
X609372Y226992D01*
X609436Y226914D01*
X609496Y226835D01*
X609553Y226753D01*
X609607Y226669D01*
X609657Y226583D01*
X609704Y226495D01*
X609748Y226405D01*
X609788Y226314D01*
X609824Y226221D01*
X609857Y226127D01*
X609886Y226031D01*
X609911Y225935D01*
X609932Y225838D01*
X609950Y225739D01*
X609963Y225641D01*
X609973Y225541D01*
X609979Y225442D01*
X609981Y225342D01*
X609981Y222802D01*
D12*
X266700Y247650D02*
X266700Y285750D01*
D13*
X266226Y286366D01*
X265737Y286971D01*
X265233Y287563D01*
X264715Y288143D01*
X264183Y288710D01*
X263637Y289264D01*
X263078Y289804D01*
X262505Y290330D01*
X261920Y290843D01*
X261323Y291340D01*
X260714Y291823D01*
X260093Y292291D01*
X259460Y292744D01*
X258817Y293181D01*
X258163Y293602D01*
X257499Y294006D01*
X256826Y294395D01*
X256143Y294767D01*
X255451Y295122D01*
X254751Y295460D01*
X254043Y295781D01*
X253327Y296084D01*
X252603Y296370D01*
X251874Y296638D01*
X251137Y296888D01*
X250395Y297119D01*
X249647Y297333D01*
X248895Y297528D01*
X248137Y297705D01*
X247376Y297863D01*
X246611Y298003D01*
X245843Y298123D01*
X245072Y298225D01*
X244299Y298308D01*
X243524Y298372D01*
X242748Y298417D01*
X241971Y298443D01*
X241193Y298450D01*
X240416Y298438D01*
X239639Y298407D01*
X238863Y298356D01*
X238088Y298287D01*
X237316Y298199D01*
X236546Y298092D01*
X235778Y297966D01*
X235014Y297822D01*
X234254Y297658D01*
X233498Y297476D01*
X232747Y297276D01*
X232000Y297058D01*
X231260Y296821D01*
X230525Y296566D01*
X229797Y296293D01*
X229076Y296002D01*
X228362Y295694D01*
X227656Y295369D01*
X226958Y295026D01*
X226268Y294666D01*
X225588Y294290D01*
X224917Y293897D01*
X224256Y293487D01*
X223605Y293062D01*
X222965Y292621D01*
X222336Y292164D01*
X221718Y291692D01*
X221112Y291205D01*
X220518Y290703D01*
X219936Y290187D01*
X219367Y289657D01*
X218812Y289113D01*
X218269Y288555D01*
X217741Y287985D01*
X217227Y287402D01*
X216727Y286806D01*
X216242Y286198D01*
X215772Y285579D01*
X215318Y284948D01*
X214879Y284306D01*
X214455Y283654D01*
X214048Y282991D01*
X213657Y282319D01*
X213283Y281637D01*
X212926Y280947D01*
X212586Y280248D01*
X212262Y279540D01*
X211957Y278826D01*
X211668Y278103D01*
X211398Y277374D01*
X211146Y276639D01*
X210911Y275897D01*
X210695Y275150D01*
X210497Y274398D01*
X210318Y273642D01*
X210157Y272881D01*
X210015Y272117D01*
X209892Y271349D01*
X209788Y270578D01*
X209702Y269805D01*
X209636Y269031D01*
X209588Y268255D01*
X209560Y267478D01*
X209550Y266700D01*
X209560Y265922D01*
X209588Y265145D01*
X209636Y264369D01*
X209702Y263595D01*
X209788Y262822D01*
X209892Y262051D01*
X210015Y261283D01*
X210157Y260519D01*
X210318Y259758D01*
X210497Y259002D01*
X210695Y258250D01*
X210911Y257503D01*
X211146Y256761D01*
X211398Y256026D01*
X211668Y255297D01*
X211957Y254574D01*
X212262Y253860D01*
X212586Y253152D01*
X212926Y252453D01*
X213283Y251763D01*
X213657Y251081D01*
X214048Y250409D01*
X214455Y249746D01*
X214879Y249094D01*
X215318Y248452D01*
X215772Y247821D01*
X216242Y247202D01*
X216727Y246594D01*
X217227Y245998D01*
X217741Y245415D01*
X218269Y244845D01*
X218812Y244287D01*
X219367Y243743D01*
X219936Y243213D01*
X220518Y242697D01*
X221112Y242195D01*
X221718Y241708D01*
X222336Y241236D01*
X222965Y240779D01*
X223605Y240338D01*
X224256Y239913D01*
X224917Y239503D01*
X225588Y239110D01*
X226268Y238734D01*
X226958Y238374D01*
X227656Y238031D01*
X228362Y237706D01*
X229076Y237398D01*
X229797Y237107D01*
X230525Y236834D01*
X231260Y236579D01*
X232000Y236342D01*
X232747Y236124D01*
X233498Y235924D01*
X234254Y235742D01*
X235014Y235578D01*
X235778Y235434D01*
X236546Y235308D01*
X237316Y235201D01*
X238088Y235113D01*
X238863Y235044D01*
X239639Y234993D01*
X240416Y234962D01*
X241193Y234950D01*
X241971Y234957D01*
X242748Y234983D01*
X243524Y235028D01*
X244299Y235092D01*
X245072Y235175D01*
X245843Y235277D01*
X246611Y235397D01*
X247376Y235537D01*
X248137Y235695D01*
X248895Y235872D01*
X249647Y236067D01*
X250395Y236281D01*
X251137Y236512D01*
X251874Y236762D01*
X252603Y237030D01*
X253327Y237316D01*
X254043Y237619D01*
X254751Y237940D01*
X255451Y238278D01*
X256143Y238633D01*
X256826Y239005D01*
X257499Y239394D01*
X258163Y239798D01*
X258817Y240219D01*
X259460Y240656D01*
X260093Y241109D01*
X260714Y241577D01*
X261323Y242060D01*
X261920Y242557D01*
X262505Y243070D01*
X263078Y243596D01*
X263637Y244136D01*
X264183Y244690D01*
X264715Y245257D01*
X265233Y245837D01*
X265737Y246429D01*
X266226Y247034D01*
X266700Y247650D01*
D10*
X215900Y266700D02*
X215908Y267323D01*
X215931Y267946D01*
X215969Y268569D01*
X216022Y269190D01*
X216091Y269809D01*
X216175Y270427D01*
X216274Y271042D01*
X216388Y271655D01*
X216517Y272265D01*
X216661Y272872D01*
X216820Y273475D01*
X216994Y274073D01*
X217182Y274668D01*
X217385Y275257D01*
X217602Y275841D01*
X217833Y276420D01*
X218079Y276993D01*
X218339Y277560D01*
X218612Y278120D01*
X218899Y278673D01*
X219200Y279220D01*
X219514Y279758D01*
X219841Y280289D01*
X220181Y280811D01*
X220533Y281326D01*
X220899Y281831D01*
X221276Y282327D01*
X221666Y282814D01*
X222067Y283291D01*
X222480Y283758D01*
X222904Y284214D01*
X223339Y284661D01*
X223786Y285096D01*
X224242Y285520D01*
X224709Y285933D01*
X225186Y286334D01*
X225673Y286724D01*
X226169Y287101D01*
X226674Y287467D01*
X227189Y287819D01*
X227711Y288159D01*
X228242Y288486D01*
X228780Y288800D01*
X229327Y289101D01*
X229880Y289388D01*
X230440Y289661D01*
X231007Y289921D01*
X231580Y290167D01*
X232159Y290398D01*
X232743Y290615D01*
X233332Y290818D01*
X233927Y291006D01*
X234525Y291180D01*
X235128Y291339D01*
X235735Y291483D01*
X236345Y291612D01*
X236958Y291726D01*
X237573Y291825D01*
X238191Y291909D01*
X238810Y291978D01*
X239431Y292031D01*
X240054Y292069D01*
X240677Y292092D01*
X241300Y292100D01*
X241923Y292092D01*
X242546Y292069D01*
X243169Y292031D01*
X243790Y291978D01*
X244409Y291909D01*
X245027Y291825D01*
X245642Y291726D01*
X246255Y291612D01*
X246865Y291483D01*
X247472Y291339D01*
X248075Y291180D01*
X248673Y291006D01*
X249268Y290818D01*
X249857Y290615D01*
X250441Y290398D01*
X251020Y290167D01*
X251593Y289921D01*
X252160Y289661D01*
X252720Y289388D01*
X253273Y289101D01*
X253820Y288800D01*
X254358Y288486D01*
X254889Y288159D01*
X255411Y287819D01*
X255926Y287467D01*
X256431Y287101D01*
X256927Y286724D01*
X257414Y286334D01*
X257891Y285933D01*
X258358Y285520D01*
X258814Y285096D01*
X259261Y284661D01*
X259696Y284214D01*
X260120Y283758D01*
X260533Y283291D01*
X260934Y282814D01*
X261324Y282327D01*
X261701Y281831D01*
X262067Y281326D01*
X262419Y280811D01*
X262759Y280289D01*
X263086Y279758D01*
X263400Y279220D01*
X263701Y278673D01*
X263988Y278120D01*
X264261Y277560D01*
X264521Y276993D01*
X264767Y276420D01*
X264998Y275841D01*
X265215Y275257D01*
X265418Y274668D01*
X265606Y274073D01*
X265780Y273475D01*
X265939Y272872D01*
X266083Y272265D01*
X266212Y271655D01*
X266326Y271042D01*
X266425Y270427D01*
X266509Y269809D01*
X266578Y269190D01*
X266631Y268569D01*
X266669Y267946D01*
X266692Y267323D01*
X266700Y266700D01*
X266692Y266077D01*
X266669Y265454D01*
X266631Y264831D01*
X266578Y264210D01*
X266509Y263591D01*
X266425Y262973D01*
X266326Y262358D01*
X266212Y261745D01*
X266083Y261135D01*
X265939Y260528D01*
X265780Y259925D01*
X265606Y259327D01*
X265418Y258732D01*
X265215Y258143D01*
X264998Y257559D01*
X264767Y256980D01*
X264521Y256407D01*
X264261Y255840D01*
X263988Y255280D01*
X263701Y254727D01*
X263400Y254180D01*
X263086Y253642D01*
X262759Y253111D01*
X262419Y252589D01*
X262067Y252074D01*
X261701Y251569D01*
X261324Y251073D01*
X260934Y250586D01*
X260533Y250109D01*
X260120Y249642D01*
X259696Y249186D01*
X259261Y248739D01*
X258814Y248304D01*
X258358Y247880D01*
X257891Y247467D01*
X257414Y247066D01*
X256927Y246676D01*
X256431Y246299D01*
X255926Y245933D01*
X255411Y245581D01*
X254889Y245241D01*
X254358Y244914D01*
X253820Y244600D01*
X253273Y244299D01*
X252720Y244012D01*
X252160Y243739D01*
X251593Y243479D01*
X251020Y243233D01*
X250441Y243002D01*
X249857Y242785D01*
X249268Y242582D01*
X248673Y242394D01*
X248075Y242220D01*
X247472Y242061D01*
X246865Y241917D01*
X246255Y241788D01*
X245642Y241674D01*
X245027Y241575D01*
X244409Y241491D01*
X243790Y241422D01*
X243169Y241369D01*
X242546Y241331D01*
X241923Y241308D01*
X241300Y241300D01*
X240677Y241308D01*
X240054Y241331D01*
X239431Y241369D01*
X238810Y241422D01*
X238191Y241491D01*
X237573Y241575D01*
X236958Y241674D01*
X236345Y241788D01*
X235735Y241917D01*
X235128Y242061D01*
X234525Y242220D01*
X233927Y242394D01*
X233332Y242582D01*
X232743Y242785D01*
X232159Y243002D01*
X231580Y243233D01*
X231007Y243479D01*
X230440Y243739D01*
X229880Y244012D01*
X229327Y244299D01*
X228780Y244600D01*
X228242Y244914D01*
X227711Y245241D01*
X227189Y245581D01*
X226674Y245933D01*
X226169Y246299D01*
X225673Y246676D01*
X225186Y247066D01*
X224709Y247467D01*
X224242Y247880D01*
X223786Y248304D01*
X223339Y248739D01*
X222904Y249186D01*
X222480Y249642D01*
X222067Y250109D01*
X221666Y250586D01*
X221276Y251073D01*
X220899Y251569D01*
X220533Y252074D01*
X220181Y252589D01*
X219841Y253111D01*
X219514Y253642D01*
X219200Y254180D01*
X218899Y254727D01*
X218612Y255280D01*
X218339Y255840D01*
X218079Y256407D01*
X217833Y256980D01*
X217602Y257559D01*
X217385Y258143D01*
X217182Y258732D01*
X216994Y259327D01*
X216820Y259925D01*
X216661Y260528D01*
X216517Y261135D01*
X216388Y261745D01*
X216274Y262358D01*
X216175Y262973D01*
X216091Y263591D01*
X216022Y264210D01*
X215969Y264831D01*
X215931Y265454D01*
X215908Y266077D01*
X215900Y266700D01*
D11*
X273685Y279019D02*
X276860Y279019D01*
X276971Y279017D01*
X277081Y279011D01*
X277192Y279002D01*
X277302Y278988D01*
X277411Y278971D01*
X277520Y278950D01*
X277628Y278925D01*
X277735Y278896D01*
X277841Y278864D01*
X277946Y278828D01*
X278049Y278788D01*
X278151Y278745D01*
X278252Y278698D01*
X278351Y278647D01*
X278448Y278594D01*
X278542Y278537D01*
X278635Y278476D01*
X278726Y278413D01*
X278815Y278346D01*
X278901Y278276D01*
X278984Y278203D01*
X279066Y278128D01*
X279144Y278050D01*
X279219Y277968D01*
X279292Y277885D01*
X279362Y277799D01*
X279429Y277710D01*
X279492Y277619D01*
X279553Y277526D01*
X279610Y277431D01*
X279663Y277335D01*
X279714Y277236D01*
X279761Y277135D01*
X279804Y277033D01*
X279844Y276930D01*
X279880Y276825D01*
X279912Y276719D01*
X279941Y276612D01*
X279966Y276504D01*
X279987Y276395D01*
X280004Y276286D01*
X280018Y276176D01*
X280027Y276065D01*
X280033Y275955D01*
X280035Y275844D01*
X280033Y275733D01*
X280027Y275623D01*
X280018Y275512D01*
X280004Y275402D01*
X279987Y275293D01*
X279966Y275184D01*
X279941Y275076D01*
X279912Y274969D01*
X279880Y274863D01*
X279844Y274758D01*
X279804Y274655D01*
X279761Y274553D01*
X279714Y274452D01*
X279663Y274353D01*
X279610Y274256D01*
X279553Y274162D01*
X279492Y274069D01*
X279429Y273978D01*
X279362Y273889D01*
X279292Y273803D01*
X279219Y273720D01*
X279144Y273638D01*
X279066Y273560D01*
X278984Y273485D01*
X278901Y273412D01*
X278815Y273342D01*
X278726Y273275D01*
X278635Y273212D01*
X278542Y273151D01*
X278448Y273094D01*
X278351Y273041D01*
X278252Y272990D01*
X278151Y272943D01*
X278049Y272900D01*
X277946Y272860D01*
X277841Y272824D01*
X277735Y272792D01*
X277628Y272763D01*
X277520Y272738D01*
X277411Y272717D01*
X277302Y272700D01*
X277192Y272686D01*
X277081Y272677D01*
X276971Y272671D01*
X276860Y272669D01*
X273685Y272669D01*
X273685Y284099D01*
X276860Y284099D01*
X276960Y284097D01*
X277059Y284091D01*
X277159Y284081D01*
X277257Y284068D01*
X277356Y284050D01*
X277453Y284029D01*
X277549Y284004D01*
X277645Y283975D01*
X277739Y283942D01*
X277832Y283906D01*
X277923Y283866D01*
X278013Y283822D01*
X278101Y283775D01*
X278187Y283725D01*
X278271Y283671D01*
X278353Y283614D01*
X278432Y283554D01*
X278510Y283490D01*
X278584Y283424D01*
X278656Y283355D01*
X278725Y283283D01*
X278791Y283209D01*
X278855Y283131D01*
X278915Y283052D01*
X278972Y282970D01*
X279026Y282886D01*
X279076Y282800D01*
X279123Y282712D01*
X279167Y282622D01*
X279207Y282531D01*
X279243Y282438D01*
X279276Y282344D01*
X279305Y282248D01*
X279330Y282152D01*
X279351Y282055D01*
X279369Y281956D01*
X279382Y281858D01*
X279392Y281758D01*
X279398Y281659D01*
X279400Y281559D01*
X279398Y281459D01*
X279392Y281360D01*
X279382Y281260D01*
X279369Y281162D01*
X279351Y281063D01*
X279330Y280966D01*
X279305Y280870D01*
X279276Y280774D01*
X279243Y280680D01*
X279207Y280587D01*
X279167Y280496D01*
X279123Y280406D01*
X279076Y280318D01*
X279026Y280232D01*
X278972Y280148D01*
X278915Y280066D01*
X278855Y279987D01*
X278791Y279909D01*
X278725Y279835D01*
X278656Y279763D01*
X278584Y279694D01*
X278510Y279628D01*
X278432Y279564D01*
X278353Y279504D01*
X278271Y279447D01*
X278187Y279393D01*
X278101Y279343D01*
X278013Y279296D01*
X277923Y279252D01*
X277832Y279212D01*
X277739Y279176D01*
X277645Y279143D01*
X277549Y279114D01*
X277453Y279089D01*
X277356Y279068D01*
X277257Y279050D01*
X277159Y279037D01*
X277059Y279027D01*
X276960Y279021D01*
X276860Y279019D01*
X284925Y275844D02*
X284925Y284099D01*
X284925Y275844D02*
X284927Y275733D01*
X284933Y275623D01*
X284942Y275512D01*
X284956Y275402D01*
X284973Y275293D01*
X284994Y275184D01*
X285019Y275076D01*
X285048Y274969D01*
X285080Y274863D01*
X285116Y274758D01*
X285156Y274655D01*
X285199Y274553D01*
X285246Y274452D01*
X285297Y274353D01*
X285350Y274257D01*
X285407Y274162D01*
X285468Y274069D01*
X285531Y273978D01*
X285598Y273889D01*
X285668Y273803D01*
X285741Y273720D01*
X285816Y273638D01*
X285894Y273560D01*
X285976Y273485D01*
X286059Y273412D01*
X286145Y273342D01*
X286234Y273275D01*
X286325Y273212D01*
X286418Y273151D01*
X286513Y273094D01*
X286609Y273041D01*
X286708Y272990D01*
X286809Y272943D01*
X286911Y272900D01*
X287014Y272860D01*
X287119Y272824D01*
X287225Y272792D01*
X287332Y272763D01*
X287440Y272738D01*
X287549Y272717D01*
X287658Y272700D01*
X287768Y272686D01*
X287879Y272677D01*
X287989Y272671D01*
X288100Y272669D01*
X288211Y272671D01*
X288321Y272677D01*
X288432Y272686D01*
X288542Y272700D01*
X288651Y272717D01*
X288760Y272738D01*
X288868Y272763D01*
X288975Y272792D01*
X289081Y272824D01*
X289186Y272860D01*
X289289Y272900D01*
X289391Y272943D01*
X289492Y272990D01*
X289591Y273041D01*
X289687Y273094D01*
X289782Y273151D01*
X289875Y273212D01*
X289966Y273275D01*
X290055Y273342D01*
X290141Y273412D01*
X290224Y273485D01*
X290306Y273560D01*
X290384Y273638D01*
X290459Y273720D01*
X290532Y273803D01*
X290602Y273889D01*
X290669Y273978D01*
X290732Y274069D01*
X290793Y274162D01*
X290850Y274256D01*
X290903Y274353D01*
X290954Y274452D01*
X291001Y274553D01*
X291044Y274655D01*
X291084Y274758D01*
X291120Y274863D01*
X291152Y274969D01*
X291181Y275076D01*
X291206Y275184D01*
X291227Y275293D01*
X291244Y275402D01*
X291258Y275512D01*
X291267Y275623D01*
X291273Y275733D01*
X291275Y275844D01*
X291275Y284099D01*
X296355Y284099D02*
X302705Y284099D01*
X296355Y272669D01*
X302705Y272669D01*
X307023Y284099D02*
X313373Y284099D01*
X307023Y272669D01*
X313373Y272669D01*
X318478Y272669D02*
X323558Y272669D01*
X318478Y272669D02*
X318478Y284099D01*
X323558Y284099D01*
X322288Y279019D02*
X318478Y279019D01*
X328441Y284099D02*
X328441Y272669D01*
X328441Y284099D02*
X331616Y284099D01*
X331727Y284097D01*
X331837Y284091D01*
X331948Y284082D01*
X332058Y284068D01*
X332167Y284051D01*
X332276Y284030D01*
X332384Y284005D01*
X332491Y283976D01*
X332597Y283944D01*
X332702Y283908D01*
X332805Y283868D01*
X332907Y283825D01*
X333008Y283778D01*
X333107Y283727D01*
X333204Y283674D01*
X333298Y283617D01*
X333391Y283556D01*
X333482Y283493D01*
X333571Y283426D01*
X333657Y283356D01*
X333740Y283283D01*
X333822Y283208D01*
X333900Y283130D01*
X333975Y283048D01*
X334048Y282965D01*
X334118Y282879D01*
X334185Y282790D01*
X334248Y282699D01*
X334309Y282606D01*
X334366Y282511D01*
X334419Y282415D01*
X334470Y282316D01*
X334517Y282215D01*
X334560Y282113D01*
X334600Y282010D01*
X334636Y281905D01*
X334668Y281799D01*
X334697Y281692D01*
X334722Y281584D01*
X334743Y281475D01*
X334760Y281366D01*
X334774Y281256D01*
X334783Y281145D01*
X334789Y281035D01*
X334791Y280924D01*
X334789Y280813D01*
X334783Y280703D01*
X334774Y280592D01*
X334760Y280482D01*
X334743Y280373D01*
X334722Y280264D01*
X334697Y280156D01*
X334668Y280049D01*
X334636Y279943D01*
X334600Y279838D01*
X334560Y279735D01*
X334517Y279633D01*
X334470Y279532D01*
X334419Y279433D01*
X334366Y279336D01*
X334309Y279242D01*
X334248Y279149D01*
X334185Y279058D01*
X334118Y278969D01*
X334048Y278883D01*
X333975Y278800D01*
X333900Y278718D01*
X333822Y278640D01*
X333740Y278565D01*
X333657Y278492D01*
X333571Y278422D01*
X333482Y278355D01*
X333391Y278292D01*
X333298Y278231D01*
X333204Y278174D01*
X333107Y278121D01*
X333008Y278070D01*
X332907Y278023D01*
X332805Y277980D01*
X332702Y277940D01*
X332597Y277904D01*
X332491Y277872D01*
X332384Y277843D01*
X332276Y277818D01*
X332167Y277797D01*
X332058Y277780D01*
X331948Y277766D01*
X331837Y277757D01*
X331727Y277751D01*
X331616Y277749D01*
X328441Y277749D01*
X332251Y277749D02*
X334791Y272669D01*
D12*
X254000Y463550D02*
X254000Y501650D01*
D13*
X253526Y502266D01*
X253037Y502871D01*
X252533Y503463D01*
X252015Y504043D01*
X251483Y504610D01*
X250937Y505164D01*
X250378Y505704D01*
X249805Y506230D01*
X249220Y506743D01*
X248623Y507240D01*
X248014Y507723D01*
X247393Y508191D01*
X246760Y508644D01*
X246117Y509081D01*
X245463Y509502D01*
X244799Y509906D01*
X244126Y510295D01*
X243443Y510667D01*
X242751Y511022D01*
X242051Y511360D01*
X241343Y511681D01*
X240627Y511984D01*
X239903Y512270D01*
X239174Y512538D01*
X238437Y512788D01*
X237695Y513019D01*
X236947Y513233D01*
X236195Y513428D01*
X235437Y513605D01*
X234676Y513763D01*
X233911Y513903D01*
X233143Y514023D01*
X232372Y514125D01*
X231599Y514208D01*
X230824Y514272D01*
X230048Y514317D01*
X229271Y514343D01*
X228493Y514350D01*
X227716Y514338D01*
X226939Y514307D01*
X226163Y514256D01*
X225388Y514187D01*
X224616Y514099D01*
X223846Y513992D01*
X223078Y513866D01*
X222314Y513722D01*
X221554Y513558D01*
X220798Y513376D01*
X220047Y513176D01*
X219300Y512958D01*
X218560Y512721D01*
X217825Y512466D01*
X217097Y512193D01*
X216376Y511902D01*
X215662Y511594D01*
X214956Y511269D01*
X214258Y510926D01*
X213568Y510566D01*
X212888Y510190D01*
X212217Y509797D01*
X211556Y509387D01*
X210905Y508962D01*
X210265Y508521D01*
X209636Y508064D01*
X209018Y507592D01*
X208412Y507105D01*
X207818Y506603D01*
X207236Y506087D01*
X206667Y505557D01*
X206112Y505013D01*
X205569Y504455D01*
X205041Y503885D01*
X204527Y503302D01*
X204027Y502706D01*
X203542Y502098D01*
X203072Y501479D01*
X202618Y500848D01*
X202179Y500206D01*
X201755Y499554D01*
X201348Y498891D01*
X200957Y498219D01*
X200583Y497537D01*
X200226Y496847D01*
X199886Y496148D01*
X199562Y495440D01*
X199257Y494726D01*
X198968Y494003D01*
X198698Y493274D01*
X198446Y492539D01*
X198211Y491797D01*
X197995Y491050D01*
X197797Y490298D01*
X197618Y489542D01*
X197457Y488781D01*
X197315Y488017D01*
X197192Y487249D01*
X197088Y486478D01*
X197002Y485705D01*
X196936Y484931D01*
X196888Y484155D01*
X196860Y483378D01*
X196850Y482600D01*
X196860Y481822D01*
X196888Y481045D01*
X196936Y480269D01*
X197002Y479495D01*
X197088Y478722D01*
X197192Y477951D01*
X197315Y477183D01*
X197457Y476419D01*
X197618Y475658D01*
X197797Y474902D01*
X197995Y474150D01*
X198211Y473403D01*
X198446Y472661D01*
X198698Y471926D01*
X198968Y471197D01*
X199257Y470474D01*
X199562Y469760D01*
X199886Y469052D01*
X200226Y468353D01*
X200583Y467663D01*
X200957Y466981D01*
X201348Y466309D01*
X201755Y465646D01*
X202179Y464994D01*
X202618Y464352D01*
X203072Y463721D01*
X203542Y463102D01*
X204027Y462494D01*
X204527Y461898D01*
X205041Y461315D01*
X205569Y460745D01*
X206112Y460187D01*
X206667Y459643D01*
X207236Y459113D01*
X207818Y458597D01*
X208412Y458095D01*
X209018Y457608D01*
X209636Y457136D01*
X210265Y456679D01*
X210905Y456238D01*
X211556Y455813D01*
X212217Y455403D01*
X212888Y455010D01*
X213568Y454634D01*
X214258Y454274D01*
X214956Y453931D01*
X215662Y453606D01*
X216376Y453298D01*
X217097Y453007D01*
X217825Y452734D01*
X218560Y452479D01*
X219300Y452242D01*
X220047Y452024D01*
X220798Y451824D01*
X221554Y451642D01*
X222314Y451478D01*
X223078Y451334D01*
X223846Y451208D01*
X224616Y451101D01*
X225388Y451013D01*
X226163Y450944D01*
X226939Y450893D01*
X227716Y450862D01*
X228493Y450850D01*
X229271Y450857D01*
X230048Y450883D01*
X230824Y450928D01*
X231599Y450992D01*
X232372Y451075D01*
X233143Y451177D01*
X233911Y451297D01*
X234676Y451437D01*
X235437Y451595D01*
X236195Y451772D01*
X236947Y451967D01*
X237695Y452181D01*
X238437Y452412D01*
X239174Y452662D01*
X239903Y452930D01*
X240627Y453216D01*
X241343Y453519D01*
X242051Y453840D01*
X242751Y454178D01*
X243443Y454533D01*
X244126Y454905D01*
X244799Y455294D01*
X245463Y455698D01*
X246117Y456119D01*
X246760Y456556D01*
X247393Y457009D01*
X248014Y457477D01*
X248623Y457960D01*
X249220Y458457D01*
X249805Y458970D01*
X250378Y459496D01*
X250937Y460036D01*
X251483Y460590D01*
X252015Y461157D01*
X252533Y461737D01*
X253037Y462329D01*
X253526Y462934D01*
X254000Y463550D01*
D10*
X203200Y482600D02*
X203208Y483223D01*
X203231Y483846D01*
X203269Y484469D01*
X203322Y485090D01*
X203391Y485709D01*
X203475Y486327D01*
X203574Y486942D01*
X203688Y487555D01*
X203817Y488165D01*
X203961Y488772D01*
X204120Y489375D01*
X204294Y489973D01*
X204482Y490568D01*
X204685Y491157D01*
X204902Y491741D01*
X205133Y492320D01*
X205379Y492893D01*
X205639Y493460D01*
X205912Y494020D01*
X206199Y494573D01*
X206500Y495120D01*
X206814Y495658D01*
X207141Y496189D01*
X207481Y496711D01*
X207833Y497226D01*
X208199Y497731D01*
X208576Y498227D01*
X208966Y498714D01*
X209367Y499191D01*
X209780Y499658D01*
X210204Y500114D01*
X210639Y500561D01*
X211086Y500996D01*
X211542Y501420D01*
X212009Y501833D01*
X212486Y502234D01*
X212973Y502624D01*
X213469Y503001D01*
X213974Y503367D01*
X214489Y503719D01*
X215011Y504059D01*
X215542Y504386D01*
X216080Y504700D01*
X216627Y505001D01*
X217180Y505288D01*
X217740Y505561D01*
X218307Y505821D01*
X218880Y506067D01*
X219459Y506298D01*
X220043Y506515D01*
X220632Y506718D01*
X221227Y506906D01*
X221825Y507080D01*
X222428Y507239D01*
X223035Y507383D01*
X223645Y507512D01*
X224258Y507626D01*
X224873Y507725D01*
X225491Y507809D01*
X226110Y507878D01*
X226731Y507931D01*
X227354Y507969D01*
X227977Y507992D01*
X228600Y508000D01*
X229223Y507992D01*
X229846Y507969D01*
X230469Y507931D01*
X231090Y507878D01*
X231709Y507809D01*
X232327Y507725D01*
X232942Y507626D01*
X233555Y507512D01*
X234165Y507383D01*
X234772Y507239D01*
X235375Y507080D01*
X235973Y506906D01*
X236568Y506718D01*
X237157Y506515D01*
X237741Y506298D01*
X238320Y506067D01*
X238893Y505821D01*
X239460Y505561D01*
X240020Y505288D01*
X240573Y505001D01*
X241120Y504700D01*
X241658Y504386D01*
X242189Y504059D01*
X242711Y503719D01*
X243226Y503367D01*
X243731Y503001D01*
X244227Y502624D01*
X244714Y502234D01*
X245191Y501833D01*
X245658Y501420D01*
X246114Y500996D01*
X246561Y500561D01*
X246996Y500114D01*
X247420Y499658D01*
X247833Y499191D01*
X248234Y498714D01*
X248624Y498227D01*
X249001Y497731D01*
X249367Y497226D01*
X249719Y496711D01*
X250059Y496189D01*
X250386Y495658D01*
X250700Y495120D01*
X251001Y494573D01*
X251288Y494020D01*
X251561Y493460D01*
X251821Y492893D01*
X252067Y492320D01*
X252298Y491741D01*
X252515Y491157D01*
X252718Y490568D01*
X252906Y489973D01*
X253080Y489375D01*
X253239Y488772D01*
X253383Y488165D01*
X253512Y487555D01*
X253626Y486942D01*
X253725Y486327D01*
X253809Y485709D01*
X253878Y485090D01*
X253931Y484469D01*
X253969Y483846D01*
X253992Y483223D01*
X254000Y482600D01*
X253992Y481977D01*
X253969Y481354D01*
X253931Y480731D01*
X253878Y480110D01*
X253809Y479491D01*
X253725Y478873D01*
X253626Y478258D01*
X253512Y477645D01*
X253383Y477035D01*
X253239Y476428D01*
X253080Y475825D01*
X252906Y475227D01*
X252718Y474632D01*
X252515Y474043D01*
X252298Y473459D01*
X252067Y472880D01*
X251821Y472307D01*
X251561Y471740D01*
X251288Y471180D01*
X251001Y470627D01*
X250700Y470080D01*
X250386Y469542D01*
X250059Y469011D01*
X249719Y468489D01*
X249367Y467974D01*
X249001Y467469D01*
X248624Y466973D01*
X248234Y466486D01*
X247833Y466009D01*
X247420Y465542D01*
X246996Y465086D01*
X246561Y464639D01*
X246114Y464204D01*
X245658Y463780D01*
X245191Y463367D01*
X244714Y462966D01*
X244227Y462576D01*
X243731Y462199D01*
X243226Y461833D01*
X242711Y461481D01*
X242189Y461141D01*
X241658Y460814D01*
X241120Y460500D01*
X240573Y460199D01*
X240020Y459912D01*
X239460Y459639D01*
X238893Y459379D01*
X238320Y459133D01*
X237741Y458902D01*
X237157Y458685D01*
X236568Y458482D01*
X235973Y458294D01*
X235375Y458120D01*
X234772Y457961D01*
X234165Y457817D01*
X233555Y457688D01*
X232942Y457574D01*
X232327Y457475D01*
X231709Y457391D01*
X231090Y457322D01*
X230469Y457269D01*
X229846Y457231D01*
X229223Y457208D01*
X228600Y457200D01*
X227977Y457208D01*
X227354Y457231D01*
X226731Y457269D01*
X226110Y457322D01*
X225491Y457391D01*
X224873Y457475D01*
X224258Y457574D01*
X223645Y457688D01*
X223035Y457817D01*
X222428Y457961D01*
X221825Y458120D01*
X221227Y458294D01*
X220632Y458482D01*
X220043Y458685D01*
X219459Y458902D01*
X218880Y459133D01*
X218307Y459379D01*
X217740Y459639D01*
X217180Y459912D01*
X216627Y460199D01*
X216080Y460500D01*
X215542Y460814D01*
X215011Y461141D01*
X214489Y461481D01*
X213974Y461833D01*
X213469Y462199D01*
X212973Y462576D01*
X212486Y462966D01*
X212009Y463367D01*
X211542Y463780D01*
X211086Y464204D01*
X210639Y464639D01*
X210204Y465086D01*
X209780Y465542D01*
X209367Y466009D01*
X208966Y466486D01*
X208576Y466973D01*
X208199Y467469D01*
X207833Y467974D01*
X207481Y468489D01*
X207141Y469011D01*
X206814Y469542D01*
X206500Y470080D01*
X206199Y470627D01*
X205912Y471180D01*
X205639Y471740D01*
X205379Y472307D01*
X205133Y472880D01*
X204902Y473459D01*
X204685Y474043D01*
X204482Y474632D01*
X204294Y475227D01*
X204120Y475825D01*
X203961Y476428D01*
X203817Y477035D01*
X203688Y477645D01*
X203574Y478258D01*
X203475Y478873D01*
X203391Y479491D01*
X203322Y480110D01*
X203269Y480731D01*
X203231Y481354D01*
X203208Y481977D01*
X203200Y482600D01*
D11*
X263525Y488569D02*
X266065Y488569D01*
X263525Y488569D02*
X263425Y488571D01*
X263326Y488577D01*
X263226Y488587D01*
X263128Y488600D01*
X263029Y488618D01*
X262932Y488639D01*
X262836Y488664D01*
X262740Y488693D01*
X262646Y488726D01*
X262553Y488762D01*
X262462Y488802D01*
X262372Y488846D01*
X262284Y488893D01*
X262198Y488943D01*
X262114Y488997D01*
X262032Y489054D01*
X261953Y489114D01*
X261875Y489178D01*
X261801Y489244D01*
X261729Y489313D01*
X261660Y489385D01*
X261594Y489459D01*
X261530Y489537D01*
X261470Y489616D01*
X261413Y489698D01*
X261359Y489782D01*
X261309Y489868D01*
X261262Y489956D01*
X261218Y490046D01*
X261178Y490137D01*
X261142Y490230D01*
X261109Y490324D01*
X261080Y490420D01*
X261055Y490516D01*
X261034Y490613D01*
X261016Y490712D01*
X261003Y490810D01*
X260993Y490910D01*
X260987Y491009D01*
X260985Y491109D01*
X260985Y497459D01*
X260987Y497559D01*
X260993Y497658D01*
X261003Y497758D01*
X261016Y497856D01*
X261034Y497955D01*
X261055Y498052D01*
X261080Y498148D01*
X261109Y498244D01*
X261142Y498338D01*
X261178Y498431D01*
X261218Y498522D01*
X261262Y498612D01*
X261309Y498700D01*
X261359Y498786D01*
X261413Y498870D01*
X261470Y498952D01*
X261530Y499031D01*
X261594Y499109D01*
X261660Y499183D01*
X261729Y499255D01*
X261801Y499324D01*
X261875Y499390D01*
X261953Y499454D01*
X262032Y499514D01*
X262114Y499571D01*
X262198Y499625D01*
X262284Y499675D01*
X262372Y499722D01*
X262462Y499766D01*
X262553Y499806D01*
X262646Y499842D01*
X262740Y499875D01*
X262836Y499904D01*
X262932Y499929D01*
X263029Y499950D01*
X263128Y499968D01*
X263226Y499981D01*
X263326Y499991D01*
X263425Y499997D01*
X263525Y499999D01*
X266065Y499999D01*
X273087Y493649D02*
X276897Y493649D01*
X273087Y493649D02*
X272987Y493651D01*
X272888Y493657D01*
X272788Y493667D01*
X272690Y493680D01*
X272591Y493698D01*
X272494Y493719D01*
X272398Y493744D01*
X272302Y493773D01*
X272208Y493806D01*
X272115Y493842D01*
X272024Y493882D01*
X271934Y493926D01*
X271846Y493973D01*
X271760Y494023D01*
X271676Y494077D01*
X271594Y494134D01*
X271515Y494194D01*
X271437Y494258D01*
X271363Y494324D01*
X271291Y494393D01*
X271222Y494465D01*
X271156Y494539D01*
X271092Y494617D01*
X271032Y494696D01*
X270975Y494778D01*
X270921Y494862D01*
X270871Y494948D01*
X270824Y495036D01*
X270780Y495126D01*
X270740Y495217D01*
X270704Y495310D01*
X270671Y495404D01*
X270642Y495500D01*
X270617Y495596D01*
X270596Y495693D01*
X270578Y495792D01*
X270565Y495890D01*
X270555Y495990D01*
X270549Y496089D01*
X270547Y496189D01*
X270547Y496824D01*
X270549Y496935D01*
X270555Y497045D01*
X270564Y497156D01*
X270578Y497266D01*
X270595Y497375D01*
X270616Y497484D01*
X270641Y497592D01*
X270670Y497699D01*
X270702Y497805D01*
X270738Y497910D01*
X270778Y498013D01*
X270821Y498115D01*
X270868Y498216D01*
X270919Y498315D01*
X270972Y498412D01*
X271029Y498506D01*
X271090Y498599D01*
X271153Y498690D01*
X271220Y498779D01*
X271290Y498865D01*
X271363Y498948D01*
X271438Y499030D01*
X271516Y499108D01*
X271598Y499183D01*
X271681Y499256D01*
X271767Y499326D01*
X271856Y499393D01*
X271947Y499456D01*
X272040Y499517D01*
X272135Y499574D01*
X272231Y499627D01*
X272330Y499678D01*
X272431Y499725D01*
X272533Y499768D01*
X272636Y499808D01*
X272741Y499844D01*
X272847Y499876D01*
X272954Y499905D01*
X273062Y499930D01*
X273171Y499951D01*
X273280Y499968D01*
X273390Y499982D01*
X273501Y499991D01*
X273611Y499997D01*
X273722Y499999D01*
X273833Y499997D01*
X273943Y499991D01*
X274054Y499982D01*
X274164Y499968D01*
X274273Y499951D01*
X274382Y499930D01*
X274490Y499905D01*
X274597Y499876D01*
X274703Y499844D01*
X274808Y499808D01*
X274911Y499768D01*
X275013Y499725D01*
X275114Y499678D01*
X275213Y499627D01*
X275310Y499574D01*
X275404Y499517D01*
X275497Y499456D01*
X275588Y499393D01*
X275677Y499326D01*
X275763Y499256D01*
X275846Y499183D01*
X275928Y499108D01*
X276006Y499030D01*
X276081Y498948D01*
X276154Y498865D01*
X276224Y498779D01*
X276291Y498690D01*
X276354Y498599D01*
X276415Y498506D01*
X276472Y498412D01*
X276525Y498315D01*
X276576Y498216D01*
X276623Y498115D01*
X276666Y498013D01*
X276706Y497910D01*
X276742Y497805D01*
X276774Y497699D01*
X276803Y497592D01*
X276828Y497484D01*
X276849Y497375D01*
X276866Y497266D01*
X276880Y497156D01*
X276889Y497045D01*
X276895Y496935D01*
X276897Y496824D01*
X276897Y493649D01*
X276895Y493509D01*
X276889Y493369D01*
X276880Y493229D01*
X276866Y493090D01*
X276849Y492951D01*
X276828Y492813D01*
X276803Y492675D01*
X276774Y492538D01*
X276742Y492402D01*
X276705Y492267D01*
X276665Y492133D01*
X276622Y492000D01*
X276574Y491868D01*
X276524Y491737D01*
X276469Y491608D01*
X276411Y491481D01*
X276350Y491355D01*
X276285Y491231D01*
X276216Y491109D01*
X276145Y490989D01*
X276070Y490871D01*
X275992Y490754D01*
X275910Y490640D01*
X275826Y490529D01*
X275738Y490420D01*
X275648Y490313D01*
X275554Y490208D01*
X275458Y490107D01*
X275359Y490008D01*
X275258Y489912D01*
X275153Y489818D01*
X275046Y489728D01*
X274937Y489640D01*
X274826Y489556D01*
X274712Y489474D01*
X274595Y489396D01*
X274477Y489321D01*
X274357Y489250D01*
X274235Y489181D01*
X274111Y489116D01*
X273985Y489055D01*
X273858Y488997D01*
X273729Y488942D01*
X273598Y488892D01*
X273466Y488844D01*
X273333Y488801D01*
X273199Y488761D01*
X273064Y488724D01*
X272928Y488692D01*
X272791Y488663D01*
X272653Y488638D01*
X272515Y488617D01*
X272376Y488600D01*
X272237Y488586D01*
X272097Y488577D01*
X271957Y488571D01*
X271817Y488569D01*
D12*
X457200Y336550D02*
X457200Y298450D01*
D13*
X456726Y297834D01*
X456237Y297229D01*
X455733Y296637D01*
X455215Y296057D01*
X454683Y295490D01*
X454137Y294936D01*
X453578Y294396D01*
X453005Y293870D01*
X452420Y293357D01*
X451823Y292860D01*
X451214Y292377D01*
X450593Y291909D01*
X449960Y291456D01*
X449317Y291019D01*
X448663Y290598D01*
X447999Y290194D01*
X447326Y289805D01*
X446643Y289433D01*
X445951Y289078D01*
X445251Y288740D01*
X444543Y288419D01*
X443827Y288116D01*
X443103Y287830D01*
X442374Y287562D01*
X441637Y287312D01*
X440895Y287081D01*
X440147Y286867D01*
X439395Y286672D01*
X438637Y286495D01*
X437876Y286337D01*
X437111Y286197D01*
X436343Y286077D01*
X435572Y285975D01*
X434799Y285892D01*
X434024Y285828D01*
X433248Y285783D01*
X432471Y285757D01*
X431693Y285750D01*
X430916Y285762D01*
X430139Y285793D01*
X429363Y285844D01*
X428588Y285913D01*
X427816Y286001D01*
X427046Y286108D01*
X426278Y286234D01*
X425514Y286378D01*
X424754Y286542D01*
X423998Y286724D01*
X423247Y286924D01*
X422500Y287142D01*
X421760Y287379D01*
X421025Y287634D01*
X420297Y287907D01*
X419576Y288198D01*
X418862Y288506D01*
X418156Y288831D01*
X417458Y289174D01*
X416768Y289534D01*
X416088Y289910D01*
X415417Y290303D01*
X414756Y290713D01*
X414105Y291138D01*
X413465Y291579D01*
X412836Y292036D01*
X412218Y292508D01*
X411612Y292995D01*
X411018Y293497D01*
X410436Y294013D01*
X409867Y294543D01*
X409312Y295087D01*
X408769Y295645D01*
X408241Y296215D01*
X407727Y296798D01*
X407227Y297394D01*
X406742Y298002D01*
X406272Y298621D01*
X405818Y299252D01*
X405379Y299894D01*
X404955Y300546D01*
X404548Y301209D01*
X404157Y301881D01*
X403783Y302563D01*
X403426Y303253D01*
X403086Y303952D01*
X402762Y304660D01*
X402457Y305374D01*
X402168Y306097D01*
X401898Y306826D01*
X401646Y307561D01*
X401411Y308303D01*
X401195Y309050D01*
X400997Y309802D01*
X400818Y310558D01*
X400657Y311319D01*
X400515Y312083D01*
X400392Y312851D01*
X400288Y313622D01*
X400202Y314395D01*
X400136Y315169D01*
X400088Y315945D01*
X400060Y316722D01*
X400050Y317500D01*
X400060Y318278D01*
X400088Y319055D01*
X400136Y319831D01*
X400202Y320605D01*
X400288Y321378D01*
X400392Y322149D01*
X400515Y322917D01*
X400657Y323681D01*
X400818Y324442D01*
X400997Y325198D01*
X401195Y325950D01*
X401411Y326697D01*
X401646Y327439D01*
X401898Y328174D01*
X402168Y328903D01*
X402457Y329626D01*
X402762Y330340D01*
X403086Y331048D01*
X403426Y331747D01*
X403783Y332437D01*
X404157Y333119D01*
X404548Y333791D01*
X404955Y334454D01*
X405379Y335106D01*
X405818Y335748D01*
X406272Y336379D01*
X406742Y336998D01*
X407227Y337606D01*
X407727Y338202D01*
X408241Y338785D01*
X408769Y339355D01*
X409312Y339913D01*
X409867Y340457D01*
X410436Y340987D01*
X411018Y341503D01*
X411612Y342005D01*
X412218Y342492D01*
X412836Y342964D01*
X413465Y343421D01*
X414105Y343862D01*
X414756Y344287D01*
X415417Y344697D01*
X416088Y345090D01*
X416768Y345466D01*
X417458Y345826D01*
X418156Y346169D01*
X418862Y346494D01*
X419576Y346802D01*
X420297Y347093D01*
X421025Y347366D01*
X421760Y347621D01*
X422500Y347858D01*
X423247Y348076D01*
X423998Y348276D01*
X424754Y348458D01*
X425514Y348622D01*
X426278Y348766D01*
X427046Y348892D01*
X427816Y348999D01*
X428588Y349087D01*
X429363Y349156D01*
X430139Y349207D01*
X430916Y349238D01*
X431693Y349250D01*
X432471Y349243D01*
X433248Y349217D01*
X434024Y349172D01*
X434799Y349108D01*
X435572Y349025D01*
X436343Y348923D01*
X437111Y348803D01*
X437876Y348663D01*
X438637Y348505D01*
X439395Y348328D01*
X440147Y348133D01*
X440895Y347919D01*
X441637Y347688D01*
X442374Y347438D01*
X443103Y347170D01*
X443827Y346884D01*
X444543Y346581D01*
X445251Y346260D01*
X445951Y345922D01*
X446643Y345567D01*
X447326Y345195D01*
X447999Y344806D01*
X448663Y344402D01*
X449317Y343981D01*
X449960Y343544D01*
X450593Y343091D01*
X451214Y342623D01*
X451823Y342140D01*
X452420Y341643D01*
X453005Y341130D01*
X453578Y340604D01*
X454137Y340064D01*
X454683Y339510D01*
X455215Y338943D01*
X455733Y338363D01*
X456237Y337771D01*
X456726Y337166D01*
X457200Y336550D01*
D10*
X406400Y317500D02*
X406408Y318123D01*
X406431Y318746D01*
X406469Y319369D01*
X406522Y319990D01*
X406591Y320609D01*
X406675Y321227D01*
X406774Y321842D01*
X406888Y322455D01*
X407017Y323065D01*
X407161Y323672D01*
X407320Y324275D01*
X407494Y324873D01*
X407682Y325468D01*
X407885Y326057D01*
X408102Y326641D01*
X408333Y327220D01*
X408579Y327793D01*
X408839Y328360D01*
X409112Y328920D01*
X409399Y329473D01*
X409700Y330020D01*
X410014Y330558D01*
X410341Y331089D01*
X410681Y331611D01*
X411033Y332126D01*
X411399Y332631D01*
X411776Y333127D01*
X412166Y333614D01*
X412567Y334091D01*
X412980Y334558D01*
X413404Y335014D01*
X413839Y335461D01*
X414286Y335896D01*
X414742Y336320D01*
X415209Y336733D01*
X415686Y337134D01*
X416173Y337524D01*
X416669Y337901D01*
X417174Y338267D01*
X417689Y338619D01*
X418211Y338959D01*
X418742Y339286D01*
X419280Y339600D01*
X419827Y339901D01*
X420380Y340188D01*
X420940Y340461D01*
X421507Y340721D01*
X422080Y340967D01*
X422659Y341198D01*
X423243Y341415D01*
X423832Y341618D01*
X424427Y341806D01*
X425025Y341980D01*
X425628Y342139D01*
X426235Y342283D01*
X426845Y342412D01*
X427458Y342526D01*
X428073Y342625D01*
X428691Y342709D01*
X429310Y342778D01*
X429931Y342831D01*
X430554Y342869D01*
X431177Y342892D01*
X431800Y342900D01*
X432423Y342892D01*
X433046Y342869D01*
X433669Y342831D01*
X434290Y342778D01*
X434909Y342709D01*
X435527Y342625D01*
X436142Y342526D01*
X436755Y342412D01*
X437365Y342283D01*
X437972Y342139D01*
X438575Y341980D01*
X439173Y341806D01*
X439768Y341618D01*
X440357Y341415D01*
X440941Y341198D01*
X441520Y340967D01*
X442093Y340721D01*
X442660Y340461D01*
X443220Y340188D01*
X443773Y339901D01*
X444320Y339600D01*
X444858Y339286D01*
X445389Y338959D01*
X445911Y338619D01*
X446426Y338267D01*
X446931Y337901D01*
X447427Y337524D01*
X447914Y337134D01*
X448391Y336733D01*
X448858Y336320D01*
X449314Y335896D01*
X449761Y335461D01*
X450196Y335014D01*
X450620Y334558D01*
X451033Y334091D01*
X451434Y333614D01*
X451824Y333127D01*
X452201Y332631D01*
X452567Y332126D01*
X452919Y331611D01*
X453259Y331089D01*
X453586Y330558D01*
X453900Y330020D01*
X454201Y329473D01*
X454488Y328920D01*
X454761Y328360D01*
X455021Y327793D01*
X455267Y327220D01*
X455498Y326641D01*
X455715Y326057D01*
X455918Y325468D01*
X456106Y324873D01*
X456280Y324275D01*
X456439Y323672D01*
X456583Y323065D01*
X456712Y322455D01*
X456826Y321842D01*
X456925Y321227D01*
X457009Y320609D01*
X457078Y319990D01*
X457131Y319369D01*
X457169Y318746D01*
X457192Y318123D01*
X457200Y317500D01*
X457192Y316877D01*
X457169Y316254D01*
X457131Y315631D01*
X457078Y315010D01*
X457009Y314391D01*
X456925Y313773D01*
X456826Y313158D01*
X456712Y312545D01*
X456583Y311935D01*
X456439Y311328D01*
X456280Y310725D01*
X456106Y310127D01*
X455918Y309532D01*
X455715Y308943D01*
X455498Y308359D01*
X455267Y307780D01*
X455021Y307207D01*
X454761Y306640D01*
X454488Y306080D01*
X454201Y305527D01*
X453900Y304980D01*
X453586Y304442D01*
X453259Y303911D01*
X452919Y303389D01*
X452567Y302874D01*
X452201Y302369D01*
X451824Y301873D01*
X451434Y301386D01*
X451033Y300909D01*
X450620Y300442D01*
X450196Y299986D01*
X449761Y299539D01*
X449314Y299104D01*
X448858Y298680D01*
X448391Y298267D01*
X447914Y297866D01*
X447427Y297476D01*
X446931Y297099D01*
X446426Y296733D01*
X445911Y296381D01*
X445389Y296041D01*
X444858Y295714D01*
X444320Y295400D01*
X443773Y295099D01*
X443220Y294812D01*
X442660Y294539D01*
X442093Y294279D01*
X441520Y294033D01*
X440941Y293802D01*
X440357Y293585D01*
X439768Y293382D01*
X439173Y293194D01*
X438575Y293020D01*
X437972Y292861D01*
X437365Y292717D01*
X436755Y292588D01*
X436142Y292474D01*
X435527Y292375D01*
X434909Y292291D01*
X434290Y292222D01*
X433669Y292169D01*
X433046Y292131D01*
X432423Y292108D01*
X431800Y292100D01*
X431177Y292108D01*
X430554Y292131D01*
X429931Y292169D01*
X429310Y292222D01*
X428691Y292291D01*
X428073Y292375D01*
X427458Y292474D01*
X426845Y292588D01*
X426235Y292717D01*
X425628Y292861D01*
X425025Y293020D01*
X424427Y293194D01*
X423832Y293382D01*
X423243Y293585D01*
X422659Y293802D01*
X422080Y294033D01*
X421507Y294279D01*
X420940Y294539D01*
X420380Y294812D01*
X419827Y295099D01*
X419280Y295400D01*
X418742Y295714D01*
X418211Y296041D01*
X417689Y296381D01*
X417174Y296733D01*
X416669Y297099D01*
X416173Y297476D01*
X415686Y297866D01*
X415209Y298267D01*
X414742Y298680D01*
X414286Y299104D01*
X413839Y299539D01*
X413404Y299986D01*
X412980Y300442D01*
X412567Y300909D01*
X412166Y301386D01*
X411776Y301873D01*
X411399Y302369D01*
X411033Y302874D01*
X410681Y303389D01*
X410341Y303911D01*
X410014Y304442D01*
X409700Y304980D01*
X409399Y305527D01*
X409112Y306080D01*
X408839Y306640D01*
X408579Y307207D01*
X408333Y307780D01*
X408102Y308359D01*
X407885Y308943D01*
X407682Y309532D01*
X407494Y310127D01*
X407320Y310725D01*
X407161Y311328D01*
X407017Y311935D01*
X406888Y312545D01*
X406774Y313158D01*
X406675Y313773D01*
X406591Y314391D01*
X406522Y315010D01*
X406469Y315631D01*
X406431Y316254D01*
X406408Y316877D01*
X406400Y317500D01*
D11*
X466725Y323469D02*
X469265Y323469D01*
X466725Y323469D02*
X466625Y323471D01*
X466526Y323477D01*
X466426Y323487D01*
X466328Y323500D01*
X466229Y323518D01*
X466132Y323539D01*
X466036Y323564D01*
X465940Y323593D01*
X465846Y323626D01*
X465753Y323662D01*
X465662Y323702D01*
X465572Y323746D01*
X465484Y323793D01*
X465398Y323843D01*
X465314Y323897D01*
X465232Y323954D01*
X465153Y324014D01*
X465075Y324078D01*
X465001Y324144D01*
X464929Y324213D01*
X464860Y324285D01*
X464794Y324359D01*
X464730Y324437D01*
X464670Y324516D01*
X464613Y324598D01*
X464559Y324682D01*
X464509Y324768D01*
X464462Y324856D01*
X464418Y324946D01*
X464378Y325037D01*
X464342Y325130D01*
X464309Y325224D01*
X464280Y325320D01*
X464255Y325416D01*
X464234Y325513D01*
X464216Y325612D01*
X464203Y325710D01*
X464193Y325810D01*
X464187Y325909D01*
X464185Y326009D01*
X464185Y332359D01*
X464187Y332459D01*
X464193Y332558D01*
X464203Y332658D01*
X464216Y332756D01*
X464234Y332855D01*
X464255Y332952D01*
X464280Y333048D01*
X464309Y333144D01*
X464342Y333238D01*
X464378Y333331D01*
X464418Y333422D01*
X464462Y333512D01*
X464509Y333600D01*
X464559Y333686D01*
X464613Y333770D01*
X464670Y333852D01*
X464730Y333931D01*
X464794Y334009D01*
X464860Y334083D01*
X464929Y334155D01*
X465001Y334224D01*
X465075Y334290D01*
X465153Y334354D01*
X465232Y334414D01*
X465314Y334471D01*
X465398Y334525D01*
X465484Y334575D01*
X465572Y334622D01*
X465662Y334666D01*
X465753Y334706D01*
X465846Y334742D01*
X465940Y334775D01*
X466036Y334804D01*
X466132Y334829D01*
X466229Y334850D01*
X466328Y334868D01*
X466426Y334881D01*
X466526Y334891D01*
X466625Y334897D01*
X466725Y334899D01*
X469265Y334899D01*
X473747Y334899D02*
X473747Y333629D01*
X473747Y334899D02*
X480097Y334899D01*
X476922Y323469D01*
D12*
X501650Y444500D02*
X539750Y444500D01*
D13*
X540366Y444026D01*
X540971Y443537D01*
X541563Y443033D01*
X542143Y442515D01*
X542710Y441983D01*
X543264Y441437D01*
X543804Y440878D01*
X544330Y440305D01*
X544843Y439720D01*
X545340Y439123D01*
X545823Y438514D01*
X546291Y437893D01*
X546744Y437260D01*
X547181Y436617D01*
X547602Y435963D01*
X548006Y435299D01*
X548395Y434626D01*
X548767Y433943D01*
X549122Y433251D01*
X549460Y432551D01*
X549781Y431843D01*
X550084Y431127D01*
X550370Y430403D01*
X550638Y429674D01*
X550888Y428937D01*
X551119Y428195D01*
X551333Y427447D01*
X551528Y426695D01*
X551705Y425937D01*
X551863Y425176D01*
X552003Y424411D01*
X552123Y423643D01*
X552225Y422872D01*
X552308Y422099D01*
X552372Y421324D01*
X552417Y420548D01*
X552443Y419771D01*
X552450Y418993D01*
X552438Y418216D01*
X552407Y417439D01*
X552356Y416663D01*
X552287Y415888D01*
X552199Y415116D01*
X552092Y414346D01*
X551966Y413578D01*
X551822Y412814D01*
X551658Y412054D01*
X551476Y411298D01*
X551276Y410547D01*
X551058Y409800D01*
X550821Y409060D01*
X550566Y408325D01*
X550293Y407597D01*
X550002Y406876D01*
X549694Y406162D01*
X549369Y405456D01*
X549026Y404758D01*
X548666Y404068D01*
X548290Y403388D01*
X547897Y402717D01*
X547487Y402056D01*
X547062Y401405D01*
X546621Y400765D01*
X546164Y400136D01*
X545692Y399518D01*
X545205Y398912D01*
X544703Y398318D01*
X544187Y397736D01*
X543657Y397167D01*
X543113Y396612D01*
X542555Y396069D01*
X541985Y395541D01*
X541402Y395027D01*
X540806Y394527D01*
X540198Y394042D01*
X539579Y393572D01*
X538948Y393118D01*
X538306Y392679D01*
X537654Y392255D01*
X536991Y391848D01*
X536319Y391457D01*
X535637Y391083D01*
X534947Y390726D01*
X534248Y390386D01*
X533540Y390062D01*
X532826Y389757D01*
X532103Y389468D01*
X531374Y389198D01*
X530639Y388946D01*
X529897Y388711D01*
X529150Y388495D01*
X528398Y388297D01*
X527642Y388118D01*
X526881Y387957D01*
X526117Y387815D01*
X525349Y387692D01*
X524578Y387588D01*
X523805Y387502D01*
X523031Y387436D01*
X522255Y387388D01*
X521478Y387360D01*
X520700Y387350D01*
X519922Y387360D01*
X519145Y387388D01*
X518369Y387436D01*
X517595Y387502D01*
X516822Y387588D01*
X516051Y387692D01*
X515283Y387815D01*
X514519Y387957D01*
X513758Y388118D01*
X513002Y388297D01*
X512250Y388495D01*
X511503Y388711D01*
X510761Y388946D01*
X510026Y389198D01*
X509297Y389468D01*
X508574Y389757D01*
X507860Y390062D01*
X507152Y390386D01*
X506453Y390726D01*
X505763Y391083D01*
X505081Y391457D01*
X504409Y391848D01*
X503746Y392255D01*
X503094Y392679D01*
X502452Y393118D01*
X501821Y393572D01*
X501202Y394042D01*
X500594Y394527D01*
X499998Y395027D01*
X499415Y395541D01*
X498845Y396069D01*
X498287Y396612D01*
X497743Y397167D01*
X497213Y397736D01*
X496697Y398318D01*
X496195Y398912D01*
X495708Y399518D01*
X495236Y400136D01*
X494779Y400765D01*
X494338Y401405D01*
X493913Y402056D01*
X493503Y402717D01*
X493110Y403388D01*
X492734Y404068D01*
X492374Y404758D01*
X492031Y405456D01*
X491706Y406162D01*
X491398Y406876D01*
X491107Y407597D01*
X490834Y408325D01*
X490579Y409060D01*
X490342Y409800D01*
X490124Y410547D01*
X489924Y411298D01*
X489742Y412054D01*
X489578Y412814D01*
X489434Y413578D01*
X489308Y414346D01*
X489201Y415116D01*
X489113Y415888D01*
X489044Y416663D01*
X488993Y417439D01*
X488962Y418216D01*
X488950Y418993D01*
X488957Y419771D01*
X488983Y420548D01*
X489028Y421324D01*
X489092Y422099D01*
X489175Y422872D01*
X489277Y423643D01*
X489397Y424411D01*
X489537Y425176D01*
X489695Y425937D01*
X489872Y426695D01*
X490067Y427447D01*
X490281Y428195D01*
X490512Y428937D01*
X490762Y429674D01*
X491030Y430403D01*
X491316Y431127D01*
X491619Y431843D01*
X491940Y432551D01*
X492278Y433251D01*
X492633Y433943D01*
X493005Y434626D01*
X493394Y435299D01*
X493798Y435963D01*
X494219Y436617D01*
X494656Y437260D01*
X495109Y437893D01*
X495577Y438514D01*
X496060Y439123D01*
X496557Y439720D01*
X497070Y440305D01*
X497596Y440878D01*
X498136Y441437D01*
X498690Y441983D01*
X499257Y442515D01*
X499837Y443033D01*
X500429Y443537D01*
X501034Y444026D01*
X501650Y444500D01*
D10*
X495300Y419100D02*
X495308Y419723D01*
X495331Y420346D01*
X495369Y420969D01*
X495422Y421590D01*
X495491Y422209D01*
X495575Y422827D01*
X495674Y423442D01*
X495788Y424055D01*
X495917Y424665D01*
X496061Y425272D01*
X496220Y425875D01*
X496394Y426473D01*
X496582Y427068D01*
X496785Y427657D01*
X497002Y428241D01*
X497233Y428820D01*
X497479Y429393D01*
X497739Y429960D01*
X498012Y430520D01*
X498299Y431073D01*
X498600Y431620D01*
X498914Y432158D01*
X499241Y432689D01*
X499581Y433211D01*
X499933Y433726D01*
X500299Y434231D01*
X500676Y434727D01*
X501066Y435214D01*
X501467Y435691D01*
X501880Y436158D01*
X502304Y436614D01*
X502739Y437061D01*
X503186Y437496D01*
X503642Y437920D01*
X504109Y438333D01*
X504586Y438734D01*
X505073Y439124D01*
X505569Y439501D01*
X506074Y439867D01*
X506589Y440219D01*
X507111Y440559D01*
X507642Y440886D01*
X508180Y441200D01*
X508727Y441501D01*
X509280Y441788D01*
X509840Y442061D01*
X510407Y442321D01*
X510980Y442567D01*
X511559Y442798D01*
X512143Y443015D01*
X512732Y443218D01*
X513327Y443406D01*
X513925Y443580D01*
X514528Y443739D01*
X515135Y443883D01*
X515745Y444012D01*
X516358Y444126D01*
X516973Y444225D01*
X517591Y444309D01*
X518210Y444378D01*
X518831Y444431D01*
X519454Y444469D01*
X520077Y444492D01*
X520700Y444500D01*
X521323Y444492D01*
X521946Y444469D01*
X522569Y444431D01*
X523190Y444378D01*
X523809Y444309D01*
X524427Y444225D01*
X525042Y444126D01*
X525655Y444012D01*
X526265Y443883D01*
X526872Y443739D01*
X527475Y443580D01*
X528073Y443406D01*
X528668Y443218D01*
X529257Y443015D01*
X529841Y442798D01*
X530420Y442567D01*
X530993Y442321D01*
X531560Y442061D01*
X532120Y441788D01*
X532673Y441501D01*
X533220Y441200D01*
X533758Y440886D01*
X534289Y440559D01*
X534811Y440219D01*
X535326Y439867D01*
X535831Y439501D01*
X536327Y439124D01*
X536814Y438734D01*
X537291Y438333D01*
X537758Y437920D01*
X538214Y437496D01*
X538661Y437061D01*
X539096Y436614D01*
X539520Y436158D01*
X539933Y435691D01*
X540334Y435214D01*
X540724Y434727D01*
X541101Y434231D01*
X541467Y433726D01*
X541819Y433211D01*
X542159Y432689D01*
X542486Y432158D01*
X542800Y431620D01*
X543101Y431073D01*
X543388Y430520D01*
X543661Y429960D01*
X543921Y429393D01*
X544167Y428820D01*
X544398Y428241D01*
X544615Y427657D01*
X544818Y427068D01*
X545006Y426473D01*
X545180Y425875D01*
X545339Y425272D01*
X545483Y424665D01*
X545612Y424055D01*
X545726Y423442D01*
X545825Y422827D01*
X545909Y422209D01*
X545978Y421590D01*
X546031Y420969D01*
X546069Y420346D01*
X546092Y419723D01*
X546100Y419100D01*
X546092Y418477D01*
X546069Y417854D01*
X546031Y417231D01*
X545978Y416610D01*
X545909Y415991D01*
X545825Y415373D01*
X545726Y414758D01*
X545612Y414145D01*
X545483Y413535D01*
X545339Y412928D01*
X545180Y412325D01*
X545006Y411727D01*
X544818Y411132D01*
X544615Y410543D01*
X544398Y409959D01*
X544167Y409380D01*
X543921Y408807D01*
X543661Y408240D01*
X543388Y407680D01*
X543101Y407127D01*
X542800Y406580D01*
X542486Y406042D01*
X542159Y405511D01*
X541819Y404989D01*
X541467Y404474D01*
X541101Y403969D01*
X540724Y403473D01*
X540334Y402986D01*
X539933Y402509D01*
X539520Y402042D01*
X539096Y401586D01*
X538661Y401139D01*
X538214Y400704D01*
X537758Y400280D01*
X537291Y399867D01*
X536814Y399466D01*
X536327Y399076D01*
X535831Y398699D01*
X535326Y398333D01*
X534811Y397981D01*
X534289Y397641D01*
X533758Y397314D01*
X533220Y397000D01*
X532673Y396699D01*
X532120Y396412D01*
X531560Y396139D01*
X530993Y395879D01*
X530420Y395633D01*
X529841Y395402D01*
X529257Y395185D01*
X528668Y394982D01*
X528073Y394794D01*
X527475Y394620D01*
X526872Y394461D01*
X526265Y394317D01*
X525655Y394188D01*
X525042Y394074D01*
X524427Y393975D01*
X523809Y393891D01*
X523190Y393822D01*
X522569Y393769D01*
X521946Y393731D01*
X521323Y393708D01*
X520700Y393700D01*
X520077Y393708D01*
X519454Y393731D01*
X518831Y393769D01*
X518210Y393822D01*
X517591Y393891D01*
X516973Y393975D01*
X516358Y394074D01*
X515745Y394188D01*
X515135Y394317D01*
X514528Y394461D01*
X513925Y394620D01*
X513327Y394794D01*
X512732Y394982D01*
X512143Y395185D01*
X511559Y395402D01*
X510980Y395633D01*
X510407Y395879D01*
X509840Y396139D01*
X509280Y396412D01*
X508727Y396699D01*
X508180Y397000D01*
X507642Y397314D01*
X507111Y397641D01*
X506589Y397981D01*
X506074Y398333D01*
X505569Y398699D01*
X505073Y399076D01*
X504586Y399466D01*
X504109Y399867D01*
X503642Y400280D01*
X503186Y400704D01*
X502739Y401139D01*
X502304Y401586D01*
X501880Y402042D01*
X501467Y402509D01*
X501066Y402986D01*
X500676Y403473D01*
X500299Y403969D01*
X499933Y404474D01*
X499581Y404989D01*
X499241Y405511D01*
X498914Y406042D01*
X498600Y406580D01*
X498299Y407127D01*
X498012Y407680D01*
X497739Y408240D01*
X497479Y408807D01*
X497233Y409380D01*
X497002Y409959D01*
X496785Y410543D01*
X496582Y411132D01*
X496394Y411727D01*
X496220Y412325D01*
X496061Y412928D01*
X495917Y413535D01*
X495788Y414145D01*
X495674Y414758D01*
X495575Y415373D01*
X495491Y415991D01*
X495422Y416610D01*
X495369Y417231D01*
X495331Y417854D01*
X495308Y418477D01*
X495300Y419100D01*
D11*
X514731Y454025D02*
X514731Y456565D01*
X514731Y454025D02*
X514729Y453925D01*
X514723Y453826D01*
X514713Y453726D01*
X514700Y453628D01*
X514682Y453529D01*
X514661Y453432D01*
X514636Y453336D01*
X514607Y453240D01*
X514574Y453146D01*
X514538Y453053D01*
X514498Y452962D01*
X514454Y452872D01*
X514407Y452784D01*
X514357Y452698D01*
X514303Y452614D01*
X514246Y452532D01*
X514186Y452453D01*
X514122Y452375D01*
X514056Y452301D01*
X513987Y452229D01*
X513915Y452160D01*
X513841Y452094D01*
X513763Y452030D01*
X513684Y451970D01*
X513602Y451913D01*
X513518Y451859D01*
X513432Y451809D01*
X513344Y451762D01*
X513254Y451718D01*
X513163Y451678D01*
X513070Y451642D01*
X512976Y451609D01*
X512880Y451580D01*
X512784Y451555D01*
X512687Y451534D01*
X512588Y451516D01*
X512490Y451503D01*
X512390Y451493D01*
X512291Y451487D01*
X512191Y451485D01*
X505841Y451485D01*
X505741Y451487D01*
X505642Y451493D01*
X505542Y451503D01*
X505444Y451516D01*
X505345Y451534D01*
X505248Y451555D01*
X505152Y451580D01*
X505056Y451609D01*
X504962Y451642D01*
X504869Y451678D01*
X504778Y451718D01*
X504688Y451762D01*
X504600Y451809D01*
X504514Y451859D01*
X504430Y451913D01*
X504348Y451970D01*
X504269Y452030D01*
X504191Y452094D01*
X504117Y452160D01*
X504045Y452229D01*
X503976Y452301D01*
X503910Y452375D01*
X503846Y452453D01*
X503786Y452532D01*
X503729Y452614D01*
X503675Y452698D01*
X503625Y452784D01*
X503578Y452872D01*
X503534Y452962D01*
X503494Y453053D01*
X503458Y453146D01*
X503425Y453240D01*
X503396Y453336D01*
X503371Y453432D01*
X503350Y453529D01*
X503332Y453628D01*
X503319Y453726D01*
X503309Y453826D01*
X503303Y453925D01*
X503301Y454025D01*
X503301Y456565D01*
X508381Y461047D02*
X508381Y464857D01*
X508383Y464957D01*
X508389Y465056D01*
X508399Y465156D01*
X508412Y465254D01*
X508430Y465353D01*
X508451Y465450D01*
X508476Y465546D01*
X508505Y465642D01*
X508538Y465736D01*
X508574Y465829D01*
X508614Y465920D01*
X508658Y466010D01*
X508705Y466098D01*
X508755Y466184D01*
X508809Y466268D01*
X508866Y466350D01*
X508926Y466429D01*
X508990Y466507D01*
X509056Y466581D01*
X509125Y466653D01*
X509197Y466722D01*
X509271Y466788D01*
X509349Y466852D01*
X509428Y466912D01*
X509510Y466969D01*
X509594Y467023D01*
X509680Y467073D01*
X509768Y467120D01*
X509858Y467164D01*
X509949Y467204D01*
X510042Y467240D01*
X510136Y467273D01*
X510232Y467302D01*
X510328Y467327D01*
X510425Y467348D01*
X510524Y467366D01*
X510622Y467379D01*
X510722Y467389D01*
X510821Y467395D01*
X510921Y467397D01*
X511556Y467397D01*
X511667Y467395D01*
X511777Y467389D01*
X511888Y467380D01*
X511998Y467366D01*
X512107Y467349D01*
X512216Y467328D01*
X512324Y467303D01*
X512431Y467274D01*
X512537Y467242D01*
X512642Y467206D01*
X512745Y467166D01*
X512847Y467123D01*
X512948Y467076D01*
X513047Y467025D01*
X513144Y466972D01*
X513238Y466915D01*
X513331Y466854D01*
X513422Y466791D01*
X513511Y466724D01*
X513597Y466654D01*
X513680Y466581D01*
X513762Y466506D01*
X513840Y466428D01*
X513915Y466346D01*
X513988Y466263D01*
X514058Y466177D01*
X514125Y466088D01*
X514188Y465997D01*
X514249Y465904D01*
X514306Y465809D01*
X514359Y465713D01*
X514410Y465614D01*
X514457Y465513D01*
X514500Y465411D01*
X514540Y465308D01*
X514576Y465203D01*
X514608Y465097D01*
X514637Y464990D01*
X514662Y464882D01*
X514683Y464773D01*
X514700Y464664D01*
X514714Y464554D01*
X514723Y464443D01*
X514729Y464333D01*
X514731Y464222D01*
X514729Y464111D01*
X514723Y464001D01*
X514714Y463890D01*
X514700Y463780D01*
X514683Y463671D01*
X514662Y463562D01*
X514637Y463454D01*
X514608Y463347D01*
X514576Y463241D01*
X514540Y463136D01*
X514500Y463033D01*
X514457Y462931D01*
X514410Y462830D01*
X514359Y462731D01*
X514306Y462634D01*
X514249Y462540D01*
X514188Y462447D01*
X514125Y462356D01*
X514058Y462267D01*
X513988Y462181D01*
X513915Y462098D01*
X513840Y462016D01*
X513762Y461938D01*
X513680Y461863D01*
X513597Y461790D01*
X513511Y461720D01*
X513422Y461653D01*
X513331Y461590D01*
X513238Y461529D01*
X513144Y461472D01*
X513047Y461419D01*
X512948Y461368D01*
X512847Y461321D01*
X512745Y461278D01*
X512642Y461238D01*
X512537Y461202D01*
X512431Y461170D01*
X512324Y461141D01*
X512216Y461116D01*
X512107Y461095D01*
X511998Y461078D01*
X511888Y461064D01*
X511777Y461055D01*
X511667Y461049D01*
X511556Y461047D01*
X508381Y461047D01*
X508241Y461049D01*
X508101Y461055D01*
X507961Y461064D01*
X507822Y461078D01*
X507683Y461095D01*
X507545Y461116D01*
X507407Y461141D01*
X507270Y461170D01*
X507134Y461202D01*
X506999Y461239D01*
X506865Y461279D01*
X506732Y461322D01*
X506600Y461370D01*
X506469Y461420D01*
X506340Y461475D01*
X506213Y461533D01*
X506087Y461594D01*
X505963Y461659D01*
X505841Y461728D01*
X505721Y461799D01*
X505603Y461874D01*
X505486Y461952D01*
X505372Y462034D01*
X505261Y462118D01*
X505152Y462206D01*
X505045Y462296D01*
X504940Y462390D01*
X504839Y462486D01*
X504740Y462585D01*
X504644Y462686D01*
X504550Y462791D01*
X504460Y462898D01*
X504372Y463007D01*
X504288Y463118D01*
X504206Y463232D01*
X504128Y463349D01*
X504053Y463467D01*
X503982Y463587D01*
X503913Y463709D01*
X503848Y463833D01*
X503787Y463959D01*
X503729Y464086D01*
X503674Y464215D01*
X503624Y464346D01*
X503576Y464478D01*
X503533Y464611D01*
X503493Y464745D01*
X503456Y464880D01*
X503424Y465016D01*
X503395Y465153D01*
X503370Y465291D01*
X503349Y465429D01*
X503332Y465568D01*
X503318Y465707D01*
X503309Y465847D01*
X503303Y465987D01*
X503301Y466127D01*
D12*
X349250Y444500D02*
X311150Y444500D01*
D13*
X310534Y444026D01*
X309929Y443537D01*
X309337Y443033D01*
X308757Y442515D01*
X308190Y441983D01*
X307636Y441437D01*
X307096Y440878D01*
X306570Y440305D01*
X306057Y439720D01*
X305560Y439123D01*
X305077Y438514D01*
X304609Y437893D01*
X304156Y437260D01*
X303719Y436617D01*
X303298Y435963D01*
X302894Y435299D01*
X302505Y434626D01*
X302133Y433943D01*
X301778Y433251D01*
X301440Y432551D01*
X301119Y431843D01*
X300816Y431127D01*
X300530Y430403D01*
X300262Y429674D01*
X300012Y428937D01*
X299781Y428195D01*
X299567Y427447D01*
X299372Y426695D01*
X299195Y425937D01*
X299037Y425176D01*
X298897Y424411D01*
X298777Y423643D01*
X298675Y422872D01*
X298592Y422099D01*
X298528Y421324D01*
X298483Y420548D01*
X298457Y419771D01*
X298450Y418993D01*
X298462Y418216D01*
X298493Y417439D01*
X298544Y416663D01*
X298613Y415888D01*
X298701Y415116D01*
X298808Y414346D01*
X298934Y413578D01*
X299078Y412814D01*
X299242Y412054D01*
X299424Y411298D01*
X299624Y410547D01*
X299842Y409800D01*
X300079Y409060D01*
X300334Y408325D01*
X300607Y407597D01*
X300898Y406876D01*
X301206Y406162D01*
X301531Y405456D01*
X301874Y404758D01*
X302234Y404068D01*
X302610Y403388D01*
X303003Y402717D01*
X303413Y402056D01*
X303838Y401405D01*
X304279Y400765D01*
X304736Y400136D01*
X305208Y399518D01*
X305695Y398912D01*
X306197Y398318D01*
X306713Y397736D01*
X307243Y397167D01*
X307787Y396612D01*
X308345Y396069D01*
X308915Y395541D01*
X309498Y395027D01*
X310094Y394527D01*
X310702Y394042D01*
X311321Y393572D01*
X311952Y393118D01*
X312594Y392679D01*
X313246Y392255D01*
X313909Y391848D01*
X314581Y391457D01*
X315263Y391083D01*
X315953Y390726D01*
X316652Y390386D01*
X317360Y390062D01*
X318074Y389757D01*
X318797Y389468D01*
X319526Y389198D01*
X320261Y388946D01*
X321003Y388711D01*
X321750Y388495D01*
X322502Y388297D01*
X323258Y388118D01*
X324019Y387957D01*
X324783Y387815D01*
X325551Y387692D01*
X326322Y387588D01*
X327095Y387502D01*
X327869Y387436D01*
X328645Y387388D01*
X329422Y387360D01*
X330200Y387350D01*
X330978Y387360D01*
X331755Y387388D01*
X332531Y387436D01*
X333305Y387502D01*
X334078Y387588D01*
X334849Y387692D01*
X335617Y387815D01*
X336381Y387957D01*
X337142Y388118D01*
X337898Y388297D01*
X338650Y388495D01*
X339397Y388711D01*
X340139Y388946D01*
X340874Y389198D01*
X341603Y389468D01*
X342326Y389757D01*
X343040Y390062D01*
X343748Y390386D01*
X344447Y390726D01*
X345137Y391083D01*
X345819Y391457D01*
X346491Y391848D01*
X347154Y392255D01*
X347806Y392679D01*
X348448Y393118D01*
X349079Y393572D01*
X349698Y394042D01*
X350306Y394527D01*
X350902Y395027D01*
X351485Y395541D01*
X352055Y396069D01*
X352613Y396612D01*
X353157Y397167D01*
X353687Y397736D01*
X354203Y398318D01*
X354705Y398912D01*
X355192Y399518D01*
X355664Y400136D01*
X356121Y400765D01*
X356562Y401405D01*
X356987Y402056D01*
X357397Y402717D01*
X357790Y403388D01*
X358166Y404068D01*
X358526Y404758D01*
X358869Y405456D01*
X359194Y406162D01*
X359502Y406876D01*
X359793Y407597D01*
X360066Y408325D01*
X360321Y409060D01*
X360558Y409800D01*
X360776Y410547D01*
X360976Y411298D01*
X361158Y412054D01*
X361322Y412814D01*
X361466Y413578D01*
X361592Y414346D01*
X361699Y415116D01*
X361787Y415888D01*
X361856Y416663D01*
X361907Y417439D01*
X361938Y418216D01*
X361950Y418993D01*
X361943Y419771D01*
X361917Y420548D01*
X361872Y421324D01*
X361808Y422099D01*
X361725Y422872D01*
X361623Y423643D01*
X361503Y424411D01*
X361363Y425176D01*
X361205Y425937D01*
X361028Y426695D01*
X360833Y427447D01*
X360619Y428195D01*
X360388Y428937D01*
X360138Y429674D01*
X359870Y430403D01*
X359584Y431127D01*
X359281Y431843D01*
X358960Y432551D01*
X358622Y433251D01*
X358267Y433943D01*
X357895Y434626D01*
X357506Y435299D01*
X357102Y435963D01*
X356681Y436617D01*
X356244Y437260D01*
X355791Y437893D01*
X355323Y438514D01*
X354840Y439123D01*
X354343Y439720D01*
X353830Y440305D01*
X353304Y440878D01*
X352764Y441437D01*
X352210Y441983D01*
X351643Y442515D01*
X351063Y443033D01*
X350471Y443537D01*
X349866Y444026D01*
X349250Y444500D01*
D10*
X304800Y419100D02*
X304808Y419723D01*
X304831Y420346D01*
X304869Y420969D01*
X304922Y421590D01*
X304991Y422209D01*
X305075Y422827D01*
X305174Y423442D01*
X305288Y424055D01*
X305417Y424665D01*
X305561Y425272D01*
X305720Y425875D01*
X305894Y426473D01*
X306082Y427068D01*
X306285Y427657D01*
X306502Y428241D01*
X306733Y428820D01*
X306979Y429393D01*
X307239Y429960D01*
X307512Y430520D01*
X307799Y431073D01*
X308100Y431620D01*
X308414Y432158D01*
X308741Y432689D01*
X309081Y433211D01*
X309433Y433726D01*
X309799Y434231D01*
X310176Y434727D01*
X310566Y435214D01*
X310967Y435691D01*
X311380Y436158D01*
X311804Y436614D01*
X312239Y437061D01*
X312686Y437496D01*
X313142Y437920D01*
X313609Y438333D01*
X314086Y438734D01*
X314573Y439124D01*
X315069Y439501D01*
X315574Y439867D01*
X316089Y440219D01*
X316611Y440559D01*
X317142Y440886D01*
X317680Y441200D01*
X318227Y441501D01*
X318780Y441788D01*
X319340Y442061D01*
X319907Y442321D01*
X320480Y442567D01*
X321059Y442798D01*
X321643Y443015D01*
X322232Y443218D01*
X322827Y443406D01*
X323425Y443580D01*
X324028Y443739D01*
X324635Y443883D01*
X325245Y444012D01*
X325858Y444126D01*
X326473Y444225D01*
X327091Y444309D01*
X327710Y444378D01*
X328331Y444431D01*
X328954Y444469D01*
X329577Y444492D01*
X330200Y444500D01*
X330823Y444492D01*
X331446Y444469D01*
X332069Y444431D01*
X332690Y444378D01*
X333309Y444309D01*
X333927Y444225D01*
X334542Y444126D01*
X335155Y444012D01*
X335765Y443883D01*
X336372Y443739D01*
X336975Y443580D01*
X337573Y443406D01*
X338168Y443218D01*
X338757Y443015D01*
X339341Y442798D01*
X339920Y442567D01*
X340493Y442321D01*
X341060Y442061D01*
X341620Y441788D01*
X342173Y441501D01*
X342720Y441200D01*
X343258Y440886D01*
X343789Y440559D01*
X344311Y440219D01*
X344826Y439867D01*
X345331Y439501D01*
X345827Y439124D01*
X346314Y438734D01*
X346791Y438333D01*
X347258Y437920D01*
X347714Y437496D01*
X348161Y437061D01*
X348596Y436614D01*
X349020Y436158D01*
X349433Y435691D01*
X349834Y435214D01*
X350224Y434727D01*
X350601Y434231D01*
X350967Y433726D01*
X351319Y433211D01*
X351659Y432689D01*
X351986Y432158D01*
X352300Y431620D01*
X352601Y431073D01*
X352888Y430520D01*
X353161Y429960D01*
X353421Y429393D01*
X353667Y428820D01*
X353898Y428241D01*
X354115Y427657D01*
X354318Y427068D01*
X354506Y426473D01*
X354680Y425875D01*
X354839Y425272D01*
X354983Y424665D01*
X355112Y424055D01*
X355226Y423442D01*
X355325Y422827D01*
X355409Y422209D01*
X355478Y421590D01*
X355531Y420969D01*
X355569Y420346D01*
X355592Y419723D01*
X355600Y419100D01*
X355592Y418477D01*
X355569Y417854D01*
X355531Y417231D01*
X355478Y416610D01*
X355409Y415991D01*
X355325Y415373D01*
X355226Y414758D01*
X355112Y414145D01*
X354983Y413535D01*
X354839Y412928D01*
X354680Y412325D01*
X354506Y411727D01*
X354318Y411132D01*
X354115Y410543D01*
X353898Y409959D01*
X353667Y409380D01*
X353421Y408807D01*
X353161Y408240D01*
X352888Y407680D01*
X352601Y407127D01*
X352300Y406580D01*
X351986Y406042D01*
X351659Y405511D01*
X351319Y404989D01*
X350967Y404474D01*
X350601Y403969D01*
X350224Y403473D01*
X349834Y402986D01*
X349433Y402509D01*
X349020Y402042D01*
X348596Y401586D01*
X348161Y401139D01*
X347714Y400704D01*
X347258Y400280D01*
X346791Y399867D01*
X346314Y399466D01*
X345827Y399076D01*
X345331Y398699D01*
X344826Y398333D01*
X344311Y397981D01*
X343789Y397641D01*
X343258Y397314D01*
X342720Y397000D01*
X342173Y396699D01*
X341620Y396412D01*
X341060Y396139D01*
X340493Y395879D01*
X339920Y395633D01*
X339341Y395402D01*
X338757Y395185D01*
X338168Y394982D01*
X337573Y394794D01*
X336975Y394620D01*
X336372Y394461D01*
X335765Y394317D01*
X335155Y394188D01*
X334542Y394074D01*
X333927Y393975D01*
X333309Y393891D01*
X332690Y393822D01*
X332069Y393769D01*
X331446Y393731D01*
X330823Y393708D01*
X330200Y393700D01*
X329577Y393708D01*
X328954Y393731D01*
X328331Y393769D01*
X327710Y393822D01*
X327091Y393891D01*
X326473Y393975D01*
X325858Y394074D01*
X325245Y394188D01*
X324635Y394317D01*
X324028Y394461D01*
X323425Y394620D01*
X322827Y394794D01*
X322232Y394982D01*
X321643Y395185D01*
X321059Y395402D01*
X320480Y395633D01*
X319907Y395879D01*
X319340Y396139D01*
X318780Y396412D01*
X318227Y396699D01*
X317680Y397000D01*
X317142Y397314D01*
X316611Y397641D01*
X316089Y397981D01*
X315574Y398333D01*
X315069Y398699D01*
X314573Y399076D01*
X314086Y399466D01*
X313609Y399867D01*
X313142Y400280D01*
X312686Y400704D01*
X312239Y401139D01*
X311804Y401586D01*
X311380Y402042D01*
X310967Y402509D01*
X310566Y402986D01*
X310176Y403473D01*
X309799Y403969D01*
X309433Y404474D01*
X309081Y404989D01*
X308741Y405511D01*
X308414Y406042D01*
X308100Y406580D01*
X307799Y407127D01*
X307512Y407680D01*
X307239Y408240D01*
X306979Y408807D01*
X306733Y409380D01*
X306502Y409959D01*
X306285Y410543D01*
X306082Y411132D01*
X305894Y411727D01*
X305720Y412325D01*
X305561Y412928D01*
X305417Y413535D01*
X305288Y414145D01*
X305174Y414758D01*
X305075Y415373D01*
X304991Y415991D01*
X304922Y416610D01*
X304869Y417231D01*
X304831Y417854D01*
X304808Y418477D01*
X304800Y419100D01*
D11*
X312801Y451485D02*
X324231Y451485D01*
X312801Y451485D02*
X312801Y454660D01*
X312803Y454771D01*
X312809Y454881D01*
X312818Y454992D01*
X312832Y455102D01*
X312849Y455211D01*
X312870Y455320D01*
X312895Y455428D01*
X312924Y455535D01*
X312956Y455641D01*
X312992Y455746D01*
X313032Y455849D01*
X313075Y455951D01*
X313122Y456052D01*
X313173Y456151D01*
X313226Y456248D01*
X313283Y456342D01*
X313344Y456435D01*
X313407Y456526D01*
X313474Y456615D01*
X313544Y456701D01*
X313617Y456784D01*
X313692Y456866D01*
X313770Y456944D01*
X313852Y457019D01*
X313935Y457092D01*
X314021Y457162D01*
X314110Y457229D01*
X314201Y457292D01*
X314294Y457353D01*
X314389Y457410D01*
X314485Y457463D01*
X314584Y457514D01*
X314685Y457561D01*
X314787Y457604D01*
X314890Y457644D01*
X314995Y457680D01*
X315101Y457712D01*
X315208Y457741D01*
X315316Y457766D01*
X315425Y457787D01*
X315534Y457804D01*
X315644Y457818D01*
X315755Y457827D01*
X315865Y457833D01*
X315976Y457835D01*
X316087Y457833D01*
X316197Y457827D01*
X316308Y457818D01*
X316418Y457804D01*
X316527Y457787D01*
X316636Y457766D01*
X316744Y457741D01*
X316851Y457712D01*
X316957Y457680D01*
X317062Y457644D01*
X317165Y457604D01*
X317267Y457561D01*
X317368Y457514D01*
X317467Y457463D01*
X317564Y457410D01*
X317658Y457353D01*
X317751Y457292D01*
X317842Y457229D01*
X317931Y457162D01*
X318017Y457092D01*
X318100Y457019D01*
X318182Y456944D01*
X318260Y456866D01*
X318335Y456784D01*
X318408Y456701D01*
X318478Y456615D01*
X318545Y456526D01*
X318608Y456435D01*
X318669Y456342D01*
X318726Y456248D01*
X318779Y456151D01*
X318830Y456052D01*
X318877Y455951D01*
X318920Y455849D01*
X318960Y455746D01*
X318996Y455641D01*
X319028Y455535D01*
X319057Y455428D01*
X319082Y455320D01*
X319103Y455211D01*
X319120Y455102D01*
X319134Y454992D01*
X319143Y454881D01*
X319149Y454771D01*
X319151Y454660D01*
X319151Y451485D01*
X319151Y455295D02*
X324231Y457835D01*
X317881Y462832D02*
X317881Y466642D01*
X317883Y466742D01*
X317889Y466841D01*
X317899Y466941D01*
X317912Y467039D01*
X317930Y467138D01*
X317951Y467235D01*
X317976Y467331D01*
X318005Y467427D01*
X318038Y467521D01*
X318074Y467614D01*
X318114Y467705D01*
X318158Y467795D01*
X318205Y467883D01*
X318255Y467969D01*
X318309Y468053D01*
X318366Y468135D01*
X318426Y468214D01*
X318490Y468292D01*
X318556Y468366D01*
X318625Y468438D01*
X318697Y468507D01*
X318771Y468573D01*
X318849Y468637D01*
X318928Y468697D01*
X319010Y468754D01*
X319094Y468808D01*
X319180Y468858D01*
X319268Y468905D01*
X319358Y468949D01*
X319449Y468989D01*
X319542Y469025D01*
X319636Y469058D01*
X319732Y469087D01*
X319828Y469112D01*
X319925Y469133D01*
X320024Y469151D01*
X320122Y469164D01*
X320222Y469174D01*
X320321Y469180D01*
X320421Y469182D01*
X321056Y469182D01*
X321167Y469180D01*
X321277Y469174D01*
X321388Y469165D01*
X321498Y469151D01*
X321607Y469134D01*
X321716Y469113D01*
X321824Y469088D01*
X321931Y469059D01*
X322037Y469027D01*
X322142Y468991D01*
X322245Y468951D01*
X322347Y468908D01*
X322448Y468861D01*
X322547Y468810D01*
X322644Y468757D01*
X322738Y468700D01*
X322831Y468639D01*
X322922Y468576D01*
X323011Y468509D01*
X323097Y468439D01*
X323180Y468366D01*
X323262Y468291D01*
X323340Y468213D01*
X323415Y468131D01*
X323488Y468048D01*
X323558Y467962D01*
X323625Y467873D01*
X323688Y467782D01*
X323749Y467689D01*
X323806Y467594D01*
X323859Y467498D01*
X323910Y467399D01*
X323957Y467298D01*
X324000Y467196D01*
X324040Y467093D01*
X324076Y466988D01*
X324108Y466882D01*
X324137Y466775D01*
X324162Y466667D01*
X324183Y466558D01*
X324200Y466449D01*
X324214Y466339D01*
X324223Y466228D01*
X324229Y466118D01*
X324231Y466007D01*
X324229Y465896D01*
X324223Y465786D01*
X324214Y465675D01*
X324200Y465565D01*
X324183Y465456D01*
X324162Y465347D01*
X324137Y465239D01*
X324108Y465132D01*
X324076Y465026D01*
X324040Y464921D01*
X324000Y464818D01*
X323957Y464716D01*
X323910Y464615D01*
X323859Y464516D01*
X323806Y464419D01*
X323749Y464325D01*
X323688Y464232D01*
X323625Y464141D01*
X323558Y464052D01*
X323488Y463966D01*
X323415Y463883D01*
X323340Y463801D01*
X323262Y463723D01*
X323180Y463648D01*
X323097Y463575D01*
X323011Y463505D01*
X322922Y463438D01*
X322831Y463375D01*
X322738Y463314D01*
X322644Y463257D01*
X322547Y463204D01*
X322448Y463153D01*
X322347Y463106D01*
X322245Y463063D01*
X322142Y463023D01*
X322037Y462987D01*
X321931Y462955D01*
X321824Y462926D01*
X321716Y462901D01*
X321607Y462880D01*
X321498Y462863D01*
X321388Y462849D01*
X321277Y462840D01*
X321167Y462834D01*
X321056Y462832D01*
X317881Y462832D01*
X317741Y462834D01*
X317601Y462840D01*
X317461Y462849D01*
X317322Y462863D01*
X317183Y462880D01*
X317045Y462901D01*
X316907Y462926D01*
X316770Y462955D01*
X316634Y462987D01*
X316499Y463024D01*
X316365Y463064D01*
X316232Y463107D01*
X316100Y463155D01*
X315969Y463205D01*
X315840Y463260D01*
X315713Y463318D01*
X315587Y463379D01*
X315463Y463444D01*
X315341Y463513D01*
X315221Y463584D01*
X315103Y463659D01*
X314986Y463737D01*
X314872Y463819D01*
X314761Y463903D01*
X314652Y463991D01*
X314545Y464081D01*
X314440Y464175D01*
X314339Y464271D01*
X314240Y464370D01*
X314144Y464471D01*
X314050Y464576D01*
X313960Y464683D01*
X313872Y464792D01*
X313788Y464903D01*
X313706Y465017D01*
X313628Y465134D01*
X313553Y465252D01*
X313482Y465372D01*
X313413Y465494D01*
X313348Y465618D01*
X313287Y465744D01*
X313229Y465871D01*
X313174Y466000D01*
X313124Y466131D01*
X313076Y466263D01*
X313033Y466396D01*
X312993Y466530D01*
X312956Y466665D01*
X312924Y466801D01*
X312895Y466938D01*
X312870Y467076D01*
X312849Y467214D01*
X312832Y467353D01*
X312818Y467492D01*
X312809Y467632D01*
X312803Y467772D01*
X312801Y467912D01*
D12*
X596900Y412750D02*
X596900Y374650D01*
D13*
X597374Y374034D01*
X597863Y373429D01*
X598367Y372837D01*
X598885Y372257D01*
X599417Y371690D01*
X599963Y371136D01*
X600522Y370596D01*
X601095Y370070D01*
X601680Y369557D01*
X602277Y369060D01*
X602886Y368577D01*
X603507Y368109D01*
X604140Y367656D01*
X604783Y367219D01*
X605437Y366798D01*
X606101Y366394D01*
X606774Y366005D01*
X607457Y365633D01*
X608149Y365278D01*
X608849Y364940D01*
X609557Y364619D01*
X610273Y364316D01*
X610997Y364030D01*
X611726Y363762D01*
X612463Y363512D01*
X613205Y363281D01*
X613953Y363067D01*
X614705Y362872D01*
X615463Y362695D01*
X616224Y362537D01*
X616989Y362397D01*
X617757Y362277D01*
X618528Y362175D01*
X619301Y362092D01*
X620076Y362028D01*
X620852Y361983D01*
X621629Y361957D01*
X622407Y361950D01*
X623184Y361962D01*
X623961Y361993D01*
X624737Y362044D01*
X625512Y362113D01*
X626284Y362201D01*
X627054Y362308D01*
X627822Y362434D01*
X628586Y362578D01*
X629346Y362742D01*
X630102Y362924D01*
X630853Y363124D01*
X631600Y363342D01*
X632340Y363579D01*
X633075Y363834D01*
X633803Y364107D01*
X634524Y364398D01*
X635238Y364706D01*
X635944Y365031D01*
X636642Y365374D01*
X637332Y365734D01*
X638012Y366110D01*
X638683Y366503D01*
X639344Y366913D01*
X639995Y367338D01*
X640635Y367779D01*
X641264Y368236D01*
X641882Y368708D01*
X642488Y369195D01*
X643082Y369697D01*
X643664Y370213D01*
X644233Y370743D01*
X644788Y371287D01*
X645331Y371845D01*
X645859Y372415D01*
X646373Y372998D01*
X646873Y373594D01*
X647358Y374202D01*
X647828Y374821D01*
X648282Y375452D01*
X648721Y376094D01*
X649145Y376746D01*
X649552Y377409D01*
X649943Y378081D01*
X650317Y378763D01*
X650674Y379453D01*
X651014Y380152D01*
X651338Y380860D01*
X651643Y381574D01*
X651932Y382297D01*
X652202Y383026D01*
X652454Y383761D01*
X652689Y384503D01*
X652905Y385250D01*
X653103Y386002D01*
X653282Y386758D01*
X653443Y387519D01*
X653585Y388283D01*
X653708Y389051D01*
X653812Y389822D01*
X653898Y390595D01*
X653964Y391369D01*
X654012Y392145D01*
X654040Y392922D01*
X654050Y393700D01*
X654040Y394478D01*
X654012Y395255D01*
X653964Y396031D01*
X653898Y396805D01*
X653812Y397578D01*
X653708Y398349D01*
X653585Y399117D01*
X653443Y399881D01*
X653282Y400642D01*
X653103Y401398D01*
X652905Y402150D01*
X652689Y402897D01*
X652454Y403639D01*
X652202Y404374D01*
X651932Y405103D01*
X651643Y405826D01*
X651338Y406540D01*
X651014Y407248D01*
X650674Y407947D01*
X650317Y408637D01*
X649943Y409319D01*
X649552Y409991D01*
X649145Y410654D01*
X648721Y411306D01*
X648282Y411948D01*
X647828Y412579D01*
X647358Y413198D01*
X646873Y413806D01*
X646373Y414402D01*
X645859Y414985D01*
X645331Y415555D01*
X644788Y416113D01*
X644233Y416657D01*
X643664Y417187D01*
X643082Y417703D01*
X642488Y418205D01*
X641882Y418692D01*
X641264Y419164D01*
X640635Y419621D01*
X639995Y420062D01*
X639344Y420487D01*
X638683Y420897D01*
X638012Y421290D01*
X637332Y421666D01*
X636642Y422026D01*
X635944Y422369D01*
X635238Y422694D01*
X634524Y423002D01*
X633803Y423293D01*
X633075Y423566D01*
X632340Y423821D01*
X631600Y424058D01*
X630853Y424276D01*
X630102Y424476D01*
X629346Y424658D01*
X628586Y424822D01*
X627822Y424966D01*
X627054Y425092D01*
X626284Y425199D01*
X625512Y425287D01*
X624737Y425356D01*
X623961Y425407D01*
X623184Y425438D01*
X622407Y425450D01*
X621629Y425443D01*
X620852Y425417D01*
X620076Y425372D01*
X619301Y425308D01*
X618528Y425225D01*
X617757Y425123D01*
X616989Y425003D01*
X616224Y424863D01*
X615463Y424705D01*
X614705Y424528D01*
X613953Y424333D01*
X613205Y424119D01*
X612463Y423888D01*
X611726Y423638D01*
X610997Y423370D01*
X610273Y423084D01*
X609557Y422781D01*
X608849Y422460D01*
X608149Y422122D01*
X607457Y421767D01*
X606774Y421395D01*
X606101Y421006D01*
X605437Y420602D01*
X604783Y420181D01*
X604140Y419744D01*
X603507Y419291D01*
X602886Y418823D01*
X602277Y418340D01*
X601680Y417843D01*
X601095Y417330D01*
X600522Y416804D01*
X599963Y416264D01*
X599417Y415710D01*
X598885Y415143D01*
X598367Y414563D01*
X597863Y413971D01*
X597374Y413366D01*
X596900Y412750D01*
D10*
X596900Y393700D02*
X596908Y394323D01*
X596931Y394946D01*
X596969Y395569D01*
X597022Y396190D01*
X597091Y396809D01*
X597175Y397427D01*
X597274Y398042D01*
X597388Y398655D01*
X597517Y399265D01*
X597661Y399872D01*
X597820Y400475D01*
X597994Y401073D01*
X598182Y401668D01*
X598385Y402257D01*
X598602Y402841D01*
X598833Y403420D01*
X599079Y403993D01*
X599339Y404560D01*
X599612Y405120D01*
X599899Y405673D01*
X600200Y406220D01*
X600514Y406758D01*
X600841Y407289D01*
X601181Y407811D01*
X601533Y408326D01*
X601899Y408831D01*
X602276Y409327D01*
X602666Y409814D01*
X603067Y410291D01*
X603480Y410758D01*
X603904Y411214D01*
X604339Y411661D01*
X604786Y412096D01*
X605242Y412520D01*
X605709Y412933D01*
X606186Y413334D01*
X606673Y413724D01*
X607169Y414101D01*
X607674Y414467D01*
X608189Y414819D01*
X608711Y415159D01*
X609242Y415486D01*
X609780Y415800D01*
X610327Y416101D01*
X610880Y416388D01*
X611440Y416661D01*
X612007Y416921D01*
X612580Y417167D01*
X613159Y417398D01*
X613743Y417615D01*
X614332Y417818D01*
X614927Y418006D01*
X615525Y418180D01*
X616128Y418339D01*
X616735Y418483D01*
X617345Y418612D01*
X617958Y418726D01*
X618573Y418825D01*
X619191Y418909D01*
X619810Y418978D01*
X620431Y419031D01*
X621054Y419069D01*
X621677Y419092D01*
X622300Y419100D01*
X622923Y419092D01*
X623546Y419069D01*
X624169Y419031D01*
X624790Y418978D01*
X625409Y418909D01*
X626027Y418825D01*
X626642Y418726D01*
X627255Y418612D01*
X627865Y418483D01*
X628472Y418339D01*
X629075Y418180D01*
X629673Y418006D01*
X630268Y417818D01*
X630857Y417615D01*
X631441Y417398D01*
X632020Y417167D01*
X632593Y416921D01*
X633160Y416661D01*
X633720Y416388D01*
X634273Y416101D01*
X634820Y415800D01*
X635358Y415486D01*
X635889Y415159D01*
X636411Y414819D01*
X636926Y414467D01*
X637431Y414101D01*
X637927Y413724D01*
X638414Y413334D01*
X638891Y412933D01*
X639358Y412520D01*
X639814Y412096D01*
X640261Y411661D01*
X640696Y411214D01*
X641120Y410758D01*
X641533Y410291D01*
X641934Y409814D01*
X642324Y409327D01*
X642701Y408831D01*
X643067Y408326D01*
X643419Y407811D01*
X643759Y407289D01*
X644086Y406758D01*
X644400Y406220D01*
X644701Y405673D01*
X644988Y405120D01*
X645261Y404560D01*
X645521Y403993D01*
X645767Y403420D01*
X645998Y402841D01*
X646215Y402257D01*
X646418Y401668D01*
X646606Y401073D01*
X646780Y400475D01*
X646939Y399872D01*
X647083Y399265D01*
X647212Y398655D01*
X647326Y398042D01*
X647425Y397427D01*
X647509Y396809D01*
X647578Y396190D01*
X647631Y395569D01*
X647669Y394946D01*
X647692Y394323D01*
X647700Y393700D01*
X647692Y393077D01*
X647669Y392454D01*
X647631Y391831D01*
X647578Y391210D01*
X647509Y390591D01*
X647425Y389973D01*
X647326Y389358D01*
X647212Y388745D01*
X647083Y388135D01*
X646939Y387528D01*
X646780Y386925D01*
X646606Y386327D01*
X646418Y385732D01*
X646215Y385143D01*
X645998Y384559D01*
X645767Y383980D01*
X645521Y383407D01*
X645261Y382840D01*
X644988Y382280D01*
X644701Y381727D01*
X644400Y381180D01*
X644086Y380642D01*
X643759Y380111D01*
X643419Y379589D01*
X643067Y379074D01*
X642701Y378569D01*
X642324Y378073D01*
X641934Y377586D01*
X641533Y377109D01*
X641120Y376642D01*
X640696Y376186D01*
X640261Y375739D01*
X639814Y375304D01*
X639358Y374880D01*
X638891Y374467D01*
X638414Y374066D01*
X637927Y373676D01*
X637431Y373299D01*
X636926Y372933D01*
X636411Y372581D01*
X635889Y372241D01*
X635358Y371914D01*
X634820Y371600D01*
X634273Y371299D01*
X633720Y371012D01*
X633160Y370739D01*
X632593Y370479D01*
X632020Y370233D01*
X631441Y370002D01*
X630857Y369785D01*
X630268Y369582D01*
X629673Y369394D01*
X629075Y369220D01*
X628472Y369061D01*
X627865Y368917D01*
X627255Y368788D01*
X626642Y368674D01*
X626027Y368575D01*
X625409Y368491D01*
X624790Y368422D01*
X624169Y368369D01*
X623546Y368331D01*
X622923Y368308D01*
X622300Y368300D01*
X621677Y368308D01*
X621054Y368331D01*
X620431Y368369D01*
X619810Y368422D01*
X619191Y368491D01*
X618573Y368575D01*
X617958Y368674D01*
X617345Y368788D01*
X616735Y368917D01*
X616128Y369061D01*
X615525Y369220D01*
X614927Y369394D01*
X614332Y369582D01*
X613743Y369785D01*
X613159Y370002D01*
X612580Y370233D01*
X612007Y370479D01*
X611440Y370739D01*
X610880Y371012D01*
X610327Y371299D01*
X609780Y371600D01*
X609242Y371914D01*
X608711Y372241D01*
X608189Y372581D01*
X607674Y372933D01*
X607169Y373299D01*
X606673Y373676D01*
X606186Y374066D01*
X605709Y374467D01*
X605242Y374880D01*
X604786Y375304D01*
X604339Y375739D01*
X603904Y376186D01*
X603480Y376642D01*
X603067Y377109D01*
X602666Y377586D01*
X602276Y378073D01*
X601899Y378569D01*
X601533Y379074D01*
X601181Y379589D01*
X600841Y380111D01*
X600514Y380642D01*
X600200Y381180D01*
X599899Y381727D01*
X599612Y382280D01*
X599339Y382840D01*
X599079Y383407D01*
X598833Y383980D01*
X598602Y384559D01*
X598385Y385143D01*
X598182Y385732D01*
X597994Y386327D01*
X597820Y386925D01*
X597661Y387528D01*
X597517Y388135D01*
X597388Y388745D01*
X597274Y389358D01*
X597175Y389973D01*
X597091Y390591D01*
X597022Y391210D01*
X596969Y391831D01*
X596931Y392454D01*
X596908Y393077D01*
X596900Y393700D01*
D11*
X572218Y387731D02*
X572218Y376301D01*
X572218Y387731D02*
X575393Y387731D01*
X575504Y387729D01*
X575614Y387723D01*
X575725Y387714D01*
X575835Y387700D01*
X575944Y387683D01*
X576053Y387662D01*
X576161Y387637D01*
X576268Y387608D01*
X576374Y387576D01*
X576479Y387540D01*
X576582Y387500D01*
X576684Y387457D01*
X576785Y387410D01*
X576884Y387359D01*
X576981Y387306D01*
X577075Y387249D01*
X577168Y387188D01*
X577259Y387125D01*
X577348Y387058D01*
X577434Y386988D01*
X577517Y386915D01*
X577599Y386840D01*
X577677Y386762D01*
X577752Y386680D01*
X577825Y386597D01*
X577895Y386511D01*
X577962Y386422D01*
X578025Y386331D01*
X578086Y386238D01*
X578143Y386143D01*
X578196Y386047D01*
X578247Y385948D01*
X578294Y385847D01*
X578337Y385745D01*
X578377Y385642D01*
X578413Y385537D01*
X578445Y385431D01*
X578474Y385324D01*
X578499Y385216D01*
X578520Y385107D01*
X578537Y384998D01*
X578551Y384888D01*
X578560Y384777D01*
X578566Y384667D01*
X578568Y384556D01*
X578566Y384445D01*
X578560Y384335D01*
X578551Y384224D01*
X578537Y384114D01*
X578520Y384005D01*
X578499Y383896D01*
X578474Y383788D01*
X578445Y383681D01*
X578413Y383575D01*
X578377Y383470D01*
X578337Y383367D01*
X578294Y383265D01*
X578247Y383164D01*
X578196Y383065D01*
X578143Y382968D01*
X578086Y382874D01*
X578025Y382781D01*
X577962Y382690D01*
X577895Y382601D01*
X577825Y382515D01*
X577752Y382432D01*
X577677Y382350D01*
X577599Y382272D01*
X577517Y382197D01*
X577434Y382124D01*
X577348Y382054D01*
X577259Y381987D01*
X577168Y381924D01*
X577075Y381863D01*
X576981Y381806D01*
X576884Y381753D01*
X576785Y381702D01*
X576684Y381655D01*
X576582Y381612D01*
X576479Y381572D01*
X576374Y381536D01*
X576268Y381504D01*
X576161Y381475D01*
X576053Y381450D01*
X575944Y381429D01*
X575835Y381412D01*
X575725Y381398D01*
X575614Y381389D01*
X575504Y381383D01*
X575393Y381381D01*
X572218Y381381D01*
X576028Y381381D02*
X578568Y376301D01*
X583565Y386461D02*
X583565Y387731D01*
X589915Y387731D01*
X586740Y376301D01*
D12*
X457200Y387350D02*
X457200Y425450D01*
D13*
X456726Y426066D01*
X456237Y426671D01*
X455733Y427263D01*
X455215Y427843D01*
X454683Y428410D01*
X454137Y428964D01*
X453578Y429504D01*
X453005Y430030D01*
X452420Y430543D01*
X451823Y431040D01*
X451214Y431523D01*
X450593Y431991D01*
X449960Y432444D01*
X449317Y432881D01*
X448663Y433302D01*
X447999Y433706D01*
X447326Y434095D01*
X446643Y434467D01*
X445951Y434822D01*
X445251Y435160D01*
X444543Y435481D01*
X443827Y435784D01*
X443103Y436070D01*
X442374Y436338D01*
X441637Y436588D01*
X440895Y436819D01*
X440147Y437033D01*
X439395Y437228D01*
X438637Y437405D01*
X437876Y437563D01*
X437111Y437703D01*
X436343Y437823D01*
X435572Y437925D01*
X434799Y438008D01*
X434024Y438072D01*
X433248Y438117D01*
X432471Y438143D01*
X431693Y438150D01*
X430916Y438138D01*
X430139Y438107D01*
X429363Y438056D01*
X428588Y437987D01*
X427816Y437899D01*
X427046Y437792D01*
X426278Y437666D01*
X425514Y437522D01*
X424754Y437358D01*
X423998Y437176D01*
X423247Y436976D01*
X422500Y436758D01*
X421760Y436521D01*
X421025Y436266D01*
X420297Y435993D01*
X419576Y435702D01*
X418862Y435394D01*
X418156Y435069D01*
X417458Y434726D01*
X416768Y434366D01*
X416088Y433990D01*
X415417Y433597D01*
X414756Y433187D01*
X414105Y432762D01*
X413465Y432321D01*
X412836Y431864D01*
X412218Y431392D01*
X411612Y430905D01*
X411018Y430403D01*
X410436Y429887D01*
X409867Y429357D01*
X409312Y428813D01*
X408769Y428255D01*
X408241Y427685D01*
X407727Y427102D01*
X407227Y426506D01*
X406742Y425898D01*
X406272Y425279D01*
X405818Y424648D01*
X405379Y424006D01*
X404955Y423354D01*
X404548Y422691D01*
X404157Y422019D01*
X403783Y421337D01*
X403426Y420647D01*
X403086Y419948D01*
X402762Y419240D01*
X402457Y418526D01*
X402168Y417803D01*
X401898Y417074D01*
X401646Y416339D01*
X401411Y415597D01*
X401195Y414850D01*
X400997Y414098D01*
X400818Y413342D01*
X400657Y412581D01*
X400515Y411817D01*
X400392Y411049D01*
X400288Y410278D01*
X400202Y409505D01*
X400136Y408731D01*
X400088Y407955D01*
X400060Y407178D01*
X400050Y406400D01*
X400060Y405622D01*
X400088Y404845D01*
X400136Y404069D01*
X400202Y403295D01*
X400288Y402522D01*
X400392Y401751D01*
X400515Y400983D01*
X400657Y400219D01*
X400818Y399458D01*
X400997Y398702D01*
X401195Y397950D01*
X401411Y397203D01*
X401646Y396461D01*
X401898Y395726D01*
X402168Y394997D01*
X402457Y394274D01*
X402762Y393560D01*
X403086Y392852D01*
X403426Y392153D01*
X403783Y391463D01*
X404157Y390781D01*
X404548Y390109D01*
X404955Y389446D01*
X405379Y388794D01*
X405818Y388152D01*
X406272Y387521D01*
X406742Y386902D01*
X407227Y386294D01*
X407727Y385698D01*
X408241Y385115D01*
X408769Y384545D01*
X409312Y383987D01*
X409867Y383443D01*
X410436Y382913D01*
X411018Y382397D01*
X411612Y381895D01*
X412218Y381408D01*
X412836Y380936D01*
X413465Y380479D01*
X414105Y380038D01*
X414756Y379613D01*
X415417Y379203D01*
X416088Y378810D01*
X416768Y378434D01*
X417458Y378074D01*
X418156Y377731D01*
X418862Y377406D01*
X419576Y377098D01*
X420297Y376807D01*
X421025Y376534D01*
X421760Y376279D01*
X422500Y376042D01*
X423247Y375824D01*
X423998Y375624D01*
X424754Y375442D01*
X425514Y375278D01*
X426278Y375134D01*
X427046Y375008D01*
X427816Y374901D01*
X428588Y374813D01*
X429363Y374744D01*
X430139Y374693D01*
X430916Y374662D01*
X431693Y374650D01*
X432471Y374657D01*
X433248Y374683D01*
X434024Y374728D01*
X434799Y374792D01*
X435572Y374875D01*
X436343Y374977D01*
X437111Y375097D01*
X437876Y375237D01*
X438637Y375395D01*
X439395Y375572D01*
X440147Y375767D01*
X440895Y375981D01*
X441637Y376212D01*
X442374Y376462D01*
X443103Y376730D01*
X443827Y377016D01*
X444543Y377319D01*
X445251Y377640D01*
X445951Y377978D01*
X446643Y378333D01*
X447326Y378705D01*
X447999Y379094D01*
X448663Y379498D01*
X449317Y379919D01*
X449960Y380356D01*
X450593Y380809D01*
X451214Y381277D01*
X451823Y381760D01*
X452420Y382257D01*
X453005Y382770D01*
X453578Y383296D01*
X454137Y383836D01*
X454683Y384390D01*
X455215Y384957D01*
X455733Y385537D01*
X456237Y386129D01*
X456726Y386734D01*
X457200Y387350D01*
D10*
X406400Y406400D02*
X406408Y407023D01*
X406431Y407646D01*
X406469Y408269D01*
X406522Y408890D01*
X406591Y409509D01*
X406675Y410127D01*
X406774Y410742D01*
X406888Y411355D01*
X407017Y411965D01*
X407161Y412572D01*
X407320Y413175D01*
X407494Y413773D01*
X407682Y414368D01*
X407885Y414957D01*
X408102Y415541D01*
X408333Y416120D01*
X408579Y416693D01*
X408839Y417260D01*
X409112Y417820D01*
X409399Y418373D01*
X409700Y418920D01*
X410014Y419458D01*
X410341Y419989D01*
X410681Y420511D01*
X411033Y421026D01*
X411399Y421531D01*
X411776Y422027D01*
X412166Y422514D01*
X412567Y422991D01*
X412980Y423458D01*
X413404Y423914D01*
X413839Y424361D01*
X414286Y424796D01*
X414742Y425220D01*
X415209Y425633D01*
X415686Y426034D01*
X416173Y426424D01*
X416669Y426801D01*
X417174Y427167D01*
X417689Y427519D01*
X418211Y427859D01*
X418742Y428186D01*
X419280Y428500D01*
X419827Y428801D01*
X420380Y429088D01*
X420940Y429361D01*
X421507Y429621D01*
X422080Y429867D01*
X422659Y430098D01*
X423243Y430315D01*
X423832Y430518D01*
X424427Y430706D01*
X425025Y430880D01*
X425628Y431039D01*
X426235Y431183D01*
X426845Y431312D01*
X427458Y431426D01*
X428073Y431525D01*
X428691Y431609D01*
X429310Y431678D01*
X429931Y431731D01*
X430554Y431769D01*
X431177Y431792D01*
X431800Y431800D01*
X432423Y431792D01*
X433046Y431769D01*
X433669Y431731D01*
X434290Y431678D01*
X434909Y431609D01*
X435527Y431525D01*
X436142Y431426D01*
X436755Y431312D01*
X437365Y431183D01*
X437972Y431039D01*
X438575Y430880D01*
X439173Y430706D01*
X439768Y430518D01*
X440357Y430315D01*
X440941Y430098D01*
X441520Y429867D01*
X442093Y429621D01*
X442660Y429361D01*
X443220Y429088D01*
X443773Y428801D01*
X444320Y428500D01*
X444858Y428186D01*
X445389Y427859D01*
X445911Y427519D01*
X446426Y427167D01*
X446931Y426801D01*
X447427Y426424D01*
X447914Y426034D01*
X448391Y425633D01*
X448858Y425220D01*
X449314Y424796D01*
X449761Y424361D01*
X450196Y423914D01*
X450620Y423458D01*
X451033Y422991D01*
X451434Y422514D01*
X451824Y422027D01*
X452201Y421531D01*
X452567Y421026D01*
X452919Y420511D01*
X453259Y419989D01*
X453586Y419458D01*
X453900Y418920D01*
X454201Y418373D01*
X454488Y417820D01*
X454761Y417260D01*
X455021Y416693D01*
X455267Y416120D01*
X455498Y415541D01*
X455715Y414957D01*
X455918Y414368D01*
X456106Y413773D01*
X456280Y413175D01*
X456439Y412572D01*
X456583Y411965D01*
X456712Y411355D01*
X456826Y410742D01*
X456925Y410127D01*
X457009Y409509D01*
X457078Y408890D01*
X457131Y408269D01*
X457169Y407646D01*
X457192Y407023D01*
X457200Y406400D01*
X457192Y405777D01*
X457169Y405154D01*
X457131Y404531D01*
X457078Y403910D01*
X457009Y403291D01*
X456925Y402673D01*
X456826Y402058D01*
X456712Y401445D01*
X456583Y400835D01*
X456439Y400228D01*
X456280Y399625D01*
X456106Y399027D01*
X455918Y398432D01*
X455715Y397843D01*
X455498Y397259D01*
X455267Y396680D01*
X455021Y396107D01*
X454761Y395540D01*
X454488Y394980D01*
X454201Y394427D01*
X453900Y393880D01*
X453586Y393342D01*
X453259Y392811D01*
X452919Y392289D01*
X452567Y391774D01*
X452201Y391269D01*
X451824Y390773D01*
X451434Y390286D01*
X451033Y389809D01*
X450620Y389342D01*
X450196Y388886D01*
X449761Y388439D01*
X449314Y388004D01*
X448858Y387580D01*
X448391Y387167D01*
X447914Y386766D01*
X447427Y386376D01*
X446931Y385999D01*
X446426Y385633D01*
X445911Y385281D01*
X445389Y384941D01*
X444858Y384614D01*
X444320Y384300D01*
X443773Y383999D01*
X443220Y383712D01*
X442660Y383439D01*
X442093Y383179D01*
X441520Y382933D01*
X440941Y382702D01*
X440357Y382485D01*
X439768Y382282D01*
X439173Y382094D01*
X438575Y381920D01*
X437972Y381761D01*
X437365Y381617D01*
X436755Y381488D01*
X436142Y381374D01*
X435527Y381275D01*
X434909Y381191D01*
X434290Y381122D01*
X433669Y381069D01*
X433046Y381031D01*
X432423Y381008D01*
X431800Y381000D01*
X431177Y381008D01*
X430554Y381031D01*
X429931Y381069D01*
X429310Y381122D01*
X428691Y381191D01*
X428073Y381275D01*
X427458Y381374D01*
X426845Y381488D01*
X426235Y381617D01*
X425628Y381761D01*
X425025Y381920D01*
X424427Y382094D01*
X423832Y382282D01*
X423243Y382485D01*
X422659Y382702D01*
X422080Y382933D01*
X421507Y383179D01*
X420940Y383439D01*
X420380Y383712D01*
X419827Y383999D01*
X419280Y384300D01*
X418742Y384614D01*
X418211Y384941D01*
X417689Y385281D01*
X417174Y385633D01*
X416669Y385999D01*
X416173Y386376D01*
X415686Y386766D01*
X415209Y387167D01*
X414742Y387580D01*
X414286Y388004D01*
X413839Y388439D01*
X413404Y388886D01*
X412980Y389342D01*
X412567Y389809D01*
X412166Y390286D01*
X411776Y390773D01*
X411399Y391269D01*
X411033Y391774D01*
X410681Y392289D01*
X410341Y392811D01*
X410014Y393342D01*
X409700Y393880D01*
X409399Y394427D01*
X409112Y394980D01*
X408839Y395540D01*
X408579Y396107D01*
X408333Y396680D01*
X408102Y397259D01*
X407885Y397843D01*
X407682Y398432D01*
X407494Y399027D01*
X407320Y399625D01*
X407161Y400228D01*
X407017Y400835D01*
X406888Y401445D01*
X406774Y402058D01*
X406675Y402673D01*
X406591Y403291D01*
X406522Y403910D01*
X406469Y404531D01*
X406431Y405154D01*
X406408Y405777D01*
X406400Y406400D01*
D11*
X464185Y412369D02*
X464185Y423799D01*
X467360Y423799D01*
X467471Y423797D01*
X467581Y423791D01*
X467692Y423782D01*
X467802Y423768D01*
X467911Y423751D01*
X468020Y423730D01*
X468128Y423705D01*
X468235Y423676D01*
X468341Y423644D01*
X468446Y423608D01*
X468549Y423568D01*
X468651Y423525D01*
X468752Y423478D01*
X468851Y423427D01*
X468948Y423374D01*
X469042Y423317D01*
X469135Y423256D01*
X469226Y423193D01*
X469315Y423126D01*
X469401Y423056D01*
X469484Y422983D01*
X469566Y422908D01*
X469644Y422830D01*
X469719Y422748D01*
X469792Y422665D01*
X469862Y422579D01*
X469929Y422490D01*
X469992Y422399D01*
X470053Y422306D01*
X470110Y422211D01*
X470163Y422115D01*
X470214Y422016D01*
X470261Y421915D01*
X470304Y421813D01*
X470344Y421710D01*
X470380Y421605D01*
X470412Y421499D01*
X470441Y421392D01*
X470466Y421284D01*
X470487Y421175D01*
X470504Y421066D01*
X470518Y420956D01*
X470527Y420845D01*
X470533Y420735D01*
X470535Y420624D01*
X470533Y420513D01*
X470527Y420403D01*
X470518Y420292D01*
X470504Y420182D01*
X470487Y420073D01*
X470466Y419964D01*
X470441Y419856D01*
X470412Y419749D01*
X470380Y419643D01*
X470344Y419538D01*
X470304Y419435D01*
X470261Y419333D01*
X470214Y419232D01*
X470163Y419133D01*
X470110Y419036D01*
X470053Y418942D01*
X469992Y418849D01*
X469929Y418758D01*
X469862Y418669D01*
X469792Y418583D01*
X469719Y418500D01*
X469644Y418418D01*
X469566Y418340D01*
X469484Y418265D01*
X469401Y418192D01*
X469315Y418122D01*
X469226Y418055D01*
X469135Y417992D01*
X469042Y417931D01*
X468948Y417874D01*
X468851Y417821D01*
X468752Y417770D01*
X468651Y417723D01*
X468549Y417680D01*
X468446Y417640D01*
X468341Y417604D01*
X468235Y417572D01*
X468128Y417543D01*
X468020Y417518D01*
X467911Y417497D01*
X467802Y417480D01*
X467692Y417466D01*
X467581Y417457D01*
X467471Y417451D01*
X467360Y417449D01*
X464185Y417449D01*
X467995Y417449D02*
X470535Y412369D01*
X475532Y412369D02*
X479342Y412369D01*
X479442Y412371D01*
X479541Y412377D01*
X479641Y412387D01*
X479739Y412400D01*
X479838Y412418D01*
X479935Y412439D01*
X480031Y412464D01*
X480127Y412493D01*
X480221Y412526D01*
X480314Y412562D01*
X480405Y412602D01*
X480495Y412646D01*
X480583Y412693D01*
X480669Y412743D01*
X480753Y412797D01*
X480835Y412854D01*
X480914Y412914D01*
X480992Y412978D01*
X481066Y413044D01*
X481138Y413113D01*
X481207Y413185D01*
X481273Y413259D01*
X481337Y413337D01*
X481397Y413416D01*
X481454Y413498D01*
X481508Y413582D01*
X481558Y413668D01*
X481605Y413756D01*
X481649Y413846D01*
X481689Y413937D01*
X481725Y414030D01*
X481758Y414124D01*
X481787Y414220D01*
X481812Y414316D01*
X481833Y414413D01*
X481851Y414512D01*
X481864Y414610D01*
X481874Y414710D01*
X481880Y414809D01*
X481882Y414909D01*
X481882Y416179D01*
X481880Y416279D01*
X481874Y416378D01*
X481864Y416478D01*
X481851Y416576D01*
X481833Y416675D01*
X481812Y416772D01*
X481787Y416868D01*
X481758Y416964D01*
X481725Y417058D01*
X481689Y417151D01*
X481649Y417242D01*
X481605Y417332D01*
X481558Y417420D01*
X481508Y417506D01*
X481454Y417590D01*
X481397Y417672D01*
X481337Y417751D01*
X481273Y417829D01*
X481207Y417903D01*
X481138Y417975D01*
X481066Y418044D01*
X480992Y418110D01*
X480914Y418174D01*
X480835Y418234D01*
X480753Y418291D01*
X480669Y418345D01*
X480583Y418395D01*
X480495Y418442D01*
X480405Y418486D01*
X480314Y418526D01*
X480221Y418562D01*
X480127Y418595D01*
X480031Y418624D01*
X479935Y418649D01*
X479838Y418670D01*
X479739Y418688D01*
X479641Y418701D01*
X479541Y418711D01*
X479442Y418717D01*
X479342Y418719D01*
X475532Y418719D01*
X475532Y423799D01*
X481882Y423799D01*
D12*
X546100Y349250D02*
X546100Y311150D01*
D13*
X546574Y310534D01*
X547063Y309929D01*
X547567Y309337D01*
X548085Y308757D01*
X548617Y308190D01*
X549163Y307636D01*
X549722Y307096D01*
X550295Y306570D01*
X550880Y306057D01*
X551477Y305560D01*
X552086Y305077D01*
X552707Y304609D01*
X553340Y304156D01*
X553983Y303719D01*
X554637Y303298D01*
X555301Y302894D01*
X555974Y302505D01*
X556657Y302133D01*
X557349Y301778D01*
X558049Y301440D01*
X558757Y301119D01*
X559473Y300816D01*
X560197Y300530D01*
X560926Y300262D01*
X561663Y300012D01*
X562405Y299781D01*
X563153Y299567D01*
X563905Y299372D01*
X564663Y299195D01*
X565424Y299037D01*
X566189Y298897D01*
X566957Y298777D01*
X567728Y298675D01*
X568501Y298592D01*
X569276Y298528D01*
X570052Y298483D01*
X570829Y298457D01*
X571607Y298450D01*
X572384Y298462D01*
X573161Y298493D01*
X573937Y298544D01*
X574712Y298613D01*
X575484Y298701D01*
X576254Y298808D01*
X577022Y298934D01*
X577786Y299078D01*
X578546Y299242D01*
X579302Y299424D01*
X580053Y299624D01*
X580800Y299842D01*
X581540Y300079D01*
X582275Y300334D01*
X583003Y300607D01*
X583724Y300898D01*
X584438Y301206D01*
X585144Y301531D01*
X585842Y301874D01*
X586532Y302234D01*
X587212Y302610D01*
X587883Y303003D01*
X588544Y303413D01*
X589195Y303838D01*
X589835Y304279D01*
X590464Y304736D01*
X591082Y305208D01*
X591688Y305695D01*
X592282Y306197D01*
X592864Y306713D01*
X593433Y307243D01*
X593988Y307787D01*
X594531Y308345D01*
X595059Y308915D01*
X595573Y309498D01*
X596073Y310094D01*
X596558Y310702D01*
X597028Y311321D01*
X597482Y311952D01*
X597921Y312594D01*
X598345Y313246D01*
X598752Y313909D01*
X599143Y314581D01*
X599517Y315263D01*
X599874Y315953D01*
X600214Y316652D01*
X600538Y317360D01*
X600843Y318074D01*
X601132Y318797D01*
X601402Y319526D01*
X601654Y320261D01*
X601889Y321003D01*
X602105Y321750D01*
X602303Y322502D01*
X602482Y323258D01*
X602643Y324019D01*
X602785Y324783D01*
X602908Y325551D01*
X603012Y326322D01*
X603098Y327095D01*
X603164Y327869D01*
X603212Y328645D01*
X603240Y329422D01*
X603250Y330200D01*
X603240Y330978D01*
X603212Y331755D01*
X603164Y332531D01*
X603098Y333305D01*
X603012Y334078D01*
X602908Y334849D01*
X602785Y335617D01*
X602643Y336381D01*
X602482Y337142D01*
X602303Y337898D01*
X602105Y338650D01*
X601889Y339397D01*
X601654Y340139D01*
X601402Y340874D01*
X601132Y341603D01*
X600843Y342326D01*
X600538Y343040D01*
X600214Y343748D01*
X599874Y344447D01*
X599517Y345137D01*
X599143Y345819D01*
X598752Y346491D01*
X598345Y347154D01*
X597921Y347806D01*
X597482Y348448D01*
X597028Y349079D01*
X596558Y349698D01*
X596073Y350306D01*
X595573Y350902D01*
X595059Y351485D01*
X594531Y352055D01*
X593988Y352613D01*
X593433Y353157D01*
X592864Y353687D01*
X592282Y354203D01*
X591688Y354705D01*
X591082Y355192D01*
X590464Y355664D01*
X589835Y356121D01*
X589195Y356562D01*
X588544Y356987D01*
X587883Y357397D01*
X587212Y357790D01*
X586532Y358166D01*
X585842Y358526D01*
X585144Y358869D01*
X584438Y359194D01*
X583724Y359502D01*
X583003Y359793D01*
X582275Y360066D01*
X581540Y360321D01*
X580800Y360558D01*
X580053Y360776D01*
X579302Y360976D01*
X578546Y361158D01*
X577786Y361322D01*
X577022Y361466D01*
X576254Y361592D01*
X575484Y361699D01*
X574712Y361787D01*
X573937Y361856D01*
X573161Y361907D01*
X572384Y361938D01*
X571607Y361950D01*
X570829Y361943D01*
X570052Y361917D01*
X569276Y361872D01*
X568501Y361808D01*
X567728Y361725D01*
X566957Y361623D01*
X566189Y361503D01*
X565424Y361363D01*
X564663Y361205D01*
X563905Y361028D01*
X563153Y360833D01*
X562405Y360619D01*
X561663Y360388D01*
X560926Y360138D01*
X560197Y359870D01*
X559473Y359584D01*
X558757Y359281D01*
X558049Y358960D01*
X557349Y358622D01*
X556657Y358267D01*
X555974Y357895D01*
X555301Y357506D01*
X554637Y357102D01*
X553983Y356681D01*
X553340Y356244D01*
X552707Y355791D01*
X552086Y355323D01*
X551477Y354840D01*
X550880Y354343D01*
X550295Y353830D01*
X549722Y353304D01*
X549163Y352764D01*
X548617Y352210D01*
X548085Y351643D01*
X547567Y351063D01*
X547063Y350471D01*
X546574Y349866D01*
X546100Y349250D01*
D10*
X546100Y330200D02*
X546108Y330823D01*
X546131Y331446D01*
X546169Y332069D01*
X546222Y332690D01*
X546291Y333309D01*
X546375Y333927D01*
X546474Y334542D01*
X546588Y335155D01*
X546717Y335765D01*
X546861Y336372D01*
X547020Y336975D01*
X547194Y337573D01*
X547382Y338168D01*
X547585Y338757D01*
X547802Y339341D01*
X548033Y339920D01*
X548279Y340493D01*
X548539Y341060D01*
X548812Y341620D01*
X549099Y342173D01*
X549400Y342720D01*
X549714Y343258D01*
X550041Y343789D01*
X550381Y344311D01*
X550733Y344826D01*
X551099Y345331D01*
X551476Y345827D01*
X551866Y346314D01*
X552267Y346791D01*
X552680Y347258D01*
X553104Y347714D01*
X553539Y348161D01*
X553986Y348596D01*
X554442Y349020D01*
X554909Y349433D01*
X555386Y349834D01*
X555873Y350224D01*
X556369Y350601D01*
X556874Y350967D01*
X557389Y351319D01*
X557911Y351659D01*
X558442Y351986D01*
X558980Y352300D01*
X559527Y352601D01*
X560080Y352888D01*
X560640Y353161D01*
X561207Y353421D01*
X561780Y353667D01*
X562359Y353898D01*
X562943Y354115D01*
X563532Y354318D01*
X564127Y354506D01*
X564725Y354680D01*
X565328Y354839D01*
X565935Y354983D01*
X566545Y355112D01*
X567158Y355226D01*
X567773Y355325D01*
X568391Y355409D01*
X569010Y355478D01*
X569631Y355531D01*
X570254Y355569D01*
X570877Y355592D01*
X571500Y355600D01*
X572123Y355592D01*
X572746Y355569D01*
X573369Y355531D01*
X573990Y355478D01*
X574609Y355409D01*
X575227Y355325D01*
X575842Y355226D01*
X576455Y355112D01*
X577065Y354983D01*
X577672Y354839D01*
X578275Y354680D01*
X578873Y354506D01*
X579468Y354318D01*
X580057Y354115D01*
X580641Y353898D01*
X581220Y353667D01*
X581793Y353421D01*
X582360Y353161D01*
X582920Y352888D01*
X583473Y352601D01*
X584020Y352300D01*
X584558Y351986D01*
X585089Y351659D01*
X585611Y351319D01*
X586126Y350967D01*
X586631Y350601D01*
X587127Y350224D01*
X587614Y349834D01*
X588091Y349433D01*
X588558Y349020D01*
X589014Y348596D01*
X589461Y348161D01*
X589896Y347714D01*
X590320Y347258D01*
X590733Y346791D01*
X591134Y346314D01*
X591524Y345827D01*
X591901Y345331D01*
X592267Y344826D01*
X592619Y344311D01*
X592959Y343789D01*
X593286Y343258D01*
X593600Y342720D01*
X593901Y342173D01*
X594188Y341620D01*
X594461Y341060D01*
X594721Y340493D01*
X594967Y339920D01*
X595198Y339341D01*
X595415Y338757D01*
X595618Y338168D01*
X595806Y337573D01*
X595980Y336975D01*
X596139Y336372D01*
X596283Y335765D01*
X596412Y335155D01*
X596526Y334542D01*
X596625Y333927D01*
X596709Y333309D01*
X596778Y332690D01*
X596831Y332069D01*
X596869Y331446D01*
X596892Y330823D01*
X596900Y330200D01*
X596892Y329577D01*
X596869Y328954D01*
X596831Y328331D01*
X596778Y327710D01*
X596709Y327091D01*
X596625Y326473D01*
X596526Y325858D01*
X596412Y325245D01*
X596283Y324635D01*
X596139Y324028D01*
X595980Y323425D01*
X595806Y322827D01*
X595618Y322232D01*
X595415Y321643D01*
X595198Y321059D01*
X594967Y320480D01*
X594721Y319907D01*
X594461Y319340D01*
X594188Y318780D01*
X593901Y318227D01*
X593600Y317680D01*
X593286Y317142D01*
X592959Y316611D01*
X592619Y316089D01*
X592267Y315574D01*
X591901Y315069D01*
X591524Y314573D01*
X591134Y314086D01*
X590733Y313609D01*
X590320Y313142D01*
X589896Y312686D01*
X589461Y312239D01*
X589014Y311804D01*
X588558Y311380D01*
X588091Y310967D01*
X587614Y310566D01*
X587127Y310176D01*
X586631Y309799D01*
X586126Y309433D01*
X585611Y309081D01*
X585089Y308741D01*
X584558Y308414D01*
X584020Y308100D01*
X583473Y307799D01*
X582920Y307512D01*
X582360Y307239D01*
X581793Y306979D01*
X581220Y306733D01*
X580641Y306502D01*
X580057Y306285D01*
X579468Y306082D01*
X578873Y305894D01*
X578275Y305720D01*
X577672Y305561D01*
X577065Y305417D01*
X576455Y305288D01*
X575842Y305174D01*
X575227Y305075D01*
X574609Y304991D01*
X573990Y304922D01*
X573369Y304869D01*
X572746Y304831D01*
X572123Y304808D01*
X571500Y304800D01*
X570877Y304808D01*
X570254Y304831D01*
X569631Y304869D01*
X569010Y304922D01*
X568391Y304991D01*
X567773Y305075D01*
X567158Y305174D01*
X566545Y305288D01*
X565935Y305417D01*
X565328Y305561D01*
X564725Y305720D01*
X564127Y305894D01*
X563532Y306082D01*
X562943Y306285D01*
X562359Y306502D01*
X561780Y306733D01*
X561207Y306979D01*
X560640Y307239D01*
X560080Y307512D01*
X559527Y307799D01*
X558980Y308100D01*
X558442Y308414D01*
X557911Y308741D01*
X557389Y309081D01*
X556874Y309433D01*
X556369Y309799D01*
X555873Y310176D01*
X555386Y310566D01*
X554909Y310967D01*
X554442Y311380D01*
X553986Y311804D01*
X553539Y312239D01*
X553104Y312686D01*
X552680Y313142D01*
X552267Y313609D01*
X551866Y314086D01*
X551476Y314573D01*
X551099Y315069D01*
X550733Y315574D01*
X550381Y316089D01*
X550041Y316611D01*
X549714Y317142D01*
X549400Y317680D01*
X549099Y318227D01*
X548812Y318780D01*
X548539Y319340D01*
X548279Y319907D01*
X548033Y320480D01*
X547802Y321059D01*
X547585Y321643D01*
X547382Y322232D01*
X547194Y322827D01*
X547020Y323425D01*
X546861Y324028D01*
X546717Y324635D01*
X546588Y325245D01*
X546474Y325858D01*
X546375Y326473D01*
X546291Y327091D01*
X546222Y327710D01*
X546169Y328331D01*
X546131Y328954D01*
X546108Y329577D01*
X546100Y330200D01*
D11*
X528283Y312801D02*
X525743Y312801D01*
X525643Y312803D01*
X525544Y312809D01*
X525444Y312819D01*
X525346Y312832D01*
X525247Y312850D01*
X525150Y312871D01*
X525054Y312896D01*
X524958Y312925D01*
X524864Y312958D01*
X524771Y312994D01*
X524680Y313034D01*
X524590Y313078D01*
X524502Y313125D01*
X524416Y313175D01*
X524332Y313229D01*
X524250Y313286D01*
X524171Y313346D01*
X524093Y313410D01*
X524019Y313476D01*
X523947Y313545D01*
X523878Y313617D01*
X523812Y313691D01*
X523748Y313769D01*
X523688Y313848D01*
X523631Y313930D01*
X523577Y314014D01*
X523527Y314100D01*
X523480Y314188D01*
X523436Y314278D01*
X523396Y314369D01*
X523360Y314462D01*
X523327Y314556D01*
X523298Y314652D01*
X523273Y314748D01*
X523252Y314845D01*
X523234Y314944D01*
X523221Y315042D01*
X523211Y315142D01*
X523205Y315241D01*
X523203Y315341D01*
X523203Y321691D01*
X523205Y321791D01*
X523211Y321890D01*
X523221Y321990D01*
X523234Y322088D01*
X523252Y322187D01*
X523273Y322284D01*
X523298Y322380D01*
X523327Y322476D01*
X523360Y322570D01*
X523396Y322663D01*
X523436Y322754D01*
X523480Y322844D01*
X523527Y322932D01*
X523577Y323018D01*
X523631Y323102D01*
X523688Y323184D01*
X523748Y323263D01*
X523812Y323341D01*
X523878Y323415D01*
X523947Y323487D01*
X524019Y323556D01*
X524093Y323622D01*
X524171Y323686D01*
X524250Y323746D01*
X524332Y323803D01*
X524416Y323857D01*
X524502Y323907D01*
X524590Y323954D01*
X524680Y323998D01*
X524771Y324038D01*
X524864Y324074D01*
X524958Y324107D01*
X525054Y324136D01*
X525150Y324161D01*
X525247Y324182D01*
X525346Y324200D01*
X525444Y324213D01*
X525544Y324223D01*
X525643Y324229D01*
X525743Y324231D01*
X528283Y324231D01*
X532765Y312801D02*
X536575Y312801D01*
X536675Y312803D01*
X536774Y312809D01*
X536874Y312819D01*
X536972Y312832D01*
X537071Y312850D01*
X537168Y312871D01*
X537264Y312896D01*
X537360Y312925D01*
X537454Y312958D01*
X537547Y312994D01*
X537638Y313034D01*
X537728Y313078D01*
X537816Y313125D01*
X537902Y313175D01*
X537986Y313229D01*
X538068Y313286D01*
X538147Y313346D01*
X538225Y313410D01*
X538299Y313476D01*
X538371Y313545D01*
X538440Y313617D01*
X538506Y313691D01*
X538570Y313769D01*
X538630Y313848D01*
X538687Y313930D01*
X538741Y314014D01*
X538791Y314100D01*
X538838Y314188D01*
X538882Y314278D01*
X538922Y314369D01*
X538958Y314462D01*
X538991Y314556D01*
X539020Y314652D01*
X539045Y314748D01*
X539066Y314845D01*
X539084Y314944D01*
X539097Y315042D01*
X539107Y315142D01*
X539113Y315241D01*
X539115Y315341D01*
X539115Y316611D01*
X539113Y316711D01*
X539107Y316810D01*
X539097Y316910D01*
X539084Y317008D01*
X539066Y317107D01*
X539045Y317204D01*
X539020Y317300D01*
X538991Y317396D01*
X538958Y317490D01*
X538922Y317583D01*
X538882Y317674D01*
X538838Y317764D01*
X538791Y317852D01*
X538741Y317938D01*
X538687Y318022D01*
X538630Y318104D01*
X538570Y318183D01*
X538506Y318261D01*
X538440Y318335D01*
X538371Y318407D01*
X538299Y318476D01*
X538225Y318542D01*
X538147Y318606D01*
X538068Y318666D01*
X537986Y318723D01*
X537902Y318777D01*
X537816Y318827D01*
X537728Y318874D01*
X537638Y318918D01*
X537547Y318958D01*
X537454Y318994D01*
X537360Y319027D01*
X537264Y319056D01*
X537168Y319081D01*
X537071Y319102D01*
X536972Y319120D01*
X536874Y319133D01*
X536774Y319143D01*
X536675Y319149D01*
X536575Y319151D01*
X532765Y319151D01*
X532765Y324231D01*
X539115Y324231D01*
D12*
X666600Y311150D02*
X666600Y273050D01*
D13*
X666126Y272434D01*
X665637Y271829D01*
X665133Y271237D01*
X664615Y270657D01*
X664083Y270090D01*
X663537Y269536D01*
X662978Y268996D01*
X662405Y268470D01*
X661820Y267957D01*
X661223Y267460D01*
X660614Y266977D01*
X659993Y266509D01*
X659360Y266056D01*
X658717Y265619D01*
X658063Y265198D01*
X657399Y264794D01*
X656726Y264405D01*
X656043Y264033D01*
X655351Y263678D01*
X654651Y263340D01*
X653943Y263019D01*
X653227Y262716D01*
X652503Y262430D01*
X651774Y262162D01*
X651037Y261912D01*
X650295Y261681D01*
X649547Y261467D01*
X648795Y261272D01*
X648037Y261095D01*
X647276Y260937D01*
X646511Y260797D01*
X645743Y260677D01*
X644972Y260575D01*
X644199Y260492D01*
X643424Y260428D01*
X642648Y260383D01*
X641871Y260357D01*
X641093Y260350D01*
X640316Y260362D01*
X639539Y260393D01*
X638763Y260444D01*
X637988Y260513D01*
X637216Y260601D01*
X636446Y260708D01*
X635678Y260834D01*
X634914Y260978D01*
X634154Y261142D01*
X633398Y261324D01*
X632647Y261524D01*
X631900Y261742D01*
X631160Y261979D01*
X630425Y262234D01*
X629697Y262507D01*
X628976Y262798D01*
X628262Y263106D01*
X627556Y263431D01*
X626858Y263774D01*
X626168Y264134D01*
X625488Y264510D01*
X624817Y264903D01*
X624156Y265313D01*
X623505Y265738D01*
X622865Y266179D01*
X622236Y266636D01*
X621618Y267108D01*
X621012Y267595D01*
X620418Y268097D01*
X619836Y268613D01*
X619267Y269143D01*
X618712Y269687D01*
X618169Y270245D01*
X617641Y270815D01*
X617127Y271398D01*
X616627Y271994D01*
X616142Y272602D01*
X615672Y273221D01*
X615218Y273852D01*
X614779Y274494D01*
X614355Y275146D01*
X613948Y275809D01*
X613557Y276481D01*
X613183Y277163D01*
X612826Y277853D01*
X612486Y278552D01*
X612162Y279260D01*
X611857Y279974D01*
X611568Y280697D01*
X611298Y281426D01*
X611046Y282161D01*
X610811Y282903D01*
X610595Y283650D01*
X610397Y284402D01*
X610218Y285158D01*
X610057Y285919D01*
X609915Y286683D01*
X609792Y287451D01*
X609688Y288222D01*
X609602Y288995D01*
X609536Y289769D01*
X609488Y290545D01*
X609460Y291322D01*
X609450Y292100D01*
X609460Y292878D01*
X609488Y293655D01*
X609536Y294431D01*
X609602Y295205D01*
X609688Y295978D01*
X609792Y296749D01*
X609915Y297517D01*
X610057Y298281D01*
X610218Y299042D01*
X610397Y299798D01*
X610595Y300550D01*
X610811Y301297D01*
X611046Y302039D01*
X611298Y302774D01*
X611568Y303503D01*
X611857Y304226D01*
X612162Y304940D01*
X612486Y305648D01*
X612826Y306347D01*
X613183Y307037D01*
X613557Y307719D01*
X613948Y308391D01*
X614355Y309054D01*
X614779Y309706D01*
X615218Y310348D01*
X615672Y310979D01*
X616142Y311598D01*
X616627Y312206D01*
X617127Y312802D01*
X617641Y313385D01*
X618169Y313955D01*
X618712Y314513D01*
X619267Y315057D01*
X619836Y315587D01*
X620418Y316103D01*
X621012Y316605D01*
X621618Y317092D01*
X622236Y317564D01*
X622865Y318021D01*
X623505Y318462D01*
X624156Y318887D01*
X624817Y319297D01*
X625488Y319690D01*
X626168Y320066D01*
X626858Y320426D01*
X627556Y320769D01*
X628262Y321094D01*
X628976Y321402D01*
X629697Y321693D01*
X630425Y321966D01*
X631160Y322221D01*
X631900Y322458D01*
X632647Y322676D01*
X633398Y322876D01*
X634154Y323058D01*
X634914Y323222D01*
X635678Y323366D01*
X636446Y323492D01*
X637216Y323599D01*
X637988Y323687D01*
X638763Y323756D01*
X639539Y323807D01*
X640316Y323838D01*
X641093Y323850D01*
X641871Y323843D01*
X642648Y323817D01*
X643424Y323772D01*
X644199Y323708D01*
X644972Y323625D01*
X645743Y323523D01*
X646511Y323403D01*
X647276Y323263D01*
X648037Y323105D01*
X648795Y322928D01*
X649547Y322733D01*
X650295Y322519D01*
X651037Y322288D01*
X651774Y322038D01*
X652503Y321770D01*
X653227Y321484D01*
X653943Y321181D01*
X654651Y320860D01*
X655351Y320522D01*
X656043Y320167D01*
X656726Y319795D01*
X657399Y319406D01*
X658063Y319002D01*
X658717Y318581D01*
X659360Y318144D01*
X659993Y317691D01*
X660614Y317223D01*
X661223Y316740D01*
X661820Y316243D01*
X662405Y315730D01*
X662978Y315204D01*
X663537Y314664D01*
X664083Y314110D01*
X664615Y313543D01*
X665133Y312963D01*
X665637Y312371D01*
X666126Y311766D01*
X666600Y311150D01*
D10*
X615800Y292100D02*
X615808Y292723D01*
X615831Y293346D01*
X615869Y293969D01*
X615922Y294590D01*
X615991Y295209D01*
X616075Y295827D01*
X616174Y296442D01*
X616288Y297055D01*
X616417Y297665D01*
X616561Y298272D01*
X616720Y298875D01*
X616894Y299473D01*
X617082Y300068D01*
X617285Y300657D01*
X617502Y301241D01*
X617733Y301820D01*
X617979Y302393D01*
X618239Y302960D01*
X618512Y303520D01*
X618799Y304073D01*
X619100Y304620D01*
X619414Y305158D01*
X619741Y305689D01*
X620081Y306211D01*
X620433Y306726D01*
X620799Y307231D01*
X621176Y307727D01*
X621566Y308214D01*
X621967Y308691D01*
X622380Y309158D01*
X622804Y309614D01*
X623239Y310061D01*
X623686Y310496D01*
X624142Y310920D01*
X624609Y311333D01*
X625086Y311734D01*
X625573Y312124D01*
X626069Y312501D01*
X626574Y312867D01*
X627089Y313219D01*
X627611Y313559D01*
X628142Y313886D01*
X628680Y314200D01*
X629227Y314501D01*
X629780Y314788D01*
X630340Y315061D01*
X630907Y315321D01*
X631480Y315567D01*
X632059Y315798D01*
X632643Y316015D01*
X633232Y316218D01*
X633827Y316406D01*
X634425Y316580D01*
X635028Y316739D01*
X635635Y316883D01*
X636245Y317012D01*
X636858Y317126D01*
X637473Y317225D01*
X638091Y317309D01*
X638710Y317378D01*
X639331Y317431D01*
X639954Y317469D01*
X640577Y317492D01*
X641200Y317500D01*
X641823Y317492D01*
X642446Y317469D01*
X643069Y317431D01*
X643690Y317378D01*
X644309Y317309D01*
X644927Y317225D01*
X645542Y317126D01*
X646155Y317012D01*
X646765Y316883D01*
X647372Y316739D01*
X647975Y316580D01*
X648573Y316406D01*
X649168Y316218D01*
X649757Y316015D01*
X650341Y315798D01*
X650920Y315567D01*
X651493Y315321D01*
X652060Y315061D01*
X652620Y314788D01*
X653173Y314501D01*
X653720Y314200D01*
X654258Y313886D01*
X654789Y313559D01*
X655311Y313219D01*
X655826Y312867D01*
X656331Y312501D01*
X656827Y312124D01*
X657314Y311734D01*
X657791Y311333D01*
X658258Y310920D01*
X658714Y310496D01*
X659161Y310061D01*
X659596Y309614D01*
X660020Y309158D01*
X660433Y308691D01*
X660834Y308214D01*
X661224Y307727D01*
X661601Y307231D01*
X661967Y306726D01*
X662319Y306211D01*
X662659Y305689D01*
X662986Y305158D01*
X663300Y304620D01*
X663601Y304073D01*
X663888Y303520D01*
X664161Y302960D01*
X664421Y302393D01*
X664667Y301820D01*
X664898Y301241D01*
X665115Y300657D01*
X665318Y300068D01*
X665506Y299473D01*
X665680Y298875D01*
X665839Y298272D01*
X665983Y297665D01*
X666112Y297055D01*
X666226Y296442D01*
X666325Y295827D01*
X666409Y295209D01*
X666478Y294590D01*
X666531Y293969D01*
X666569Y293346D01*
X666592Y292723D01*
X666600Y292100D01*
X666592Y291477D01*
X666569Y290854D01*
X666531Y290231D01*
X666478Y289610D01*
X666409Y288991D01*
X666325Y288373D01*
X666226Y287758D01*
X666112Y287145D01*
X665983Y286535D01*
X665839Y285928D01*
X665680Y285325D01*
X665506Y284727D01*
X665318Y284132D01*
X665115Y283543D01*
X664898Y282959D01*
X664667Y282380D01*
X664421Y281807D01*
X664161Y281240D01*
X663888Y280680D01*
X663601Y280127D01*
X663300Y279580D01*
X662986Y279042D01*
X662659Y278511D01*
X662319Y277989D01*
X661967Y277474D01*
X661601Y276969D01*
X661224Y276473D01*
X660834Y275986D01*
X660433Y275509D01*
X660020Y275042D01*
X659596Y274586D01*
X659161Y274139D01*
X658714Y273704D01*
X658258Y273280D01*
X657791Y272867D01*
X657314Y272466D01*
X656827Y272076D01*
X656331Y271699D01*
X655826Y271333D01*
X655311Y270981D01*
X654789Y270641D01*
X654258Y270314D01*
X653720Y270000D01*
X653173Y269699D01*
X652620Y269412D01*
X652060Y269139D01*
X651493Y268879D01*
X650920Y268633D01*
X650341Y268402D01*
X649757Y268185D01*
X649168Y267982D01*
X648573Y267794D01*
X647975Y267620D01*
X647372Y267461D01*
X646765Y267317D01*
X646155Y267188D01*
X645542Y267074D01*
X644927Y266975D01*
X644309Y266891D01*
X643690Y266822D01*
X643069Y266769D01*
X642446Y266731D01*
X641823Y266708D01*
X641200Y266700D01*
X640577Y266708D01*
X639954Y266731D01*
X639331Y266769D01*
X638710Y266822D01*
X638091Y266891D01*
X637473Y266975D01*
X636858Y267074D01*
X636245Y267188D01*
X635635Y267317D01*
X635028Y267461D01*
X634425Y267620D01*
X633827Y267794D01*
X633232Y267982D01*
X632643Y268185D01*
X632059Y268402D01*
X631480Y268633D01*
X630907Y268879D01*
X630340Y269139D01*
X629780Y269412D01*
X629227Y269699D01*
X628680Y270000D01*
X628142Y270314D01*
X627611Y270641D01*
X627089Y270981D01*
X626574Y271333D01*
X626069Y271699D01*
X625573Y272076D01*
X625086Y272466D01*
X624609Y272867D01*
X624142Y273280D01*
X623686Y273704D01*
X623239Y274139D01*
X622804Y274586D01*
X622380Y275042D01*
X621967Y275509D01*
X621566Y275986D01*
X621176Y276473D01*
X620799Y276969D01*
X620433Y277474D01*
X620081Y277989D01*
X619741Y278511D01*
X619414Y279042D01*
X619100Y279580D01*
X618799Y280127D01*
X618512Y280680D01*
X618239Y281240D01*
X617979Y281807D01*
X617733Y282380D01*
X617502Y282959D01*
X617285Y283543D01*
X617082Y284132D01*
X616894Y284727D01*
X616720Y285325D01*
X616561Y285928D01*
X616417Y286535D01*
X616288Y287145D01*
X616174Y287758D01*
X616075Y288373D01*
X615991Y288991D01*
X615922Y289610D01*
X615869Y290231D01*
X615831Y290854D01*
X615808Y291477D01*
X615800Y292100D01*
D11*
X673585Y298069D02*
X673585Y309499D01*
X676760Y309499D01*
X676871Y309497D01*
X676981Y309491D01*
X677092Y309482D01*
X677202Y309468D01*
X677311Y309451D01*
X677420Y309430D01*
X677528Y309405D01*
X677635Y309376D01*
X677741Y309344D01*
X677846Y309308D01*
X677949Y309268D01*
X678051Y309225D01*
X678152Y309178D01*
X678251Y309127D01*
X678348Y309074D01*
X678442Y309017D01*
X678535Y308956D01*
X678626Y308893D01*
X678715Y308826D01*
X678801Y308756D01*
X678884Y308683D01*
X678966Y308608D01*
X679044Y308530D01*
X679119Y308448D01*
X679192Y308365D01*
X679262Y308279D01*
X679329Y308190D01*
X679392Y308099D01*
X679453Y308006D01*
X679510Y307911D01*
X679563Y307815D01*
X679614Y307716D01*
X679661Y307615D01*
X679704Y307513D01*
X679744Y307410D01*
X679780Y307305D01*
X679812Y307199D01*
X679841Y307092D01*
X679866Y306984D01*
X679887Y306875D01*
X679904Y306766D01*
X679918Y306656D01*
X679927Y306545D01*
X679933Y306435D01*
X679935Y306324D01*
X679933Y306213D01*
X679927Y306103D01*
X679918Y305992D01*
X679904Y305882D01*
X679887Y305773D01*
X679866Y305664D01*
X679841Y305556D01*
X679812Y305449D01*
X679780Y305343D01*
X679744Y305238D01*
X679704Y305135D01*
X679661Y305033D01*
X679614Y304932D01*
X679563Y304833D01*
X679510Y304736D01*
X679453Y304642D01*
X679392Y304549D01*
X679329Y304458D01*
X679262Y304369D01*
X679192Y304283D01*
X679119Y304200D01*
X679044Y304118D01*
X678966Y304040D01*
X678884Y303965D01*
X678801Y303892D01*
X678715Y303822D01*
X678626Y303755D01*
X678535Y303692D01*
X678442Y303631D01*
X678348Y303574D01*
X678251Y303521D01*
X678152Y303470D01*
X678051Y303423D01*
X677949Y303380D01*
X677846Y303340D01*
X677741Y303304D01*
X677635Y303272D01*
X677528Y303243D01*
X677420Y303218D01*
X677311Y303197D01*
X677202Y303180D01*
X677092Y303166D01*
X676981Y303157D01*
X676871Y303151D01*
X676760Y303149D01*
X673585Y303149D01*
X677395Y303149D02*
X679935Y298069D01*
X684932Y300609D02*
X687472Y309499D01*
X684932Y300609D02*
X691282Y300609D01*
X689377Y303149D02*
X689377Y298069D01*
X541650Y72390D02*
X499750Y72390D01*
X496570Y100259D02*
X496853Y100843D01*
X497151Y101419D01*
X497462Y101988D01*
X497787Y102549D01*
X498126Y103102D01*
X498478Y103647D01*
X498843Y104183D01*
X499221Y104710D01*
X499612Y105227D01*
X500015Y105735D01*
X500431Y106233D01*
X500858Y106721D01*
X501297Y107198D01*
X501748Y107665D01*
X502210Y108120D01*
X502683Y108564D01*
X503166Y108996D01*
X503660Y109417D01*
X504164Y109825D01*
X504678Y110221D01*
X505201Y110604D01*
X505733Y110975D01*
X506275Y111332D01*
X506824Y111676D01*
X507382Y112007D01*
X507948Y112324D01*
X508521Y112627D01*
X509102Y112916D01*
X509689Y113191D01*
X510283Y113452D01*
X510883Y113698D01*
X511489Y113929D01*
X512101Y114146D01*
X512717Y114347D01*
X513338Y114534D01*
X513964Y114705D01*
X514593Y114861D01*
X515226Y115002D01*
X515863Y115128D01*
X516502Y115237D01*
X517143Y115332D01*
X517787Y115410D01*
X518433Y115473D01*
X519080Y115521D01*
X519727Y115552D01*
X520376Y115568D01*
X521024Y115568D01*
X521673Y115552D01*
X522320Y115521D01*
X522967Y115473D01*
X523613Y115410D01*
X524257Y115332D01*
X524898Y115237D01*
X525537Y115128D01*
X526174Y115002D01*
X526807Y114861D01*
X527436Y114705D01*
X528062Y114534D01*
X528683Y114347D01*
X529299Y114146D01*
X529911Y113929D01*
X530517Y113698D01*
X531117Y113452D01*
X531711Y113191D01*
X532298Y112916D01*
X532879Y112627D01*
X533452Y112324D01*
X534018Y112007D01*
X534576Y111676D01*
X535125Y111332D01*
X535667Y110975D01*
X536199Y110604D01*
X536722Y110221D01*
X537236Y109825D01*
X537740Y109417D01*
X538234Y108996D01*
X538717Y108564D01*
X539190Y108120D01*
X539652Y107665D01*
X540103Y107198D01*
X540542Y106721D01*
X540969Y106233D01*
X541385Y105735D01*
X541788Y105227D01*
X542179Y104710D01*
X542557Y104183D01*
X542922Y103647D01*
X543274Y103102D01*
X543613Y102549D01*
X543938Y101988D01*
X544249Y101419D01*
X544547Y100843D01*
X544830Y100259D01*
X499750Y72390D02*
X499380Y72871D01*
X499021Y73360D01*
X498673Y73857D01*
X498336Y74362D01*
X498011Y74875D01*
X497698Y75395D01*
X497396Y75922D01*
X497107Y76455D01*
X496830Y76995D01*
X496565Y77541D01*
X506660Y87630D02*
X509340Y87630D01*
X532060Y87630D02*
X534740Y87630D01*
X544947Y77782D02*
X544676Y77209D01*
X544391Y76643D01*
X544094Y76084D01*
X543783Y75532D01*
X543458Y74988D01*
X543122Y74452D01*
X542772Y73923D01*
X542410Y73403D01*
X542036Y72892D01*
X541650Y72390D01*
X495935Y123190D02*
X495935Y128270D01*
X495937Y128381D01*
X495943Y128491D01*
X495952Y128602D01*
X495966Y128712D01*
X495983Y128821D01*
X496004Y128930D01*
X496029Y129038D01*
X496058Y129145D01*
X496090Y129251D01*
X496126Y129356D01*
X496166Y129459D01*
X496209Y129561D01*
X496256Y129662D01*
X496307Y129761D01*
X496360Y129857D01*
X496417Y129952D01*
X496478Y130045D01*
X496541Y130136D01*
X496608Y130225D01*
X496678Y130311D01*
X496751Y130394D01*
X496826Y130476D01*
X496904Y130554D01*
X496986Y130629D01*
X497069Y130702D01*
X497155Y130772D01*
X497244Y130839D01*
X497335Y130902D01*
X497428Y130963D01*
X497523Y131020D01*
X497619Y131073D01*
X497718Y131124D01*
X497819Y131171D01*
X497921Y131214D01*
X498024Y131254D01*
X498129Y131290D01*
X498235Y131322D01*
X498342Y131351D01*
X498450Y131376D01*
X498559Y131397D01*
X498668Y131414D01*
X498778Y131428D01*
X498889Y131437D01*
X498999Y131443D01*
X499110Y131445D01*
X499221Y131443D01*
X499331Y131437D01*
X499442Y131428D01*
X499552Y131414D01*
X499661Y131397D01*
X499770Y131376D01*
X499878Y131351D01*
X499985Y131322D01*
X500091Y131290D01*
X500196Y131254D01*
X500299Y131214D01*
X500401Y131171D01*
X500502Y131124D01*
X500601Y131073D01*
X500698Y131020D01*
X500792Y130963D01*
X500885Y130902D01*
X500976Y130839D01*
X501065Y130772D01*
X501151Y130702D01*
X501234Y130629D01*
X501316Y130554D01*
X501394Y130476D01*
X501469Y130394D01*
X501542Y130311D01*
X501612Y130225D01*
X501679Y130136D01*
X501742Y130045D01*
X501803Y129952D01*
X501860Y129858D01*
X501913Y129761D01*
X501964Y129662D01*
X502011Y129561D01*
X502054Y129459D01*
X502094Y129356D01*
X502130Y129251D01*
X502162Y129145D01*
X502191Y129038D01*
X502216Y128930D01*
X502237Y128821D01*
X502254Y128712D01*
X502268Y128602D01*
X502277Y128491D01*
X502283Y128381D01*
X502285Y128270D01*
X502285Y123190D01*
X502283Y123079D01*
X502277Y122969D01*
X502268Y122858D01*
X502254Y122748D01*
X502237Y122639D01*
X502216Y122530D01*
X502191Y122422D01*
X502162Y122315D01*
X502130Y122209D01*
X502094Y122104D01*
X502054Y122001D01*
X502011Y121899D01*
X501964Y121798D01*
X501913Y121699D01*
X501860Y121602D01*
X501803Y121508D01*
X501742Y121415D01*
X501679Y121324D01*
X501612Y121235D01*
X501542Y121149D01*
X501469Y121066D01*
X501394Y120984D01*
X501316Y120906D01*
X501234Y120831D01*
X501151Y120758D01*
X501065Y120688D01*
X500976Y120621D01*
X500885Y120558D01*
X500792Y120497D01*
X500697Y120440D01*
X500601Y120387D01*
X500502Y120336D01*
X500401Y120289D01*
X500299Y120246D01*
X500196Y120206D01*
X500091Y120170D01*
X499985Y120138D01*
X499878Y120109D01*
X499770Y120084D01*
X499661Y120063D01*
X499552Y120046D01*
X499442Y120032D01*
X499331Y120023D01*
X499221Y120017D01*
X499110Y120015D01*
X498999Y120017D01*
X498889Y120023D01*
X498778Y120032D01*
X498668Y120046D01*
X498559Y120063D01*
X498450Y120084D01*
X498342Y120109D01*
X498235Y120138D01*
X498129Y120170D01*
X498024Y120206D01*
X497921Y120246D01*
X497819Y120289D01*
X497718Y120336D01*
X497619Y120387D01*
X497523Y120440D01*
X497428Y120497D01*
X497335Y120558D01*
X497244Y120621D01*
X497155Y120688D01*
X497069Y120758D01*
X496986Y120831D01*
X496904Y120906D01*
X496826Y120984D01*
X496751Y121066D01*
X496678Y121149D01*
X496608Y121235D01*
X496541Y121324D01*
X496478Y121415D01*
X496417Y121508D01*
X496360Y121603D01*
X496307Y121699D01*
X496256Y121798D01*
X496209Y121899D01*
X496166Y122001D01*
X496126Y122104D01*
X496090Y122209D01*
X496058Y122315D01*
X496029Y122422D01*
X496004Y122530D01*
X495983Y122639D01*
X495966Y122748D01*
X495952Y122858D01*
X495943Y122969D01*
X495937Y123079D01*
X495935Y123190D01*
X501015Y122555D02*
X503555Y120015D01*
X506996Y128905D02*
X510171Y131445D01*
X510171Y120015D01*
X506996Y120015D02*
X513346Y120015D01*
X372110Y118750D02*
X372110Y160650D01*
X344241Y163830D02*
X343657Y163547D01*
X343081Y163249D01*
X342512Y162938D01*
X341951Y162613D01*
X341398Y162274D01*
X340853Y161922D01*
X340317Y161557D01*
X339790Y161179D01*
X339273Y160788D01*
X338765Y160385D01*
X338267Y159969D01*
X337779Y159542D01*
X337302Y159103D01*
X336835Y158652D01*
X336380Y158190D01*
X335936Y157717D01*
X335504Y157234D01*
X335083Y156740D01*
X334675Y156236D01*
X334279Y155722D01*
X333896Y155199D01*
X333525Y154667D01*
X333168Y154125D01*
X332824Y153576D01*
X332493Y153018D01*
X332176Y152452D01*
X331873Y151879D01*
X331584Y151298D01*
X331309Y150711D01*
X331048Y150117D01*
X330802Y149517D01*
X330571Y148911D01*
X330354Y148299D01*
X330153Y147683D01*
X329966Y147062D01*
X329795Y146436D01*
X329639Y145807D01*
X329498Y145174D01*
X329372Y144537D01*
X329263Y143898D01*
X329168Y143257D01*
X329090Y142613D01*
X329027Y141967D01*
X328979Y141320D01*
X328948Y140673D01*
X328932Y140024D01*
X328932Y139376D01*
X328948Y138727D01*
X328979Y138080D01*
X329027Y137433D01*
X329090Y136787D01*
X329168Y136143D01*
X329263Y135502D01*
X329372Y134863D01*
X329498Y134226D01*
X329639Y133593D01*
X329795Y132964D01*
X329966Y132338D01*
X330153Y131717D01*
X330354Y131101D01*
X330571Y130489D01*
X330802Y129883D01*
X331048Y129283D01*
X331309Y128689D01*
X331584Y128102D01*
X331873Y127521D01*
X332176Y126948D01*
X332493Y126382D01*
X332824Y125824D01*
X333168Y125275D01*
X333525Y124733D01*
X333896Y124201D01*
X334279Y123678D01*
X334675Y123164D01*
X335083Y122660D01*
X335504Y122166D01*
X335936Y121683D01*
X336380Y121210D01*
X336835Y120748D01*
X337302Y120297D01*
X337779Y119858D01*
X338267Y119431D01*
X338765Y119015D01*
X339273Y118612D01*
X339790Y118221D01*
X340317Y117843D01*
X340853Y117478D01*
X341398Y117126D01*
X341951Y116787D01*
X342512Y116462D01*
X343081Y116151D01*
X343657Y115853D01*
X344241Y115570D01*
X366959Y115565D02*
X367505Y115830D01*
X368045Y116107D01*
X368578Y116396D01*
X369105Y116698D01*
X369625Y117011D01*
X370138Y117336D01*
X370643Y117673D01*
X371140Y118021D01*
X371629Y118380D01*
X372110Y118750D01*
X356870Y125660D02*
X356870Y128340D01*
X356870Y151060D02*
X356870Y153740D01*
X366718Y163947D02*
X367291Y163676D01*
X367857Y163391D01*
X368416Y163094D01*
X368968Y162783D01*
X369512Y162458D01*
X370048Y162122D01*
X370577Y161772D01*
X371097Y161410D01*
X371608Y161036D01*
X372110Y160650D01*
X321310Y114935D02*
X316230Y114935D01*
X316119Y114937D01*
X316009Y114943D01*
X315898Y114952D01*
X315788Y114966D01*
X315679Y114983D01*
X315570Y115004D01*
X315462Y115029D01*
X315355Y115058D01*
X315249Y115090D01*
X315144Y115126D01*
X315041Y115166D01*
X314939Y115209D01*
X314838Y115256D01*
X314739Y115307D01*
X314643Y115360D01*
X314548Y115417D01*
X314455Y115478D01*
X314364Y115541D01*
X314275Y115608D01*
X314189Y115678D01*
X314106Y115751D01*
X314024Y115826D01*
X313946Y115904D01*
X313871Y115986D01*
X313798Y116069D01*
X313728Y116155D01*
X313661Y116244D01*
X313598Y116335D01*
X313537Y116428D01*
X313480Y116522D01*
X313427Y116619D01*
X313376Y116718D01*
X313329Y116819D01*
X313286Y116921D01*
X313246Y117024D01*
X313210Y117129D01*
X313178Y117235D01*
X313149Y117342D01*
X313124Y117450D01*
X313103Y117559D01*
X313086Y117668D01*
X313072Y117778D01*
X313063Y117889D01*
X313057Y117999D01*
X313055Y118110D01*
X313057Y118221D01*
X313063Y118331D01*
X313072Y118442D01*
X313086Y118552D01*
X313103Y118661D01*
X313124Y118770D01*
X313149Y118878D01*
X313178Y118985D01*
X313210Y119091D01*
X313246Y119196D01*
X313286Y119299D01*
X313329Y119401D01*
X313376Y119502D01*
X313427Y119601D01*
X313480Y119698D01*
X313537Y119792D01*
X313598Y119885D01*
X313661Y119976D01*
X313728Y120065D01*
X313798Y120151D01*
X313871Y120234D01*
X313946Y120316D01*
X314024Y120394D01*
X314106Y120469D01*
X314189Y120542D01*
X314275Y120612D01*
X314364Y120679D01*
X314455Y120742D01*
X314548Y120803D01*
X314643Y120860D01*
X314739Y120913D01*
X314838Y120964D01*
X314939Y121011D01*
X315041Y121054D01*
X315144Y121094D01*
X315249Y121130D01*
X315355Y121162D01*
X315462Y121191D01*
X315570Y121216D01*
X315679Y121237D01*
X315788Y121254D01*
X315898Y121268D01*
X316009Y121277D01*
X316119Y121283D01*
X316230Y121285D01*
X321310Y121285D01*
X321421Y121283D01*
X321531Y121277D01*
X321642Y121268D01*
X321752Y121254D01*
X321861Y121237D01*
X321970Y121216D01*
X322078Y121191D01*
X322185Y121162D01*
X322291Y121130D01*
X322396Y121094D01*
X322499Y121054D01*
X322601Y121011D01*
X322702Y120964D01*
X322801Y120913D01*
X322898Y120860D01*
X322992Y120803D01*
X323085Y120742D01*
X323176Y120679D01*
X323265Y120612D01*
X323351Y120542D01*
X323434Y120469D01*
X323516Y120394D01*
X323594Y120316D01*
X323669Y120234D01*
X323742Y120151D01*
X323812Y120065D01*
X323879Y119976D01*
X323942Y119885D01*
X324003Y119792D01*
X324060Y119697D01*
X324113Y119601D01*
X324164Y119502D01*
X324211Y119401D01*
X324254Y119299D01*
X324294Y119196D01*
X324330Y119091D01*
X324362Y118985D01*
X324391Y118878D01*
X324416Y118770D01*
X324437Y118661D01*
X324454Y118552D01*
X324468Y118442D01*
X324477Y118331D01*
X324483Y118221D01*
X324485Y118110D01*
X324483Y117999D01*
X324477Y117889D01*
X324468Y117778D01*
X324454Y117668D01*
X324437Y117559D01*
X324416Y117450D01*
X324391Y117342D01*
X324362Y117235D01*
X324330Y117129D01*
X324294Y117024D01*
X324254Y116921D01*
X324211Y116819D01*
X324164Y116718D01*
X324113Y116619D01*
X324060Y116522D01*
X324003Y116428D01*
X323942Y116335D01*
X323879Y116244D01*
X323812Y116155D01*
X323742Y116069D01*
X323669Y115986D01*
X323594Y115904D01*
X323516Y115826D01*
X323434Y115751D01*
X323351Y115678D01*
X323265Y115608D01*
X323176Y115541D01*
X323085Y115478D01*
X322992Y115417D01*
X322898Y115360D01*
X322801Y115307D01*
X322702Y115256D01*
X322601Y115209D01*
X322499Y115166D01*
X322396Y115126D01*
X322291Y115090D01*
X322185Y115058D01*
X322078Y115029D01*
X321970Y115004D01*
X321861Y114983D01*
X321752Y114966D01*
X321642Y114952D01*
X321531Y114943D01*
X321421Y114937D01*
X321310Y114935D01*
X321945Y120015D02*
X324485Y122555D01*
X315913Y132346D02*
X315809Y132344D01*
X315704Y132338D01*
X315600Y132329D01*
X315497Y132316D01*
X315394Y132298D01*
X315292Y132278D01*
X315190Y132253D01*
X315090Y132225D01*
X314990Y132193D01*
X314892Y132157D01*
X314795Y132118D01*
X314700Y132076D01*
X314606Y132030D01*
X314514Y131980D01*
X314424Y131928D01*
X314336Y131872D01*
X314250Y131812D01*
X314166Y131750D01*
X314085Y131685D01*
X314006Y131617D01*
X313929Y131545D01*
X313856Y131472D01*
X313784Y131395D01*
X313716Y131316D01*
X313651Y131235D01*
X313589Y131151D01*
X313529Y131065D01*
X313473Y130977D01*
X313421Y130887D01*
X313371Y130795D01*
X313325Y130701D01*
X313283Y130606D01*
X313244Y130509D01*
X313208Y130411D01*
X313176Y130311D01*
X313148Y130211D01*
X313123Y130109D01*
X313103Y130007D01*
X313085Y129904D01*
X313072Y129801D01*
X313063Y129697D01*
X313057Y129592D01*
X313055Y129488D01*
X313057Y129370D01*
X313063Y129251D01*
X313072Y129133D01*
X313085Y129016D01*
X313103Y128899D01*
X313123Y128782D01*
X313148Y128666D01*
X313176Y128551D01*
X313209Y128438D01*
X313244Y128325D01*
X313284Y128213D01*
X313326Y128103D01*
X313373Y127994D01*
X313423Y127886D01*
X313476Y127781D01*
X313533Y127677D01*
X313593Y127575D01*
X313656Y127475D01*
X313723Y127377D01*
X313792Y127281D01*
X313865Y127188D01*
X313941Y127097D01*
X314019Y127008D01*
X314101Y126922D01*
X314185Y126839D01*
X314271Y126758D01*
X314361Y126681D01*
X314452Y126606D01*
X314546Y126534D01*
X314643Y126465D01*
X314741Y126400D01*
X314842Y126337D01*
X314945Y126278D01*
X315049Y126222D01*
X315155Y126170D01*
X315263Y126121D01*
X315372Y126076D01*
X315483Y126034D01*
X315595Y125996D01*
X318135Y131393D02*
X318060Y131469D01*
X317981Y131544D01*
X317900Y131615D01*
X317816Y131684D01*
X317730Y131749D01*
X317642Y131811D01*
X317552Y131871D01*
X317460Y131927D01*
X317365Y131980D01*
X317269Y132029D01*
X317171Y132075D01*
X317072Y132118D01*
X316971Y132157D01*
X316869Y132192D01*
X316766Y132224D01*
X316662Y132252D01*
X316557Y132277D01*
X316450Y132298D01*
X316344Y132315D01*
X316237Y132328D01*
X316129Y132337D01*
X316021Y132343D01*
X315913Y132345D01*
X318135Y131393D02*
X324485Y125996D01*
X324485Y132346D01*
X193835Y465315D02*
X197645Y476745D01*
X201455Y465315D01*
X200503Y468173D02*
X194788Y468173D01*
X206281Y465315D02*
X206281Y476745D01*
X212631Y465315D01*
X212631Y476745D01*
X220505Y476745D02*
X220505Y465315D01*
X217330Y476745D02*
X223680Y476745D01*
X227998Y474205D02*
X231173Y476745D01*
X231173Y465315D01*
X227998Y465315D02*
X234348Y465315D01*
D10*
X373850Y96200D02*
X386550Y96200D01*
X392900Y89850D01*
X392900Y77150D02*
X386550Y70800D01*
X392900Y89850D02*
X399250Y96200D01*
X411950Y96200D01*
X418300Y89850D01*
X418300Y77150D02*
X411950Y70800D01*
X399250Y70800D01*
X392900Y77150D01*
X367500Y77150D02*
X367500Y89850D01*
X373850Y96200D01*
X367500Y77150D02*
X373850Y70800D01*
X386550Y70800D01*
X418300Y89850D02*
X424650Y96200D01*
X437350Y96200D01*
X443700Y89850D01*
X443700Y77150D02*
X437350Y70800D01*
X424650Y70800D01*
X418300Y77150D01*
X443700Y77150D02*
X443700Y89850D01*
D11*
X358610Y89215D02*
X355435Y86675D01*
X358610Y89215D02*
X358610Y77785D01*
X355435Y77785D02*
X361785Y77785D01*
X371945Y100645D02*
X368135Y112075D01*
X375755Y112075D02*
X371945Y100645D01*
X382703Y100645D02*
X385243Y100645D01*
X382703Y100645D02*
X382603Y100647D01*
X382504Y100653D01*
X382404Y100663D01*
X382306Y100676D01*
X382207Y100694D01*
X382110Y100715D01*
X382014Y100740D01*
X381918Y100769D01*
X381824Y100802D01*
X381731Y100838D01*
X381640Y100878D01*
X381550Y100922D01*
X381462Y100969D01*
X381376Y101019D01*
X381292Y101073D01*
X381210Y101130D01*
X381131Y101190D01*
X381053Y101254D01*
X380979Y101320D01*
X380907Y101389D01*
X380838Y101461D01*
X380772Y101535D01*
X380708Y101613D01*
X380648Y101692D01*
X380591Y101774D01*
X380537Y101858D01*
X380487Y101944D01*
X380440Y102032D01*
X380396Y102122D01*
X380356Y102213D01*
X380320Y102306D01*
X380287Y102400D01*
X380258Y102496D01*
X380233Y102592D01*
X380212Y102689D01*
X380194Y102788D01*
X380181Y102886D01*
X380171Y102986D01*
X380165Y103085D01*
X380163Y103185D01*
X380163Y109535D01*
X380165Y109635D01*
X380171Y109734D01*
X380181Y109834D01*
X380194Y109932D01*
X380212Y110031D01*
X380233Y110128D01*
X380258Y110224D01*
X380287Y110320D01*
X380320Y110414D01*
X380356Y110507D01*
X380396Y110598D01*
X380440Y110688D01*
X380487Y110776D01*
X380537Y110862D01*
X380591Y110946D01*
X380648Y111028D01*
X380708Y111107D01*
X380772Y111185D01*
X380838Y111259D01*
X380907Y111331D01*
X380979Y111400D01*
X381053Y111466D01*
X381131Y111530D01*
X381210Y111590D01*
X381292Y111647D01*
X381376Y111701D01*
X381462Y111751D01*
X381550Y111798D01*
X381640Y111842D01*
X381731Y111882D01*
X381824Y111918D01*
X381918Y111951D01*
X382014Y111980D01*
X382110Y112005D01*
X382207Y112026D01*
X382306Y112044D01*
X382404Y112057D01*
X382504Y112067D01*
X382603Y112073D01*
X382703Y112075D01*
X385243Y112075D01*
X392228Y100645D02*
X394768Y100645D01*
X392228Y100645D02*
X392128Y100647D01*
X392029Y100653D01*
X391929Y100663D01*
X391831Y100676D01*
X391732Y100694D01*
X391635Y100715D01*
X391539Y100740D01*
X391443Y100769D01*
X391349Y100802D01*
X391256Y100838D01*
X391165Y100878D01*
X391075Y100922D01*
X390987Y100969D01*
X390901Y101019D01*
X390817Y101073D01*
X390735Y101130D01*
X390656Y101190D01*
X390578Y101254D01*
X390504Y101320D01*
X390432Y101389D01*
X390363Y101461D01*
X390297Y101535D01*
X390233Y101613D01*
X390173Y101692D01*
X390116Y101774D01*
X390062Y101858D01*
X390012Y101944D01*
X389965Y102032D01*
X389921Y102122D01*
X389881Y102213D01*
X389845Y102306D01*
X389812Y102400D01*
X389783Y102496D01*
X389758Y102592D01*
X389737Y102689D01*
X389719Y102788D01*
X389706Y102886D01*
X389696Y102986D01*
X389690Y103085D01*
X389688Y103185D01*
X389688Y109535D01*
X389690Y109635D01*
X389696Y109734D01*
X389706Y109834D01*
X389719Y109932D01*
X389737Y110031D01*
X389758Y110128D01*
X389783Y110224D01*
X389812Y110320D01*
X389845Y110414D01*
X389881Y110507D01*
X389921Y110598D01*
X389965Y110688D01*
X390012Y110776D01*
X390062Y110862D01*
X390116Y110946D01*
X390173Y111028D01*
X390233Y111107D01*
X390297Y111185D01*
X390363Y111259D01*
X390432Y111331D01*
X390504Y111400D01*
X390578Y111466D01*
X390656Y111530D01*
X390735Y111590D01*
X390817Y111647D01*
X390901Y111701D01*
X390987Y111751D01*
X391075Y111798D01*
X391165Y111842D01*
X391256Y111882D01*
X391349Y111918D01*
X391443Y111951D01*
X391539Y111980D01*
X391635Y112005D01*
X391732Y112026D01*
X391831Y112044D01*
X391929Y112057D01*
X392029Y112067D01*
X392128Y112073D01*
X392228Y112075D01*
X394768Y112075D01*
D10*
X171450Y101600D02*
X158750Y101600D01*
X171450Y101600D02*
X177800Y95250D01*
X177800Y82550D02*
X171450Y76200D01*
X177800Y95250D02*
X184150Y101600D01*
X196850Y101600D01*
X203200Y95250D01*
X203200Y82550D02*
X196850Y76200D01*
X184150Y76200D01*
X177800Y82550D01*
X152400Y82550D02*
X152400Y95250D01*
X158750Y101600D01*
X152400Y82550D02*
X158750Y76200D01*
X171450Y76200D01*
X203200Y95250D02*
X209550Y101600D01*
X222250Y101600D01*
X228600Y95250D01*
X228600Y82550D02*
X222250Y76200D01*
X209550Y76200D01*
X203200Y82550D01*
X228600Y82550D02*
X228600Y95250D01*
D11*
X143510Y94615D02*
X140335Y92075D01*
X143510Y94615D02*
X143510Y83185D01*
X140335Y83185D02*
X146685Y83185D01*
X157480Y112395D02*
X159385Y112395D01*
X159385Y106045D01*
X155575Y106045D01*
X155475Y106047D01*
X155376Y106053D01*
X155276Y106063D01*
X155178Y106076D01*
X155079Y106094D01*
X154982Y106115D01*
X154886Y106140D01*
X154790Y106169D01*
X154696Y106202D01*
X154603Y106238D01*
X154512Y106278D01*
X154422Y106322D01*
X154334Y106369D01*
X154248Y106419D01*
X154164Y106473D01*
X154082Y106530D01*
X154003Y106590D01*
X153925Y106654D01*
X153851Y106720D01*
X153779Y106789D01*
X153710Y106861D01*
X153644Y106935D01*
X153580Y107013D01*
X153520Y107092D01*
X153463Y107174D01*
X153409Y107258D01*
X153359Y107344D01*
X153312Y107432D01*
X153268Y107522D01*
X153228Y107613D01*
X153192Y107706D01*
X153159Y107800D01*
X153130Y107896D01*
X153105Y107992D01*
X153084Y108089D01*
X153066Y108188D01*
X153053Y108286D01*
X153043Y108386D01*
X153037Y108485D01*
X153035Y108585D01*
X153035Y114935D01*
X153037Y115035D01*
X153043Y115134D01*
X153053Y115234D01*
X153066Y115332D01*
X153084Y115431D01*
X153105Y115528D01*
X153130Y115624D01*
X153159Y115720D01*
X153192Y115814D01*
X153228Y115907D01*
X153268Y115998D01*
X153312Y116088D01*
X153359Y116176D01*
X153409Y116262D01*
X153463Y116346D01*
X153520Y116428D01*
X153580Y116507D01*
X153644Y116585D01*
X153710Y116659D01*
X153779Y116731D01*
X153851Y116800D01*
X153925Y116866D01*
X154003Y116930D01*
X154082Y116990D01*
X154164Y117047D01*
X154248Y117101D01*
X154334Y117151D01*
X154422Y117198D01*
X154512Y117242D01*
X154603Y117282D01*
X154696Y117318D01*
X154790Y117351D01*
X154886Y117380D01*
X154982Y117405D01*
X155079Y117426D01*
X155178Y117444D01*
X155276Y117457D01*
X155376Y117467D01*
X155475Y117473D01*
X155575Y117475D01*
X159385Y117475D01*
X165227Y117475D02*
X165227Y106045D01*
X171577Y106045D02*
X165227Y117475D01*
X171577Y117475D02*
X171577Y106045D01*
X177419Y106045D02*
X177419Y117475D01*
X180594Y117475D01*
X180705Y117473D01*
X180815Y117467D01*
X180926Y117458D01*
X181036Y117444D01*
X181145Y117427D01*
X181254Y117406D01*
X181362Y117381D01*
X181469Y117352D01*
X181575Y117320D01*
X181680Y117284D01*
X181783Y117244D01*
X181885Y117201D01*
X181986Y117154D01*
X182085Y117103D01*
X182182Y117050D01*
X182276Y116993D01*
X182369Y116932D01*
X182460Y116869D01*
X182549Y116802D01*
X182635Y116732D01*
X182718Y116659D01*
X182800Y116584D01*
X182878Y116506D01*
X182953Y116424D01*
X183026Y116341D01*
X183096Y116255D01*
X183163Y116166D01*
X183226Y116075D01*
X183287Y115982D01*
X183344Y115888D01*
X183397Y115791D01*
X183448Y115692D01*
X183495Y115591D01*
X183538Y115489D01*
X183578Y115386D01*
X183614Y115281D01*
X183646Y115175D01*
X183675Y115068D01*
X183700Y114960D01*
X183721Y114851D01*
X183738Y114742D01*
X183752Y114632D01*
X183761Y114521D01*
X183767Y114411D01*
X183769Y114300D01*
X183769Y109220D01*
X183767Y109109D01*
X183761Y108999D01*
X183752Y108888D01*
X183738Y108778D01*
X183721Y108669D01*
X183700Y108560D01*
X183675Y108452D01*
X183646Y108345D01*
X183614Y108239D01*
X183578Y108134D01*
X183538Y108031D01*
X183495Y107929D01*
X183448Y107828D01*
X183397Y107729D01*
X183344Y107632D01*
X183287Y107538D01*
X183226Y107445D01*
X183163Y107354D01*
X183096Y107265D01*
X183026Y107179D01*
X182953Y107096D01*
X182878Y107014D01*
X182800Y106936D01*
X182718Y106861D01*
X182635Y106788D01*
X182549Y106718D01*
X182460Y106651D01*
X182369Y106588D01*
X182276Y106527D01*
X182181Y106470D01*
X182085Y106417D01*
X181986Y106366D01*
X181885Y106319D01*
X181783Y106276D01*
X181680Y106236D01*
X181575Y106200D01*
X181469Y106168D01*
X181362Y106139D01*
X181254Y106114D01*
X181145Y106093D01*
X181036Y106076D01*
X180926Y106062D01*
X180815Y106053D01*
X180705Y106047D01*
X180594Y106045D01*
X177419Y106045D01*
M02*
