G04 EAGLE Gerber RS-274X export*
G75*
%MOMM*%
%FSLAX34Y34*%
%LPD*%
%INSoldermask Bottom*%
%IPPOS*%
%AMOC8*
5,1,8,0,0,1.08239X$1,22.5*%
G01*
%ADD10C,1.524000*%
%ADD11P,1.649562X8X202.500000*%
%ADD12P,1.649562X8X22.500000*%
%ADD13P,1.649562X8X112.500000*%
%ADD14C,1.524000*%
%ADD15P,2.969212X8X22.500000*%
%ADD16C,1.727200*%


D10*
X469900Y190500D03*
X495300Y190500D03*
X495300Y266700D03*
X469900Y266700D03*
X520700Y190500D03*
X546100Y190500D03*
X520700Y266700D03*
X546100Y266700D03*
D11*
X228600Y381000D03*
X203200Y381000D03*
D12*
X330200Y228600D03*
X355600Y228600D03*
D13*
X622300Y165100D03*
X622300Y190500D03*
D12*
X228600Y266700D03*
X254000Y266700D03*
X215900Y482600D03*
X241300Y482600D03*
X419100Y317500D03*
X444500Y317500D03*
D13*
X520700Y406400D03*
X520700Y431800D03*
X330200Y406400D03*
X330200Y431800D03*
D11*
X635000Y393700D03*
X609600Y393700D03*
D12*
X419100Y406400D03*
X444500Y406400D03*
D11*
X584200Y330200D03*
X558800Y330200D03*
D12*
X628500Y292100D03*
X653900Y292100D03*
D14*
X495300Y95504D02*
X495300Y82296D01*
X546100Y82296D02*
X546100Y95504D01*
X520700Y95504D02*
X520700Y82296D01*
X362204Y114300D02*
X348996Y114300D01*
X348996Y165100D02*
X362204Y165100D01*
X362204Y139700D02*
X348996Y139700D01*
D15*
X205900Y434200D03*
D16*
X380200Y91120D02*
X380200Y75880D01*
X405600Y75880D02*
X405600Y91120D01*
X431000Y91120D02*
X431000Y75880D01*
X165100Y81280D02*
X165100Y96520D01*
X190500Y96520D02*
X190500Y81280D01*
X215900Y81280D02*
X215900Y96520D01*
M02*
